ISO-10303-21;
HEADER;
/* Generated by software containing ST-Developer
 * from STEP Tools, Inc. (www.steptools.com) 
 */
/* OPTION: strings as raw bytes, not using required /X/ escapes */

FILE_DESCRIPTION(
/* description */ ('Unknown'),
/* implementation_level */ '2;1');

FILE_NAME(
/* name */ 'birgit_box',
/* time_stamp */ '2025-10-19T21:39:35+02:00',
/* author */ ('Unknown'),
/* organization */ ('Unknown'),
/* preprocessor_version */ 'ST-DEVELOPER v19.4',
/* originating_system */ 'Solid Edge',
/* authorisation */ 'Unknown');

FILE_SCHEMA (('AUTOMOTIVE_DESIGN {1 0 10303 214 3 1 1}'));
ENDSEC;

DATA;
#10=PROPERTY_DEFINITION_REPRESENTATION(#14,#12);
#11=PROPERTY_DEFINITION_REPRESENTATION(#15,#13);
#12=REPRESENTATION('',(#16),#589);
#13=REPRESENTATION('',(#17),#589);
#14=PROPERTY_DEFINITION('pmi validation property','',#594);
#15=PROPERTY_DEFINITION('pmi validation property','',#594);
#16=VALUE_REPRESENTATION_ITEM('number of annotations',COUNT_MEASURE(0.));
#17=VALUE_REPRESENTATION_ITEM('number of views',COUNT_MEASURE(0.));
#18=SHAPE_REPRESENTATION_RELATIONSHIP('','',#367,#19);
#19=ADVANCED_BREP_SHAPE_REPRESENTATION('',(#365),#589);
#20=CYLINDRICAL_SURFACE('',#388,10.);
#21=CYLINDRICAL_SURFACE('',#389,6.75);
#22=CYLINDRICAL_SURFACE('',#393,10.);
#23=CYLINDRICAL_SURFACE('',#394,6.75);
#24=CIRCLE('',#370,10.);
#25=CIRCLE('',#371,10.);
#26=CIRCLE('',#379,6.75);
#27=CIRCLE('',#380,6.75);
#28=CIRCLE('',#386,10.);
#29=CIRCLE('',#387,6.75);
#30=CIRCLE('',#391,10.);
#31=CIRCLE('',#392,6.75);
#32=ORIENTED_EDGE('',*,*,#128,.T.);
#33=ORIENTED_EDGE('',*,*,#129,.T.);
#34=ORIENTED_EDGE('',*,*,#130,.T.);
#35=ORIENTED_EDGE('',*,*,#131,.T.);
#36=ORIENTED_EDGE('',*,*,#132,.T.);
#37=ORIENTED_EDGE('',*,*,#133,.T.);
#38=ORIENTED_EDGE('',*,*,#134,.T.);
#39=ORIENTED_EDGE('',*,*,#135,.T.);
#40=ORIENTED_EDGE('',*,*,#136,.F.);
#41=ORIENTED_EDGE('',*,*,#137,.T.);
#42=ORIENTED_EDGE('',*,*,#138,.T.);
#43=ORIENTED_EDGE('',*,*,#139,.T.);
#44=ORIENTED_EDGE('',*,*,#130,.F.);
#45=ORIENTED_EDGE('',*,*,#140,.T.);
#46=ORIENTED_EDGE('',*,*,#141,.T.);
#47=ORIENTED_EDGE('',*,*,#142,.T.);
#48=ORIENTED_EDGE('',*,*,#143,.T.);
#49=ORIENTED_EDGE('',*,*,#144,.T.);
#50=ORIENTED_EDGE('',*,*,#145,.T.);
#51=ORIENTED_EDGE('',*,*,#146,.T.);
#52=ORIENTED_EDGE('',*,*,#132,.F.);
#53=ORIENTED_EDGE('',*,*,#147,.T.);
#54=ORIENTED_EDGE('',*,*,#148,.T.);
#55=ORIENTED_EDGE('',*,*,#149,.T.);
#56=ORIENTED_EDGE('',*,*,#150,.T.);
#57=ORIENTED_EDGE('',*,*,#151,.F.);
#58=ORIENTED_EDGE('',*,*,#152,.T.);
#59=ORIENTED_EDGE('',*,*,#153,.T.);
#60=ORIENTED_EDGE('',*,*,#128,.F.);
#61=ORIENTED_EDGE('',*,*,#154,.T.);
#62=ORIENTED_EDGE('',*,*,#155,.T.);
#63=ORIENTED_EDGE('',*,*,#156,.T.);
#64=ORIENTED_EDGE('',*,*,#157,.T.);
#65=ORIENTED_EDGE('',*,*,#158,.F.);
#66=ORIENTED_EDGE('',*,*,#133,.F.);
#67=ORIENTED_EDGE('',*,*,#151,.T.);
#68=ORIENTED_EDGE('',*,*,#159,.T.);
#69=ORIENTED_EDGE('',*,*,#160,.T.);
#70=ORIENTED_EDGE('',*,*,#134,.F.);
#71=ORIENTED_EDGE('',*,*,#158,.T.);
#72=ORIENTED_EDGE('',*,*,#161,.T.);
#73=ORIENTED_EDGE('',*,*,#162,.F.);
#74=ORIENTED_EDGE('',*,*,#138,.F.);
#75=ORIENTED_EDGE('',*,*,#163,.T.);
#76=ORIENTED_EDGE('',*,*,#164,.T.);
#77=ORIENTED_EDGE('',*,*,#154,.F.);
#78=ORIENTED_EDGE('',*,*,#139,.F.);
#79=ORIENTED_EDGE('',*,*,#162,.T.);
#80=ORIENTED_EDGE('',*,*,#143,.F.);
#81=ORIENTED_EDGE('',*,*,#165,.T.);
#82=ORIENTED_EDGE('',*,*,#155,.F.);
#83=ORIENTED_EDGE('',*,*,#164,.F.);
#84=ORIENTED_EDGE('',*,*,#161,.F.);
#85=ORIENTED_EDGE('',*,*,#157,.F.);
#86=ORIENTED_EDGE('',*,*,#150,.F.);
#87=ORIENTED_EDGE('',*,*,#166,.T.);
#88=ORIENTED_EDGE('',*,*,#160,.F.);
#89=ORIENTED_EDGE('',*,*,#167,.F.);
#90=ORIENTED_EDGE('',*,*,#168,.T.);
#91=ORIENTED_EDGE('',*,*,#135,.F.);
#92=ORIENTED_EDGE('',*,*,#169,.T.);
#93=ORIENTED_EDGE('',*,*,#170,.T.);
#94=ORIENTED_EDGE('',*,*,#163,.F.);
#95=ORIENTED_EDGE('',*,*,#137,.F.);
#96=ORIENTED_EDGE('',*,*,#159,.F.);
#97=ORIENTED_EDGE('',*,*,#170,.F.);
#98=ORIENTED_EDGE('',*,*,#171,.T.);
#99=ORIENTED_EDGE('',*,*,#167,.T.);
#100=ORIENTED_EDGE('',*,*,#136,.T.);
#101=ORIENTED_EDGE('',*,*,#168,.F.);
#102=ORIENTED_EDGE('',*,*,#171,.F.);
#103=ORIENTED_EDGE('',*,*,#169,.F.);
#104=ORIENTED_EDGE('',*,*,#172,.T.);
#105=ORIENTED_EDGE('',*,*,#145,.F.);
#106=ORIENTED_EDGE('',*,*,#173,.T.);
#107=ORIENTED_EDGE('',*,*,#148,.F.);
#108=ORIENTED_EDGE('',*,*,#131,.F.);
#109=ORIENTED_EDGE('',*,*,#146,.F.);
#110=ORIENTED_EDGE('',*,*,#172,.F.);
#111=ORIENTED_EDGE('',*,*,#147,.F.);
#112=ORIENTED_EDGE('',*,*,#173,.F.);
#113=ORIENTED_EDGE('',*,*,#144,.F.);
#114=ORIENTED_EDGE('',*,*,#166,.F.);
#115=ORIENTED_EDGE('',*,*,#149,.F.);
#116=ORIENTED_EDGE('',*,*,#174,.T.);
#117=ORIENTED_EDGE('',*,*,#152,.F.);
#118=ORIENTED_EDGE('',*,*,#175,.T.);
#119=ORIENTED_EDGE('',*,*,#141,.F.);
#120=ORIENTED_EDGE('',*,*,#129,.F.);
#121=ORIENTED_EDGE('',*,*,#153,.F.);
#122=ORIENTED_EDGE('',*,*,#174,.F.);
#123=ORIENTED_EDGE('',*,*,#140,.F.);
#124=ORIENTED_EDGE('',*,*,#175,.F.);
#125=ORIENTED_EDGE('',*,*,#156,.F.);
#126=ORIENTED_EDGE('',*,*,#165,.F.);
#127=ORIENTED_EDGE('',*,*,#142,.F.);
#128=EDGE_CURVE('',#176,#177,#208,.T.);
#129=EDGE_CURVE('',#177,#178,#24,.T.);
#130=EDGE_CURVE('',#178,#179,#209,.T.);
#131=EDGE_CURVE('',#179,#180,#25,.T.);
#132=EDGE_CURVE('',#180,#181,#210,.T.);
#133=EDGE_CURVE('',#181,#182,#211,.T.);
#134=EDGE_CURVE('',#182,#183,#212,.T.);
#135=EDGE_CURVE('',#183,#184,#213,.T.);
#136=EDGE_CURVE('',#185,#184,#214,.T.);
#137=EDGE_CURVE('',#185,#186,#215,.T.);
#138=EDGE_CURVE('',#186,#187,#216,.T.);
#139=EDGE_CURVE('',#187,#176,#217,.T.);
#140=EDGE_CURVE('',#178,#188,#218,.T.);
#141=EDGE_CURVE('',#188,#189,#219,.T.);
#142=EDGE_CURVE('',#189,#190,#220,.T.);
#143=EDGE_CURVE('',#190,#191,#221,.T.);
#144=EDGE_CURVE('',#191,#192,#222,.F.);
#145=EDGE_CURVE('',#192,#193,#223,.T.);
#146=EDGE_CURVE('',#193,#179,#224,.F.);
#147=EDGE_CURVE('',#180,#194,#225,.T.);
#148=EDGE_CURVE('',#194,#195,#226,.T.);
#149=EDGE_CURVE('',#195,#196,#227,.T.);
#150=EDGE_CURVE('',#196,#197,#228,.T.);
#151=EDGE_CURVE('',#181,#197,#229,.T.);
#152=EDGE_CURVE('',#198,#199,#230,.T.);
#153=EDGE_CURVE('',#199,#177,#231,.F.);
#154=EDGE_CURVE('',#176,#200,#232,.T.);
#155=EDGE_CURVE('',#200,#201,#233,.T.);
#156=EDGE_CURVE('',#201,#198,#234,.F.);
#157=EDGE_CURVE('',#197,#202,#235,.T.);
#158=EDGE_CURVE('',#182,#202,#236,.T.);
#159=EDGE_CURVE('',#203,#204,#237,.T.);
#160=EDGE_CURVE('',#204,#183,#238,.T.);
#161=EDGE_CURVE('',#202,#205,#239,.T.);
#162=EDGE_CURVE('',#187,#205,#240,.T.);
#163=EDGE_CURVE('',#186,#203,#241,.T.);
#164=EDGE_CURVE('',#205,#200,#242,.T.);
#165=EDGE_CURVE('',#190,#201,#26,.T.);
#166=EDGE_CURVE('',#196,#191,#27,.T.);
#167=EDGE_CURVE('',#206,#204,#243,.T.);
#168=EDGE_CURVE('',#206,#184,#244,.T.);
#169=EDGE_CURVE('',#185,#207,#245,.T.);
#170=EDGE_CURVE('',#207,#203,#246,.T.);
#171=EDGE_CURVE('',#207,#206,#247,.T.);
#172=EDGE_CURVE('',#194,#193,#28,.T.);
#173=EDGE_CURVE('',#192,#195,#29,.T.);
#174=EDGE_CURVE('',#188,#199,#30,.T.);
#175=EDGE_CURVE('',#198,#189,#31,.T.);
#176=VERTEX_POINT('',#492);
#177=VERTEX_POINT('',#493);
#178=VERTEX_POINT('',#495);
#179=VERTEX_POINT('',#497);
#180=VERTEX_POINT('',#499);
#181=VERTEX_POINT('',#501);
#182=VERTEX_POINT('',#503);
#183=VERTEX_POINT('',#505);
#184=VERTEX_POINT('',#507);
#185=VERTEX_POINT('',#509);
#186=VERTEX_POINT('',#511);
#187=VERTEX_POINT('',#513);
#188=VERTEX_POINT('',#517);
#189=VERTEX_POINT('',#519);
#190=VERTEX_POINT('',#521);
#191=VERTEX_POINT('',#523);
#192=VERTEX_POINT('',#525);
#193=VERTEX_POINT('',#527);
#194=VERTEX_POINT('',#531);
#195=VERTEX_POINT('',#533);
#196=VERTEX_POINT('',#535);
#197=VERTEX_POINT('',#537);
#198=VERTEX_POINT('',#541);
#199=VERTEX_POINT('',#542);
#200=VERTEX_POINT('',#545);
#201=VERTEX_POINT('',#547);
#202=VERTEX_POINT('',#551);
#203=VERTEX_POINT('',#555);
#204=VERTEX_POINT('',#556);
#205=VERTEX_POINT('',#559);
#206=VERTEX_POINT('',#569);
#207=VERTEX_POINT('',#573);
#208=LINE('',#491,#248);
#209=LINE('',#496,#249);
#210=LINE('',#500,#250);
#211=LINE('',#502,#251);
#212=LINE('',#504,#252);
#213=LINE('',#506,#253);
#214=LINE('',#508,#254);
#215=LINE('',#510,#255);
#216=LINE('',#512,#256);
#217=LINE('',#514,#257);
#218=LINE('',#516,#258);
#219=LINE('',#518,#259);
#220=LINE('',#520,#260);
#221=LINE('',#522,#261);
#222=LINE('',#524,#262);
#223=LINE('',#526,#263);
#224=LINE('',#528,#264);
#225=LINE('',#530,#265);
#226=LINE('',#532,#266);
#227=LINE('',#534,#267);
#228=LINE('',#536,#268);
#229=LINE('',#538,#269);
#230=LINE('',#540,#270);
#231=LINE('',#543,#271);
#232=LINE('',#544,#272);
#233=LINE('',#546,#273);
#234=LINE('',#548,#274);
#235=LINE('',#550,#275);
#236=LINE('',#552,#276);
#237=LINE('',#554,#277);
#238=LINE('',#557,#278);
#239=LINE('',#558,#279);
#240=LINE('',#560,#280);
#241=LINE('',#561,#281);
#242=LINE('',#563,#282);
#243=LINE('',#568,#283);
#244=LINE('',#570,#284);
#245=LINE('',#572,#285);
#246=LINE('',#574,#286);
#247=LINE('',#576,#287);
#248=VECTOR('',#399,1000.);
#249=VECTOR('',#402,1000.);
#250=VECTOR('',#405,1000.);
#251=VECTOR('',#406,1000.);
#252=VECTOR('',#407,1000.);
#253=VECTOR('',#408,1000.);
#254=VECTOR('',#409,1000.);
#255=VECTOR('',#410,1000.);
#256=VECTOR('',#411,1000.);
#257=VECTOR('',#412,1000.);
#258=VECTOR('',#415,1000.);
#259=VECTOR('',#416,1000.);
#260=VECTOR('',#417,1000.);
#261=VECTOR('',#418,1000.);
#262=VECTOR('',#419,1000.);
#263=VECTOR('',#420,1000.);
#264=VECTOR('',#421,1000.);
#265=VECTOR('',#424,1000.);
#266=VECTOR('',#425,1000.);
#267=VECTOR('',#426,1000.);
#268=VECTOR('',#427,1000.);
#269=VECTOR('',#428,1000.);
#270=VECTOR('',#431,1000.);
#271=VECTOR('',#432,1000.);
#272=VECTOR('',#433,1000.);
#273=VECTOR('',#434,1000.);
#274=VECTOR('',#435,1000.);
#275=VECTOR('',#438,1000.);
#276=VECTOR('',#439,1000.);
#277=VECTOR('',#442,1000.);
#278=VECTOR('',#443,1000.);
#279=VECTOR('',#444,1000.);
#280=VECTOR('',#445,1000.);
#281=VECTOR('',#446,1000.);
#282=VECTOR('',#449,1000.);
#283=VECTOR('',#458,1000.);
#284=VECTOR('',#459,1000.);
#285=VECTOR('',#462,1000.);
#286=VECTOR('',#463,1000.);
#287=VECTOR('',#466,1000.);
#288=EDGE_LOOP('',(#32,#33,#34,#35,#36,#37,#38,#39,#40,#41,#42,#43));
#289=EDGE_LOOP('',(#44,#45,#46,#47,#48,#49,#50,#51));
#290=EDGE_LOOP('',(#52,#53,#54,#55,#56,#57));
#291=EDGE_LOOP('',(#58,#59,#60,#61,#62,#63));
#292=EDGE_LOOP('',(#64,#65,#66,#67));
#293=EDGE_LOOP('',(#68,#69,#70,#71,#72,#73,#74,#75));
#294=EDGE_LOOP('',(#76,#77,#78,#79));
#295=EDGE_LOOP('',(#80,#81,#82,#83,#84,#85,#86,#87));
#296=EDGE_LOOP('',(#88,#89,#90,#91));
#297=EDGE_LOOP('',(#92,#93,#94,#95));
#298=EDGE_LOOP('',(#96,#97,#98,#99));
#299=EDGE_LOOP('',(#100,#101,#102,#103));
#300=EDGE_LOOP('',(#104,#105,#106,#107));
#301=EDGE_LOOP('',(#108,#109,#110,#111));
#302=EDGE_LOOP('',(#112,#113,#114,#115));
#303=EDGE_LOOP('',(#116,#117,#118,#119));
#304=EDGE_LOOP('',(#120,#121,#122,#123));
#305=EDGE_LOOP('',(#124,#125,#126,#127));
#306=FACE_BOUND('',#288,.T.);
#307=FACE_BOUND('',#289,.T.);
#308=FACE_BOUND('',#290,.T.);
#309=FACE_BOUND('',#291,.T.);
#310=FACE_BOUND('',#292,.T.);
#311=FACE_BOUND('',#293,.T.);
#312=FACE_BOUND('',#294,.T.);
#313=FACE_BOUND('',#295,.T.);
#314=FACE_BOUND('',#296,.T.);
#315=FACE_BOUND('',#297,.T.);
#316=FACE_BOUND('',#298,.T.);
#317=FACE_BOUND('',#299,.T.);
#318=FACE_BOUND('',#300,.T.);
#319=FACE_BOUND('',#301,.T.);
#320=FACE_BOUND('',#302,.T.);
#321=FACE_BOUND('',#303,.T.);
#322=FACE_BOUND('',#304,.T.);
#323=FACE_BOUND('',#305,.T.);
#324=PLANE('',#369);
#325=PLANE('',#372);
#326=PLANE('',#373);
#327=PLANE('',#374);
#328=PLANE('',#375);
#329=PLANE('',#376);
#330=PLANE('',#377);
#331=PLANE('',#378);
#332=PLANE('',#381);
#333=PLANE('',#382);
#334=PLANE('',#383);
#335=PLANE('',#384);
#336=PLANE('',#385);
#337=PLANE('',#390);
#338=ADVANCED_FACE('',(#306),#324,.T.);
#339=ADVANCED_FACE('',(#307),#325,.F.);
#340=ADVANCED_FACE('',(#308),#326,.F.);
#341=ADVANCED_FACE('',(#309),#327,.F.);
#342=ADVANCED_FACE('',(#310),#328,.F.);
#343=ADVANCED_FACE('',(#311),#329,.F.);
#344=ADVANCED_FACE('',(#312),#330,.F.);
#345=ADVANCED_FACE('',(#313),#331,.F.);
#346=ADVANCED_FACE('',(#314),#332,.T.);
#347=ADVANCED_FACE('',(#315),#333,.T.);
#348=ADVANCED_FACE('',(#316),#334,.T.);
#349=ADVANCED_FACE('',(#317),#335,.F.);
#350=ADVANCED_FACE('',(#318),#336,.F.);
#351=ADVANCED_FACE('',(#319),#20,.F.);
#352=ADVANCED_FACE('',(#320),#21,.F.);
#353=ADVANCED_FACE('',(#321),#337,.F.);
#354=ADVANCED_FACE('',(#322),#22,.F.);
#355=ADVANCED_FACE('',(#323),#23,.F.);
#356=CLOSED_SHELL('',(#338,#339,#340,#341,#342,#343,#344,#345,#346,#347,
#348,#349,#350,#351,#352,#353,#354,#355));
#357=STYLED_ITEM('',(#358),#365);
#358=PRESENTATION_STYLE_ASSIGNMENT((#359));
#359=SURFACE_STYLE_USAGE(.BOTH.,#360);
#360=SURFACE_SIDE_STYLE('',(#361));
#361=SURFACE_STYLE_FILL_AREA(#362);
#362=FILL_AREA_STYLE('',(#363));
#363=FILL_AREA_STYLE_COLOUR('',#364);
#364=COLOUR_RGB('',0.506983280181885,0.531564235687256,0.550000011920929);
#365=MANIFOLD_SOLID_BREP('',#356);
#366=SHAPE_DEFINITION_REPRESENTATION(#594,#367);
#367=SHAPE_REPRESENTATION('Part1',(#368),#589);
#368=AXIS2_PLACEMENT_3D('',#489,#395,#396);
#369=AXIS2_PLACEMENT_3D('',#490,#397,#398);
#370=AXIS2_PLACEMENT_3D('',#494,#400,#401);
#371=AXIS2_PLACEMENT_3D('',#498,#403,#404);
#372=AXIS2_PLACEMENT_3D('',#515,#413,#414);
#373=AXIS2_PLACEMENT_3D('',#529,#422,#423);
#374=AXIS2_PLACEMENT_3D('',#539,#429,#430);
#375=AXIS2_PLACEMENT_3D('',#549,#436,#437);
#376=AXIS2_PLACEMENT_3D('',#553,#440,#441);
#377=AXIS2_PLACEMENT_3D('',#562,#447,#448);
#378=AXIS2_PLACEMENT_3D('',#564,#450,#451);
#379=AXIS2_PLACEMENT_3D('',#565,#452,#453);
#380=AXIS2_PLACEMENT_3D('',#566,#454,#455);
#381=AXIS2_PLACEMENT_3D('',#567,#456,#457);
#382=AXIS2_PLACEMENT_3D('',#571,#460,#461);
#383=AXIS2_PLACEMENT_3D('',#575,#464,#465);
#384=AXIS2_PLACEMENT_3D('',#577,#467,#468);
#385=AXIS2_PLACEMENT_3D('',#578,#469,#470);
#386=AXIS2_PLACEMENT_3D('',#579,#471,#472);
#387=AXIS2_PLACEMENT_3D('',#580,#473,#474);
#388=AXIS2_PLACEMENT_3D('',#581,#475,#476);
#389=AXIS2_PLACEMENT_3D('',#582,#477,#478);
#390=AXIS2_PLACEMENT_3D('',#583,#479,#480);
#391=AXIS2_PLACEMENT_3D('',#584,#481,#482);
#392=AXIS2_PLACEMENT_3D('',#585,#483,#484);
#393=AXIS2_PLACEMENT_3D('',#586,#485,#486);
#394=AXIS2_PLACEMENT_3D('',#587,#487,#488);
#395=DIRECTION('',(0.,0.,1.));
#396=DIRECTION('',(1.,0.,0.));
#397=DIRECTION('',(0.,0.,1.));
#398=DIRECTION('',(1.,0.,0.));
#399=DIRECTION('',(0.,-1.,0.));
#400=DIRECTION('',(0.,0.,-1.));
#401=DIRECTION('',(0.,-1.,0.));
#402=DIRECTION('',(0.,-1.,0.));
#403=DIRECTION('',(0.,0.,-1.));
#404=DIRECTION('',(0.,-1.,0.));
#405=DIRECTION('',(0.,-1.,0.));
#406=DIRECTION('',(1.,0.,0.));
#407=DIRECTION('',(0.,1.,0.));
#408=DIRECTION('',(-1.,0.,0.));
#409=DIRECTION('',(0.,-1.,0.));
#410=DIRECTION('',(1.,0.,0.));
#411=DIRECTION('',(0.,1.,0.));
#412=DIRECTION('',(-1.,0.,0.));
#413=DIRECTION('',(1.,0.,0.));
#414=DIRECTION('',(0.,0.,-1.));
#415=DIRECTION('',(0.,0.,-1.));
#416=DIRECTION('',(0.,1.,0.));
#417=DIRECTION('',(0.,0.,-1.));
#418=DIRECTION('',(0.,-1.,0.));
#419=DIRECTION('',(0.,0.,-1.));
#420=DIRECTION('',(0.,1.,0.));
#421=DIRECTION('',(0.,0.,-1.));
#422=DIRECTION('',(1.,0.,0.));
#423=DIRECTION('',(0.,0.,-1.));
#424=DIRECTION('',(0.,0.,-1.));
#425=DIRECTION('',(0.,1.,0.));
#426=DIRECTION('',(0.,0.,-1.));
#427=DIRECTION('',(0.,-1.,0.));
#428=DIRECTION('',(0.,0.,-1.));
#429=DIRECTION('',(1.,0.,0.));
#430=DIRECTION('',(0.,0.,-1.));
#431=DIRECTION('',(0.,1.,0.));
#432=DIRECTION('',(0.,0.,-1.));
#433=DIRECTION('',(0.,0.,-1.));
#434=DIRECTION('',(0.,-1.,0.));
#435=DIRECTION('',(0.,0.,-1.));
#436=DIRECTION('',(0.,1.,0.));
#437=DIRECTION('',(0.,0.,1.));
#438=DIRECTION('',(1.,0.,0.));
#439=DIRECTION('',(0.,0.,-1.));
#440=DIRECTION('',(-1.,0.,0.));
#441=DIRECTION('',(0.,0.,1.));
#442=DIRECTION('',(0.,-1.,0.));
#443=DIRECTION('',(0.,0.,1.));
#444=DIRECTION('',(0.,1.,0.));
#445=DIRECTION('',(0.,0.,-1.));
#446=DIRECTION('',(0.,0.,-1.));
#447=DIRECTION('',(0.,-1.,0.));
#448=DIRECTION('',(0.,0.,-1.));
#449=DIRECTION('',(-1.,0.,0.));
#450=DIRECTION('',(0.,0.,1.));
#451=DIRECTION('',(1.,0.,0.));
#452=DIRECTION('',(0.,0.,1.));
#453=DIRECTION('',(1.,0.,0.));
#454=DIRECTION('',(0.,0.,1.));
#455=DIRECTION('',(1.,0.,0.));
#456=DIRECTION('',(0.,1.,0.));
#457=DIRECTION('',(0.,0.,1.));
#458=DIRECTION('',(1.,0.,0.));
#459=DIRECTION('',(0.,0.,1.));
#460=DIRECTION('',(0.,-1.,0.));
#461=DIRECTION('',(0.,0.,-1.));
#462=DIRECTION('',(0.,0.,-1.));
#463=DIRECTION('',(1.,0.,0.));
#464=DIRECTION('',(0.,0.,1.));
#465=DIRECTION('',(1.,0.,0.));
#466=DIRECTION('',(0.,-1.,0.));
#467=DIRECTION('',(-1.,0.,0.));
#468=DIRECTION('',(0.,0.,1.));
#469=DIRECTION('',(0.,0.,-1.));
#470=DIRECTION('',(-1.,0.,0.));
#471=DIRECTION('',(0.,0.,1.));
#472=DIRECTION('',(0.,-1.,0.));
#473=DIRECTION('',(0.,0.,-1.));
#474=DIRECTION('',(0.,-1.,0.));
#475=DIRECTION('',(0.,0.,-1.));
#476=DIRECTION('',(0.,-1.,0.));
#477=DIRECTION('',(0.,0.,-1.));
#478=DIRECTION('',(0.,-1.,0.));
#479=DIRECTION('',(0.,0.,-1.));
#480=DIRECTION('',(-1.,0.,0.));
#481=DIRECTION('',(0.,0.,1.));
#482=DIRECTION('',(0.,-1.,0.));
#483=DIRECTION('',(0.,0.,-1.));
#484=DIRECTION('',(0.,-1.,0.));
#485=DIRECTION('',(0.,0.,-1.));
#486=DIRECTION('',(0.,-1.,0.));
#487=DIRECTION('',(0.,0.,-1.));
#488=DIRECTION('',(0.,-1.,0.));
#489=CARTESIAN_POINT('',(0.,0.,0.));
#490=CARTESIAN_POINT('',(0.,0.,40.));
#491=CARTESIAN_POINT('',(-25.,50.,40.));
#492=CARTESIAN_POINT('',(-25.,50.,40.));
#493=CARTESIAN_POINT('',(-25.,34.6835793357934,40.));
#494=CARTESIAN_POINT('',(-25.,24.6835793357934,40.));
#495=CARTESIAN_POINT('',(-25.,14.6835793357934,40.));
#496=CARTESIAN_POINT('',(-25.,50.,40.));
#497=CARTESIAN_POINT('',(-25.,-12.5373616236162,40.));
#498=CARTESIAN_POINT('',(-25.,-22.5373616236162,40.));
#499=CARTESIAN_POINT('',(-25.,-32.5373616236162,40.));
#500=CARTESIAN_POINT('',(-25.,50.,40.));
#501=CARTESIAN_POINT('',(-25.,-50.,40.));
#502=CARTESIAN_POINT('',(-25.,-50.,40.));
#503=CARTESIAN_POINT('',(25.,-50.,40.));
#504=CARTESIAN_POINT('',(25.,-50.,40.));
#505=CARTESIAN_POINT('',(25.,-19.822265625,40.));
#506=CARTESIAN_POINT('',(0.,-19.822265625,40.));
#507=CARTESIAN_POINT('',(13.9406643382719,-19.822265625,40.));
#508=CARTESIAN_POINT('',(13.9406643382719,0.,40.));
#509=CARTESIAN_POINT('',(13.9406643382719,19.822265625,40.));
#510=CARTESIAN_POINT('',(0.,19.822265625,40.));
#511=CARTESIAN_POINT('',(25.,19.822265625,40.));
#512=CARTESIAN_POINT('',(25.,-50.,40.));
#513=CARTESIAN_POINT('',(25.,50.,40.));
#514=CARTESIAN_POINT('',(25.,50.,40.));
#515=CARTESIAN_POINT('',(-25.,50.,40.));
#516=CARTESIAN_POINT('',(-25.,14.6835793357934,40.));
#517=CARTESIAN_POINT('',(-25.,14.6835793357934,27.2));
#518=CARTESIAN_POINT('',(-25.,50.,27.2));
#519=CARTESIAN_POINT('',(-25.,17.9335793357934,27.2));
#520=CARTESIAN_POINT('',(-25.,17.9335793357934,27.2));
#521=CARTESIAN_POINT('',(-25.,17.9335793357934,0.));
#522=CARTESIAN_POINT('',(-25.,50.,0.));
#523=CARTESIAN_POINT('',(-25.,-15.7873616236162,0.));
#524=CARTESIAN_POINT('',(-25.,-15.7873616236162,27.2));
#525=CARTESIAN_POINT('',(-25.,-15.7873616236162,27.2));
#526=CARTESIAN_POINT('',(-25.,50.,27.2));
#527=CARTESIAN_POINT('',(-25.,-12.5373616236162,27.2));
#528=CARTESIAN_POINT('',(-25.,-12.5373616236162,40.));
#529=CARTESIAN_POINT('',(-25.,50.,40.));
#530=CARTESIAN_POINT('',(-25.,-32.5373616236162,40.));
#531=CARTESIAN_POINT('',(-25.,-32.5373616236162,27.2));
#532=CARTESIAN_POINT('',(-25.,50.,27.2));
#533=CARTESIAN_POINT('',(-25.,-29.2873616236162,27.2));
#534=CARTESIAN_POINT('',(-25.,-29.2873616236162,27.2));
#535=CARTESIAN_POINT('',(-25.,-29.2873616236162,0.));
#536=CARTESIAN_POINT('',(-25.,50.,0.));
#537=CARTESIAN_POINT('',(-25.,-50.,0.));
#538=CARTESIAN_POINT('',(-25.,-50.,40.));
#539=CARTESIAN_POINT('',(-25.,50.,40.));
#540=CARTESIAN_POINT('',(-25.,50.,27.2));
#541=CARTESIAN_POINT('',(-25.,31.4335793357934,27.2));
#542=CARTESIAN_POINT('',(-25.,34.6835793357934,27.2));
#543=CARTESIAN_POINT('',(-25.,34.6835793357934,40.));
#544=CARTESIAN_POINT('',(-25.,50.,40.));
#545=CARTESIAN_POINT('',(-25.,50.,0.));
#546=CARTESIAN_POINT('',(-25.,50.,0.));
#547=CARTESIAN_POINT('',(-25.,31.4335793357934,0.));
#548=CARTESIAN_POINT('',(-25.,31.4335793357934,27.2));
#549=CARTESIAN_POINT('',(-25.,-50.,40.));
#550=CARTESIAN_POINT('',(-25.,-50.,0.));
#551=CARTESIAN_POINT('',(25.,-50.,0.));
#552=CARTESIAN_POINT('',(25.,-50.,40.));
#553=CARTESIAN_POINT('',(25.,-50.,40.));
#554=CARTESIAN_POINT('',(25.,19.822265625,21.884375));
#555=CARTESIAN_POINT('',(25.,19.822265625,21.884375));
#556=CARTESIAN_POINT('',(25.,-19.822265625,21.884375));
#557=CARTESIAN_POINT('',(25.,-19.822265625,21.884375));
#558=CARTESIAN_POINT('',(25.,-50.,0.));
#559=CARTESIAN_POINT('',(25.,50.,0.));
#560=CARTESIAN_POINT('',(25.,50.,40.));
#561=CARTESIAN_POINT('',(25.,19.822265625,58.115625));
#562=CARTESIAN_POINT('',(25.,50.,40.));
#563=CARTESIAN_POINT('',(25.,50.,0.));
#564=CARTESIAN_POINT('',(0.,0.,0.));
#565=CARTESIAN_POINT('',(-25.,24.6835793357934,0.));
#566=CARTESIAN_POINT('',(-25.,-22.5373616236162,0.));
#567=CARTESIAN_POINT('',(13.9406643382719,-19.822265625,21.884375));
#568=CARTESIAN_POINT('',(13.9406643382719,-19.822265625,21.884375));
#569=CARTESIAN_POINT('',(13.9406643382719,-19.822265625,21.884375));
#570=CARTESIAN_POINT('',(13.9406643382719,-19.822265625,21.884375));
#571=CARTESIAN_POINT('',(13.9406643382719,19.822265625,58.115625));
#572=CARTESIAN_POINT('',(13.9406643382719,19.822265625,58.115625));
#573=CARTESIAN_POINT('',(13.9406643382719,19.822265625,21.884375));
#574=CARTESIAN_POINT('',(13.9406643382719,19.822265625,21.884375));
#575=CARTESIAN_POINT('',(13.9406643382719,19.822265625,21.884375));
#576=CARTESIAN_POINT('',(13.9406643382719,19.822265625,21.884375));
#577=CARTESIAN_POINT('',(13.9406643382719,0.,0.));
#578=CARTESIAN_POINT('',(-25.,-22.5373616236162,27.2));
#579=CARTESIAN_POINT('',(-25.,-22.5373616236162,27.2));
#580=CARTESIAN_POINT('',(-25.,-22.5373616236162,27.2));
#581=CARTESIAN_POINT('',(-25.,-22.5373616236162,40.));
#582=CARTESIAN_POINT('',(-25.,-22.5373616236162,27.2));
#583=CARTESIAN_POINT('',(-25.,24.6835793357934,27.2));
#584=CARTESIAN_POINT('',(-25.,24.6835793357934,27.2));
#585=CARTESIAN_POINT('',(-25.,24.6835793357934,27.2));
#586=CARTESIAN_POINT('',(-25.,24.6835793357934,40.));
#587=CARTESIAN_POINT('',(-25.,24.6835793357934,27.2));
#588=MECHANICAL_DESIGN_GEOMETRIC_PRESENTATION_REPRESENTATION('',(#357),
#589);
#589=(
GEOMETRIC_REPRESENTATION_CONTEXT(3)
GLOBAL_UNCERTAINTY_ASSIGNED_CONTEXT((#590))
GLOBAL_UNIT_ASSIGNED_CONTEXT((#593,#592,#591))
REPRESENTATION_CONTEXT('Part1','TOP_LEVEL_ASSEMBLY_PART')
);
#590=UNCERTAINTY_MEASURE_WITH_UNIT(LENGTH_MEASURE(0.005),#593,
'DISTANCE_ACCURACY_VALUE','Maximum Tolerance applied to model');
#591=(
NAMED_UNIT(*)
SI_UNIT($,.STERADIAN.)
SOLID_ANGLE_UNIT()
);
#592=(
NAMED_UNIT(*)
PLANE_ANGLE_UNIT()
SI_UNIT($,.RADIAN.)
);
#593=(
LENGTH_UNIT()
NAMED_UNIT(*)
SI_UNIT(.MILLI.,.METRE.)
);
#594=PRODUCT_DEFINITION_SHAPE('','',#595);
#595=PRODUCT_DEFINITION('','',#597,#596);
#596=PRODUCT_DEFINITION_CONTEXT('',#603,'design');
#597=PRODUCT_DEFINITION_FORMATION_WITH_SPECIFIED_SOURCE('','',#599,
 .NOT_KNOWN.);
#598=PRODUCT_RELATED_PRODUCT_CATEGORY('','',(#599));
#599=PRODUCT('Part1','Part1','Part1',(#601));
#600=PRODUCT_CATEGORY('','');
#601=PRODUCT_CONTEXT('',#603,'mechanical');
#602=APPLICATION_PROTOCOL_DEFINITION('international standard',
'automotive_design',2010,#603);
#603=APPLICATION_CONTEXT(
'core data for automotive mechanical design processes');
ENDSEC;
END-ISO-10303-21;
