ISO-10303-21;
HEADER;
/* Generated by software containing ST-Developer
 * from STEP Tools, Inc. (www.steptools.com) 
 */
/* OPTION: strings as raw bytes, not using required /X/ escapes */

FILE_DESCRIPTION(
/* description */ ('Unknown'),
/* implementation_level */ '2;1');

FILE_NAME(
/* name */ 'hole1',
/* time_stamp */ '2025-10-18T23:05:41+02:00',
/* author */ ('Unknown'),
/* organization */ ('Unknown'),
/* preprocessor_version */ 'ST-DEVELOPER v19.4',
/* originating_system */ 'Solid Edge',
/* authorisation */ 'Unknown');

FILE_SCHEMA (('AUTOMOTIVE_DESIGN {1 0 10303 214 3 1 1}'));
ENDSEC;

DATA;
#10=PROPERTY_DEFINITION_REPRESENTATION(#14,#12);
#11=PROPERTY_DEFINITION_REPRESENTATION(#15,#13);
#12=REPRESENTATION('',(#16),#457);
#13=REPRESENTATION('',(#17),#457);
#14=PROPERTY_DEFINITION('pmi validation property','',#462);
#15=PROPERTY_DEFINITION('pmi validation property','',#462);
#16=VALUE_REPRESENTATION_ITEM('number of annotations',COUNT_MEASURE(0.));
#17=VALUE_REPRESENTATION_ITEM('number of views',COUNT_MEASURE(0.));
#18=SHAPE_REPRESENTATION_RELATIONSHIP('','',#283,#19);
#19=ADVANCED_BREP_SHAPE_REPRESENTATION('',(#281),#457);
#20=CYLINDRICAL_SURFACE('',#300,6.75);
#21=CYLINDRICAL_SURFACE('',#301,10.);
#22=CYLINDRICAL_SURFACE('',#305,6.75);
#23=CYLINDRICAL_SURFACE('',#306,10.);
#24=CIRCLE('',#289,6.75);
#25=CIRCLE('',#290,6.75);
#26=CIRCLE('',#293,10.);
#27=CIRCLE('',#294,10.);
#28=CIRCLE('',#298,10.);
#29=CIRCLE('',#299,6.75);
#30=CIRCLE('',#303,10.);
#31=CIRCLE('',#304,6.75);
#32=ORIENTED_EDGE('',*,*,#104,.T.);
#33=ORIENTED_EDGE('',*,*,#105,.T.);
#34=ORIENTED_EDGE('',*,*,#106,.T.);
#35=ORIENTED_EDGE('',*,*,#107,.T.);
#36=ORIENTED_EDGE('',*,*,#108,.F.);
#37=ORIENTED_EDGE('',*,*,#109,.F.);
#38=ORIENTED_EDGE('',*,*,#110,.F.);
#39=ORIENTED_EDGE('',*,*,#111,.T.);
#40=ORIENTED_EDGE('',*,*,#112,.T.);
#41=ORIENTED_EDGE('',*,*,#113,.T.);
#42=ORIENTED_EDGE('',*,*,#114,.T.);
#43=ORIENTED_EDGE('',*,*,#115,.T.);
#44=ORIENTED_EDGE('',*,*,#116,.T.);
#45=ORIENTED_EDGE('',*,*,#117,.T.);
#46=ORIENTED_EDGE('',*,*,#118,.T.);
#47=ORIENTED_EDGE('',*,*,#119,.T.);
#48=ORIENTED_EDGE('',*,*,#120,.F.);
#49=ORIENTED_EDGE('',*,*,#121,.T.);
#50=ORIENTED_EDGE('',*,*,#108,.T.);
#51=ORIENTED_EDGE('',*,*,#122,.T.);
#52=ORIENTED_EDGE('',*,*,#120,.T.);
#53=ORIENTED_EDGE('',*,*,#123,.T.);
#54=ORIENTED_EDGE('',*,*,#114,.F.);
#55=ORIENTED_EDGE('',*,*,#124,.T.);
#56=ORIENTED_EDGE('',*,*,#125,.F.);
#57=ORIENTED_EDGE('',*,*,#126,.F.);
#58=ORIENTED_EDGE('',*,*,#127,.T.);
#59=ORIENTED_EDGE('',*,*,#128,.T.);
#60=ORIENTED_EDGE('',*,*,#129,.F.);
#61=ORIENTED_EDGE('',*,*,#130,.F.);
#62=ORIENTED_EDGE('',*,*,#125,.T.);
#63=ORIENTED_EDGE('',*,*,#131,.T.);
#64=ORIENTED_EDGE('',*,*,#118,.F.);
#65=ORIENTED_EDGE('',*,*,#132,.T.);
#66=ORIENTED_EDGE('',*,*,#104,.F.);
#67=ORIENTED_EDGE('',*,*,#133,.F.);
#68=ORIENTED_EDGE('',*,*,#129,.T.);
#69=ORIENTED_EDGE('',*,*,#134,.T.);
#70=ORIENTED_EDGE('',*,*,#110,.T.);
#71=ORIENTED_EDGE('',*,*,#135,.T.);
#72=ORIENTED_EDGE('',*,*,#109,.T.);
#73=ORIENTED_EDGE('',*,*,#126,.T.);
#74=ORIENTED_EDGE('',*,*,#130,.T.);
#75=ORIENTED_EDGE('',*,*,#133,.T.);
#76=ORIENTED_EDGE('',*,*,#119,.F.);
#77=ORIENTED_EDGE('',*,*,#135,.F.);
#78=ORIENTED_EDGE('',*,*,#115,.F.);
#79=ORIENTED_EDGE('',*,*,#123,.F.);
#80=ORIENTED_EDGE('',*,*,#136,.T.);
#81=ORIENTED_EDGE('',*,*,#127,.F.);
#82=ORIENTED_EDGE('',*,*,#137,.T.);
#83=ORIENTED_EDGE('',*,*,#112,.F.);
#84=ORIENTED_EDGE('',*,*,#137,.F.);
#85=ORIENTED_EDGE('',*,*,#131,.F.);
#86=ORIENTED_EDGE('',*,*,#124,.F.);
#87=ORIENTED_EDGE('',*,*,#113,.F.);
#88=ORIENTED_EDGE('',*,*,#134,.F.);
#89=ORIENTED_EDGE('',*,*,#128,.F.);
#90=ORIENTED_EDGE('',*,*,#136,.F.);
#91=ORIENTED_EDGE('',*,*,#111,.F.);
#92=ORIENTED_EDGE('',*,*,#138,.T.);
#93=ORIENTED_EDGE('',*,*,#116,.F.);
#94=ORIENTED_EDGE('',*,*,#139,.T.);
#95=ORIENTED_EDGE('',*,*,#106,.F.);
#96=ORIENTED_EDGE('',*,*,#139,.F.);
#97=ORIENTED_EDGE('',*,*,#121,.F.);
#98=ORIENTED_EDGE('',*,*,#122,.F.);
#99=ORIENTED_EDGE('',*,*,#107,.F.);
#100=ORIENTED_EDGE('',*,*,#132,.F.);
#101=ORIENTED_EDGE('',*,*,#117,.F.);
#102=ORIENTED_EDGE('',*,*,#138,.F.);
#103=ORIENTED_EDGE('',*,*,#105,.F.);
#104=EDGE_CURVE('',#140,#141,#164,.T.);
#105=EDGE_CURVE('',#141,#142,#165,.T.);
#106=EDGE_CURVE('',#142,#143,#166,.T.);
#107=EDGE_CURVE('',#143,#144,#167,.T.);
#108=EDGE_CURVE('',#145,#144,#168,.T.);
#109=EDGE_CURVE('',#140,#145,#169,.T.);
#110=EDGE_CURVE('',#146,#147,#170,.T.);
#111=EDGE_CURVE('',#146,#148,#171,.T.);
#112=EDGE_CURVE('',#148,#149,#172,.T.);
#113=EDGE_CURVE('',#149,#150,#173,.T.);
#114=EDGE_CURVE('',#150,#151,#174,.T.);
#115=EDGE_CURVE('',#151,#147,#175,.T.);
#116=EDGE_CURVE('',#152,#153,#176,.T.);
#117=EDGE_CURVE('',#153,#154,#177,.F.);
#118=EDGE_CURVE('',#154,#155,#178,.T.);
#119=EDGE_CURVE('',#155,#156,#179,.T.);
#120=EDGE_CURVE('',#157,#156,#180,.T.);
#121=EDGE_CURVE('',#157,#152,#181,.F.);
#122=EDGE_CURVE('',#144,#157,#24,.T.);
#123=EDGE_CURVE('',#156,#151,#182,.T.);
#124=EDGE_CURVE('',#150,#158,#25,.T.);
#125=EDGE_CURVE('',#159,#158,#183,.T.);
#126=EDGE_CURVE('',#145,#159,#184,.T.);
#127=EDGE_CURVE('',#160,#161,#185,.T.);
#128=EDGE_CURVE('',#161,#162,#186,.F.);
#129=EDGE_CURVE('',#163,#162,#187,.T.);
#130=EDGE_CURVE('',#159,#163,#188,.T.);
#131=EDGE_CURVE('',#158,#160,#189,.F.);
#132=EDGE_CURVE('',#154,#141,#26,.T.);
#133=EDGE_CURVE('',#163,#140,#190,.T.);
#134=EDGE_CURVE('',#162,#146,#27,.T.);
#135=EDGE_CURVE('',#147,#155,#191,.T.);
#136=EDGE_CURVE('',#148,#161,#28,.T.);
#137=EDGE_CURVE('',#160,#149,#29,.T.);
#138=EDGE_CURVE('',#142,#153,#30,.T.);
#139=EDGE_CURVE('',#152,#143,#31,.T.);
#140=VERTEX_POINT('',#384);
#141=VERTEX_POINT('',#385);
#142=VERTEX_POINT('',#387);
#143=VERTEX_POINT('',#389);
#144=VERTEX_POINT('',#391);
#145=VERTEX_POINT('',#393);
#146=VERTEX_POINT('',#397);
#147=VERTEX_POINT('',#398);
#148=VERTEX_POINT('',#400);
#149=VERTEX_POINT('',#402);
#150=VERTEX_POINT('',#404);
#151=VERTEX_POINT('',#406);
#152=VERTEX_POINT('',#410);
#153=VERTEX_POINT('',#411);
#154=VERTEX_POINT('',#413);
#155=VERTEX_POINT('',#415);
#156=VERTEX_POINT('',#417);
#157=VERTEX_POINT('',#419);
#158=VERTEX_POINT('',#425);
#159=VERTEX_POINT('',#427);
#160=VERTEX_POINT('',#431);
#161=VERTEX_POINT('',#432);
#162=VERTEX_POINT('',#434);
#163=VERTEX_POINT('',#436);
#164=LINE('',#383,#192);
#165=LINE('',#386,#193);
#166=LINE('',#388,#194);
#167=LINE('',#390,#195);
#168=LINE('',#392,#196);
#169=LINE('',#394,#197);
#170=LINE('',#396,#198);
#171=LINE('',#399,#199);
#172=LINE('',#401,#200);
#173=LINE('',#403,#201);
#174=LINE('',#405,#202);
#175=LINE('',#407,#203);
#176=LINE('',#409,#204);
#177=LINE('',#412,#205);
#178=LINE('',#414,#206);
#179=LINE('',#416,#207);
#180=LINE('',#418,#208);
#181=LINE('',#420,#209);
#182=LINE('',#423,#210);
#183=LINE('',#426,#211);
#184=LINE('',#428,#212);
#185=LINE('',#430,#213);
#186=LINE('',#433,#214);
#187=LINE('',#435,#215);
#188=LINE('',#437,#216);
#189=LINE('',#438,#217);
#190=LINE('',#441,#218);
#191=LINE('',#443,#219);
#192=VECTOR('',#311,1000.);
#193=VECTOR('',#312,1000.);
#194=VECTOR('',#313,1000.);
#195=VECTOR('',#314,1000.);
#196=VECTOR('',#315,1000.);
#197=VECTOR('',#316,1000.);
#198=VECTOR('',#319,1000.);
#199=VECTOR('',#320,1000.);
#200=VECTOR('',#321,1000.);
#201=VECTOR('',#322,1000.);
#202=VECTOR('',#323,1000.);
#203=VECTOR('',#324,1000.);
#204=VECTOR('',#327,1000.);
#205=VECTOR('',#328,1000.);
#206=VECTOR('',#329,1000.);
#207=VECTOR('',#330,1000.);
#208=VECTOR('',#331,1000.);
#209=VECTOR('',#332,1000.);
#210=VECTOR('',#337,1000.);
#211=VECTOR('',#340,1000.);
#212=VECTOR('',#341,1000.);
#213=VECTOR('',#344,1000.);
#214=VECTOR('',#345,1000.);
#215=VECTOR('',#346,1000.);
#216=VECTOR('',#347,1000.);
#217=VECTOR('',#348,1000.);
#218=VECTOR('',#353,1000.);
#219=VECTOR('',#356,1000.);
#220=EDGE_LOOP('',(#32,#33,#34,#35,#36,#37));
#221=EDGE_LOOP('',(#38,#39,#40,#41,#42,#43));
#222=EDGE_LOOP('',(#44,#45,#46,#47,#48,#49));
#223=EDGE_LOOP('',(#50,#51,#52,#53,#54,#55,#56,#57));
#224=EDGE_LOOP('',(#58,#59,#60,#61,#62,#63));
#225=EDGE_LOOP('',(#64,#65,#66,#67,#68,#69,#70,#71));
#226=EDGE_LOOP('',(#72,#73,#74,#75));
#227=EDGE_LOOP('',(#76,#77,#78,#79));
#228=EDGE_LOOP('',(#80,#81,#82,#83));
#229=EDGE_LOOP('',(#84,#85,#86,#87));
#230=EDGE_LOOP('',(#88,#89,#90,#91));
#231=EDGE_LOOP('',(#92,#93,#94,#95));
#232=EDGE_LOOP('',(#96,#97,#98,#99));
#233=EDGE_LOOP('',(#100,#101,#102,#103));
#234=FACE_BOUND('',#220,.T.);
#235=FACE_BOUND('',#221,.T.);
#236=FACE_BOUND('',#222,.T.);
#237=FACE_BOUND('',#223,.T.);
#238=FACE_BOUND('',#224,.T.);
#239=FACE_BOUND('',#225,.T.);
#240=FACE_BOUND('',#226,.T.);
#241=FACE_BOUND('',#227,.T.);
#242=FACE_BOUND('',#228,.T.);
#243=FACE_BOUND('',#229,.T.);
#244=FACE_BOUND('',#230,.T.);
#245=FACE_BOUND('',#231,.T.);
#246=FACE_BOUND('',#232,.T.);
#247=FACE_BOUND('',#233,.T.);
#248=PLANE('',#285);
#249=PLANE('',#286);
#250=PLANE('',#287);
#251=PLANE('',#288);
#252=PLANE('',#291);
#253=PLANE('',#292);
#254=PLANE('',#295);
#255=PLANE('',#296);
#256=PLANE('',#297);
#257=PLANE('',#302);
#258=ADVANCED_FACE('',(#234),#248,.F.);
#259=ADVANCED_FACE('',(#235),#249,.F.);
#260=ADVANCED_FACE('',(#236),#250,.F.);
#261=ADVANCED_FACE('',(#237),#251,.F.);
#262=ADVANCED_FACE('',(#238),#252,.F.);
#263=ADVANCED_FACE('',(#239),#253,.F.);
#264=ADVANCED_FACE('',(#240),#254,.T.);
#265=ADVANCED_FACE('',(#241),#255,.F.);
#266=ADVANCED_FACE('',(#242),#256,.F.);
#267=ADVANCED_FACE('',(#243),#20,.F.);
#268=ADVANCED_FACE('',(#244),#21,.F.);
#269=ADVANCED_FACE('',(#245),#257,.F.);
#270=ADVANCED_FACE('',(#246),#22,.F.);
#271=ADVANCED_FACE('',(#247),#23,.F.);
#272=CLOSED_SHELL('',(#258,#259,#260,#261,#262,#263,#264,#265,#266,#267,
#268,#269,#270,#271));
#273=STYLED_ITEM('',(#274),#281);
#274=PRESENTATION_STYLE_ASSIGNMENT((#275));
#275=SURFACE_STYLE_USAGE(.BOTH.,#276);
#276=SURFACE_SIDE_STYLE('',(#277));
#277=SURFACE_STYLE_FILL_AREA(#278);
#278=FILL_AREA_STYLE('',(#279));
#279=FILL_AREA_STYLE_COLOUR('',#280);
#280=COLOUR_RGB('',0.506983280181885,0.531564235687256,0.550000011920929);
#281=MANIFOLD_SOLID_BREP('',#272);
#282=SHAPE_DEFINITION_REPRESENTATION(#462,#283);
#283=SHAPE_REPRESENTATION('Boxslitexample',(#284),#457);
#284=AXIS2_PLACEMENT_3D('',#381,#307,#308);
#285=AXIS2_PLACEMENT_3D('',#382,#309,#310);
#286=AXIS2_PLACEMENT_3D('',#395,#317,#318);
#287=AXIS2_PLACEMENT_3D('',#408,#325,#326);
#288=AXIS2_PLACEMENT_3D('',#421,#333,#334);
#289=AXIS2_PLACEMENT_3D('',#422,#335,#336);
#290=AXIS2_PLACEMENT_3D('',#424,#338,#339);
#291=AXIS2_PLACEMENT_3D('',#429,#342,#343);
#292=AXIS2_PLACEMENT_3D('',#439,#349,#350);
#293=AXIS2_PLACEMENT_3D('',#440,#351,#352);
#294=AXIS2_PLACEMENT_3D('',#442,#354,#355);
#295=AXIS2_PLACEMENT_3D('',#444,#357,#358);
#296=AXIS2_PLACEMENT_3D('',#445,#359,#360);
#297=AXIS2_PLACEMENT_3D('',#446,#361,#362);
#298=AXIS2_PLACEMENT_3D('',#447,#363,#364);
#299=AXIS2_PLACEMENT_3D('',#448,#365,#366);
#300=AXIS2_PLACEMENT_3D('',#449,#367,#368);
#301=AXIS2_PLACEMENT_3D('',#450,#369,#370);
#302=AXIS2_PLACEMENT_3D('',#451,#371,#372);
#303=AXIS2_PLACEMENT_3D('',#452,#373,#374);
#304=AXIS2_PLACEMENT_3D('',#453,#375,#376);
#305=AXIS2_PLACEMENT_3D('',#454,#377,#378);
#306=AXIS2_PLACEMENT_3D('',#455,#379,#380);
#307=DIRECTION('',(0.,0.,1.));
#308=DIRECTION('',(1.,0.,0.));
#309=DIRECTION('',(1.,0.,0.));
#310=DIRECTION('',(0.,0.,-1.));
#311=DIRECTION('',(0.,0.,-1.));
#312=DIRECTION('',(9.25185853854297E-17,-1.,0.));
#313=DIRECTION('',(0.,0.,-1.));
#314=DIRECTION('',(9.25185853854297E-17,-1.,0.));
#315=DIRECTION('',(0.,0.,-1.));
#316=DIRECTION('',(0.,-1.,0.));
#317=DIRECTION('',(-1.,0.,0.));
#318=DIRECTION('',(0.,0.,1.));
#319=DIRECTION('',(0.,0.,-1.));
#320=DIRECTION('',(9.25185853854297E-17,-1.,0.));
#321=DIRECTION('',(0.,0.,1.));
#322=DIRECTION('',(9.25185853854297E-17,-1.,0.));
#323=DIRECTION('',(0.,0.,-1.));
#324=DIRECTION('',(0.,1.,0.));
#325=DIRECTION('',(1.,0.,0.));
#326=DIRECTION('',(0.,0.,-1.));
#327=DIRECTION('',(0.,0.,-1.));
#328=DIRECTION('',(9.25185853854297E-17,-1.,0.));
#329=DIRECTION('',(0.,0.,-1.));
#330=DIRECTION('',(0.,-1.,0.));
#331=DIRECTION('',(0.,0.,-1.));
#332=DIRECTION('',(9.25185853854297E-17,-1.,0.));
#333=DIRECTION('',(9.25185853854297E-17,1.,0.));
#334=DIRECTION('',(-1.,9.25185853854297E-17,0.));
#335=DIRECTION('',(9.25185853854297E-17,1.,0.));
#336=DIRECTION('',(-1.,9.25185853854297E-17,0.));
#337=DIRECTION('',(1.,-9.25185853854297E-17,0.));
#338=DIRECTION('',(9.25185853854297E-17,1.,0.));
#339=DIRECTION('',(-1.,9.25185853854297E-17,0.));
#340=DIRECTION('',(0.,0.,-1.));
#341=DIRECTION('',(1.,-9.25185853854297E-17,0.));
#342=DIRECTION('',(-1.,0.,0.));
#343=DIRECTION('',(0.,0.,1.));
#344=DIRECTION('',(0.,0.,1.));
#345=DIRECTION('',(9.25185853854297E-17,-1.,0.));
#346=DIRECTION('',(0.,0.,-1.));
#347=DIRECTION('',(0.,1.,0.));
#348=DIRECTION('',(9.25185853854297E-17,-1.,0.));
#349=DIRECTION('',(9.25185853854297E-17,-1.,0.));
#350=DIRECTION('',(1.,9.25185853854297E-17,0.));
#351=DIRECTION('',(9.25185853854297E-17,-1.,0.));
#352=DIRECTION('',(-1.,-9.25185853854297E-17,0.));
#353=DIRECTION('',(-1.,-9.25185853854297E-17,0.));
#354=DIRECTION('',(9.25185853854297E-17,-1.,0.));
#355=DIRECTION('',(-1.,-9.25185853854297E-17,0.));
#356=DIRECTION('',(-1.,-9.25185853854297E-17,0.));
#357=DIRECTION('',(0.,0.,1.));
#358=DIRECTION('',(1.,0.,0.));
#359=DIRECTION('',(0.,0.,1.));
#360=DIRECTION('',(1.,0.,0.));
#361=DIRECTION('',(9.25185853854297E-17,-1.,0.));
#362=DIRECTION('',(1.,9.25185853854297E-17,0.));
#363=DIRECTION('',(-9.25185853854297E-17,1.,0.));
#364=DIRECTION('',(-1.,-9.25185853854297E-17,0.));
#365=DIRECTION('',(9.25185853854297E-17,-1.,0.));
#366=DIRECTION('',(-1.,-9.25185853854297E-17,0.));
#367=DIRECTION('',(9.25185853854297E-17,-1.,0.));
#368=DIRECTION('',(-1.,-9.25185853854297E-17,0.));
#369=DIRECTION('',(9.25185853854297E-17,-1.,0.));
#370=DIRECTION('',(-1.,-9.25185853854297E-17,0.));
#371=DIRECTION('',(9.25185853854297E-17,-1.,0.));
#372=DIRECTION('',(1.,9.25185853854297E-17,0.));
#373=DIRECTION('',(-9.25185853854297E-17,1.,0.));
#374=DIRECTION('',(-1.,-9.25185853854297E-17,0.));
#375=DIRECTION('',(9.25185853854297E-17,-1.,0.));
#376=DIRECTION('',(-1.,-9.25185853854297E-17,0.));
#377=DIRECTION('',(9.25185853854297E-17,-1.,0.));
#378=DIRECTION('',(-1.,-9.25185853854297E-17,0.));
#379=DIRECTION('',(9.25185853854297E-17,-1.,0.));
#380=DIRECTION('',(-1.,-9.25185853854297E-17,0.));
#381=CARTESIAN_POINT('',(0.,0.,0.));
#382=CARTESIAN_POINT('',(-37.5,37.5,75.));
#383=CARTESIAN_POINT('',(-37.5,37.5,75.));
#384=CARTESIAN_POINT('',(-37.5,37.5,75.));
#385=CARTESIAN_POINT('',(-37.5,37.5,47.5));
#386=CARTESIAN_POINT('',(-37.5,37.5,47.5));
#387=CARTESIAN_POINT('',(-37.5,24.7,47.5));
#388=CARTESIAN_POINT('',(-37.5,24.7,75.));
#389=CARTESIAN_POINT('',(-37.5,24.7,44.25));
#390=CARTESIAN_POINT('',(-37.5,24.7,44.25));
#391=CARTESIAN_POINT('',(-37.5,-37.5,44.25));
#392=CARTESIAN_POINT('',(-37.5,-37.5,75.));
#393=CARTESIAN_POINT('',(-37.5,-37.5,75.));
#394=CARTESIAN_POINT('',(-37.5,37.5,75.));
#395=CARTESIAN_POINT('',(37.5,-37.5,75.));
#396=CARTESIAN_POINT('',(37.5,37.5,75.));
#397=CARTESIAN_POINT('',(37.5,37.5,27.5));
#398=CARTESIAN_POINT('',(37.5,37.5,0.));
#399=CARTESIAN_POINT('',(37.5,37.5,27.5));
#400=CARTESIAN_POINT('',(37.5,24.7,27.5));
#401=CARTESIAN_POINT('',(37.5,24.7,75.));
#402=CARTESIAN_POINT('',(37.5,24.7,30.75));
#403=CARTESIAN_POINT('',(37.5,24.7,30.75));
#404=CARTESIAN_POINT('',(37.5,-37.5,30.75));
#405=CARTESIAN_POINT('',(37.5,-37.5,75.));
#406=CARTESIAN_POINT('',(37.5,-37.5,0.));
#407=CARTESIAN_POINT('',(37.5,-37.5,0.));
#408=CARTESIAN_POINT('',(-37.5,37.5,75.));
#409=CARTESIAN_POINT('',(-37.5,24.7,75.));
#410=CARTESIAN_POINT('',(-37.5,24.7,30.75));
#411=CARTESIAN_POINT('',(-37.5,24.7,27.5));
#412=CARTESIAN_POINT('',(-37.5,37.5,27.5));
#413=CARTESIAN_POINT('',(-37.5,37.5,27.5));
#414=CARTESIAN_POINT('',(-37.5,37.5,75.));
#415=CARTESIAN_POINT('',(-37.5,37.5,0.));
#416=CARTESIAN_POINT('',(-37.5,37.5,0.));
#417=CARTESIAN_POINT('',(-37.5,-37.5,0.));
#418=CARTESIAN_POINT('',(-37.5,-37.5,75.));
#419=CARTESIAN_POINT('',(-37.5,-37.5,30.75));
#420=CARTESIAN_POINT('',(-37.5,24.7,30.75));
#421=CARTESIAN_POINT('',(-37.5,-37.5,75.));
#422=CARTESIAN_POINT('',(-37.5,-37.5,37.5));
#423=CARTESIAN_POINT('',(-37.5,-37.5,0.));
#424=CARTESIAN_POINT('',(37.5,-37.5,37.5));
#425=CARTESIAN_POINT('',(37.5,-37.5,44.25));
#426=CARTESIAN_POINT('',(37.5,-37.5,75.));
#427=CARTESIAN_POINT('',(37.5,-37.5,75.));
#428=CARTESIAN_POINT('',(-37.5,-37.5,75.));
#429=CARTESIAN_POINT('',(37.5,-37.5,75.));
#430=CARTESIAN_POINT('',(37.5,24.7,75.));
#431=CARTESIAN_POINT('',(37.5,24.7,44.25));
#432=CARTESIAN_POINT('',(37.5,24.7,47.5));
#433=CARTESIAN_POINT('',(37.5,37.5,47.5));
#434=CARTESIAN_POINT('',(37.5,37.5,47.5));
#435=CARTESIAN_POINT('',(37.5,37.5,75.));
#436=CARTESIAN_POINT('',(37.5,37.5,75.));
#437=CARTESIAN_POINT('',(37.5,-37.5,75.));
#438=CARTESIAN_POINT('',(37.5,24.7,44.25));
#439=CARTESIAN_POINT('',(37.5,37.5,75.));
#440=CARTESIAN_POINT('',(-37.5,37.5,37.5));
#441=CARTESIAN_POINT('',(37.5,37.5,75.));
#442=CARTESIAN_POINT('',(37.5,37.5,37.5));
#443=CARTESIAN_POINT('',(37.5,37.5,0.));
#444=CARTESIAN_POINT('',(0.,0.,75.));
#445=CARTESIAN_POINT('',(0.,0.,0.));
#446=CARTESIAN_POINT('',(37.5,24.7,37.5));
#447=CARTESIAN_POINT('',(37.5,24.7,37.5));
#448=CARTESIAN_POINT('',(37.5,24.7,37.5));
#449=CARTESIAN_POINT('',(37.5,24.7,37.5));
#450=CARTESIAN_POINT('',(37.5,37.5,37.5));
#451=CARTESIAN_POINT('',(-37.5,24.7,37.5));
#452=CARTESIAN_POINT('',(-37.5,24.7,37.5));
#453=CARTESIAN_POINT('',(-37.5,24.7,37.5));
#454=CARTESIAN_POINT('',(-37.5,24.7,37.5));
#455=CARTESIAN_POINT('',(-37.5,37.5,37.5));
#456=MECHANICAL_DESIGN_GEOMETRIC_PRESENTATION_REPRESENTATION('',(#273),
#457);
#457=(
GEOMETRIC_REPRESENTATION_CONTEXT(3)
GLOBAL_UNCERTAINTY_ASSIGNED_CONTEXT((#458))
GLOBAL_UNIT_ASSIGNED_CONTEXT((#461,#460,#459))
REPRESENTATION_CONTEXT('Boxslitexample','TOP_LEVEL_ASSEMBLY_PART')
);
#458=UNCERTAINTY_MEASURE_WITH_UNIT(LENGTH_MEASURE(0.005),#461,
'DISTANCE_ACCURACY_VALUE','Maximum Tolerance applied to model');
#459=(
NAMED_UNIT(*)
SI_UNIT($,.STERADIAN.)
SOLID_ANGLE_UNIT()
);
#460=(
NAMED_UNIT(*)
PLANE_ANGLE_UNIT()
SI_UNIT($,.RADIAN.)
);
#461=(
LENGTH_UNIT()
NAMED_UNIT(*)
SI_UNIT(.MILLI.,.METRE.)
);
#462=PRODUCT_DEFINITION_SHAPE('','',#463);
#463=PRODUCT_DEFINITION('','',#465,#464);
#464=PRODUCT_DEFINITION_CONTEXT('',#471,'design');
#465=PRODUCT_DEFINITION_FORMATION_WITH_SPECIFIED_SOURCE('','',#467,
 .NOT_KNOWN.);
#466=PRODUCT_RELATED_PRODUCT_CATEGORY('','',(#467));
#467=PRODUCT('Boxslitexample','Boxslitexample','Boxslitexample',(#469));
#468=PRODUCT_CATEGORY('','');
#469=PRODUCT_CONTEXT('',#471,'mechanical');
#470=APPLICATION_PROTOCOL_DEFINITION('international standard',
'automotive_design',2010,#471);
#471=APPLICATION_CONTEXT(
'core data for automotive mechanical design processes');
ENDSEC;
END-ISO-10303-21;
