ISO-10303-21;
HEADER;
/* Generated by software containing ST-Developer
 * from STEP Tools, Inc. (www.steptools.com) 
 */
/* OPTION: strings as raw bytes, not using required /X/ escapes */

FILE_DESCRIPTION(
/* description */ ('Unknown'),
/* implementation_level */ '2;1');

FILE_NAME(
/* name */ 'hole3',
/* time_stamp */ '2025-10-19T00:23:03+02:00',
/* author */ ('Unknown'),
/* organization */ ('Unknown'),
/* preprocessor_version */ 'ST-DEVELOPER v19.4',
/* originating_system */ 'Solid Edge',
/* authorisation */ 'Unknown');

FILE_SCHEMA (('AUTOMOTIVE_DESIGN {1 0 10303 214 3 1 1}'));
ENDSEC;

DATA;
#10=PROPERTY_DEFINITION_REPRESENTATION(#14,#12);
#11=PROPERTY_DEFINITION_REPRESENTATION(#15,#13);
#12=REPRESENTATION('',(#16),#253);
#13=REPRESENTATION('',(#17),#253);
#14=PROPERTY_DEFINITION('pmi validation property','',#258);
#15=PROPERTY_DEFINITION('pmi validation property','',#258);
#16=VALUE_REPRESENTATION_ITEM('number of annotations',COUNT_MEASURE(0.));
#17=VALUE_REPRESENTATION_ITEM('number of views',COUNT_MEASURE(0.));
#18=SHAPE_REPRESENTATION_RELATIONSHIP('','',#163,#19);
#19=ADVANCED_BREP_SHAPE_REPRESENTATION('',(#161),#253);
#20=CYLINDRICAL_SURFACE('',#174,9.91697966188811);
#21=CIRCLE('',#169,9.91697966188811);
#22=CIRCLE('',#171,9.91697966188811);
#23=ORIENTED_EDGE('',*,*,#59,.F.);
#24=ORIENTED_EDGE('',*,*,#60,.T.);
#25=ORIENTED_EDGE('',*,*,#61,.T.);
#26=ORIENTED_EDGE('',*,*,#62,.F.);
#27=ORIENTED_EDGE('',*,*,#63,.F.);
#28=ORIENTED_EDGE('',*,*,#64,.F.);
#29=ORIENTED_EDGE('',*,*,#65,.F.);
#30=ORIENTED_EDGE('',*,*,#66,.T.);
#31=ORIENTED_EDGE('',*,*,#67,.T.);
#32=ORIENTED_EDGE('',*,*,#68,.F.);
#33=ORIENTED_EDGE('',*,*,#69,.F.);
#34=ORIENTED_EDGE('',*,*,#70,.T.);
#35=ORIENTED_EDGE('',*,*,#71,.T.);
#36=ORIENTED_EDGE('',*,*,#66,.F.);
#37=ORIENTED_EDGE('',*,*,#72,.F.);
#38=ORIENTED_EDGE('',*,*,#68,.T.);
#39=ORIENTED_EDGE('',*,*,#73,.T.);
#40=ORIENTED_EDGE('',*,*,#60,.F.);
#41=ORIENTED_EDGE('',*,*,#74,.F.);
#42=ORIENTED_EDGE('',*,*,#62,.T.);
#43=ORIENTED_EDGE('',*,*,#75,.T.);
#44=ORIENTED_EDGE('',*,*,#70,.F.);
#45=ORIENTED_EDGE('',*,*,#76,.F.);
#46=ORIENTED_EDGE('',*,*,#64,.T.);
#47=ORIENTED_EDGE('',*,*,#69,.T.);
#48=ORIENTED_EDGE('',*,*,#72,.T.);
#49=ORIENTED_EDGE('',*,*,#65,.T.);
#50=ORIENTED_EDGE('',*,*,#76,.T.);
#51=ORIENTED_EDGE('',*,*,#67,.F.);
#52=ORIENTED_EDGE('',*,*,#75,.F.);
#53=ORIENTED_EDGE('',*,*,#61,.F.);
#54=ORIENTED_EDGE('',*,*,#73,.F.);
#55=ORIENTED_EDGE('',*,*,#59,.T.);
#56=ORIENTED_EDGE('',*,*,#74,.T.);
#57=ORIENTED_EDGE('',*,*,#63,.T.);
#58=ORIENTED_EDGE('',*,*,#71,.F.);
#59=EDGE_CURVE('',#77,#78,#89,.F.);
#60=EDGE_CURVE('',#77,#79,#90,.T.);
#61=EDGE_CURVE('',#79,#80,#91,.T.);
#62=EDGE_CURVE('',#78,#80,#92,.T.);
#63=EDGE_CURVE('',#81,#82,#93,.T.);
#64=EDGE_CURVE('',#83,#81,#94,.T.);
#65=EDGE_CURVE('',#84,#83,#95,.T.);
#66=EDGE_CURVE('',#84,#82,#96,.T.);
#67=EDGE_CURVE('',#85,#86,#97,.T.);
#68=EDGE_CURVE('',#87,#86,#98,.T.);
#69=EDGE_CURVE('',#88,#87,#99,.T.);
#70=EDGE_CURVE('',#88,#85,#100,.T.);
#71=EDGE_CURVE('',#77,#82,#21,.T.);
#72=EDGE_CURVE('',#87,#84,#101,.T.);
#73=EDGE_CURVE('',#86,#79,#102,.T.);
#74=EDGE_CURVE('',#78,#81,#22,.F.);
#75=EDGE_CURVE('',#80,#85,#103,.T.);
#76=EDGE_CURVE('',#83,#88,#104,.T.);
#77=VERTEX_POINT('',#216);
#78=VERTEX_POINT('',#217);
#79=VERTEX_POINT('',#219);
#80=VERTEX_POINT('',#221);
#81=VERTEX_POINT('',#225);
#82=VERTEX_POINT('',#226);
#83=VERTEX_POINT('',#228);
#84=VERTEX_POINT('',#230);
#85=VERTEX_POINT('',#234);
#86=VERTEX_POINT('',#235);
#87=VERTEX_POINT('',#237);
#88=VERTEX_POINT('',#239);
#89=LINE('',#215,#105);
#90=LINE('',#218,#106);
#91=LINE('',#220,#107);
#92=LINE('',#222,#108);
#93=LINE('',#224,#109);
#94=LINE('',#227,#110);
#95=LINE('',#229,#111);
#96=LINE('',#231,#112);
#97=LINE('',#233,#113);
#98=LINE('',#236,#114);
#99=LINE('',#238,#115);
#100=LINE('',#240,#116);
#101=LINE('',#243,#117);
#102=LINE('',#244,#118);
#103=LINE('',#247,#119);
#104=LINE('',#248,#120);
#105=VECTOR('',#179,1000.);
#106=VECTOR('',#180,1000.);
#107=VECTOR('',#181,1000.);
#108=VECTOR('',#182,1000.);
#109=VECTOR('',#185,1000.);
#110=VECTOR('',#186,1000.);
#111=VECTOR('',#187,1000.);
#112=VECTOR('',#188,1000.);
#113=VECTOR('',#191,1000.);
#114=VECTOR('',#192,1000.);
#115=VECTOR('',#193,1000.);
#116=VECTOR('',#194,1000.);
#117=VECTOR('',#199,1000.);
#118=VECTOR('',#200,1000.);
#119=VECTOR('',#205,1000.);
#120=VECTOR('',#206,1000.);
#121=EDGE_LOOP('',(#23,#24,#25,#26));
#122=EDGE_LOOP('',(#27,#28,#29,#30));
#123=EDGE_LOOP('',(#31,#32,#33,#34));
#124=EDGE_LOOP('',(#35,#36,#37,#38,#39,#40));
#125=EDGE_LOOP('',(#41,#42,#43,#44,#45,#46));
#126=EDGE_LOOP('',(#47,#48,#49,#50));
#127=EDGE_LOOP('',(#51,#52,#53,#54));
#128=EDGE_LOOP('',(#55,#56,#57,#58));
#129=FACE_BOUND('',#121,.T.);
#130=FACE_BOUND('',#122,.T.);
#131=FACE_BOUND('',#123,.T.);
#132=FACE_BOUND('',#124,.T.);
#133=FACE_BOUND('',#125,.T.);
#134=FACE_BOUND('',#126,.T.);
#135=FACE_BOUND('',#127,.T.);
#136=FACE_BOUND('',#128,.T.);
#137=PLANE('',#165);
#138=PLANE('',#166);
#139=PLANE('',#167);
#140=PLANE('',#168);
#141=PLANE('',#170);
#142=PLANE('',#172);
#143=PLANE('',#173);
#144=ADVANCED_FACE('',(#129),#137,.F.);
#145=ADVANCED_FACE('',(#130),#138,.F.);
#146=ADVANCED_FACE('',(#131),#139,.F.);
#147=ADVANCED_FACE('',(#132),#140,.F.);
#148=ADVANCED_FACE('',(#133),#141,.F.);
#149=ADVANCED_FACE('',(#134),#142,.T.);
#150=ADVANCED_FACE('',(#135),#143,.F.);
#151=ADVANCED_FACE('',(#136),#20,.F.);
#152=CLOSED_SHELL('',(#144,#145,#146,#147,#148,#149,#150,#151));
#153=STYLED_ITEM('',(#154),#161);
#154=PRESENTATION_STYLE_ASSIGNMENT((#155));
#155=SURFACE_STYLE_USAGE(.BOTH.,#156);
#156=SURFACE_SIDE_STYLE('',(#157));
#157=SURFACE_STYLE_FILL_AREA(#158);
#158=FILL_AREA_STYLE('',(#159));
#159=FILL_AREA_STYLE_COLOUR('',#160);
#160=COLOUR_RGB('',0.506983280181885,0.531564235687256,0.550000011920929);
#161=MANIFOLD_SOLID_BREP('',#152);
#162=SHAPE_DEFINITION_REPRESENTATION(#258,#163);
#163=SHAPE_REPRESENTATION('Boxslitexample',(#164),#253);
#164=AXIS2_PLACEMENT_3D('',#213,#175,#176);
#165=AXIS2_PLACEMENT_3D('',#214,#177,#178);
#166=AXIS2_PLACEMENT_3D('',#223,#183,#184);
#167=AXIS2_PLACEMENT_3D('',#232,#189,#190);
#168=AXIS2_PLACEMENT_3D('',#241,#195,#196);
#169=AXIS2_PLACEMENT_3D('',#242,#197,#198);
#170=AXIS2_PLACEMENT_3D('',#245,#201,#202);
#171=AXIS2_PLACEMENT_3D('',#246,#203,#204);
#172=AXIS2_PLACEMENT_3D('',#249,#207,#208);
#173=AXIS2_PLACEMENT_3D('',#250,#209,#210);
#174=AXIS2_PLACEMENT_3D('',#251,#211,#212);
#175=DIRECTION('',(0.,0.,1.));
#176=DIRECTION('',(1.,0.,0.));
#177=DIRECTION('',(-1.,0.,0.));
#178=DIRECTION('',(0.,0.,1.));
#179=DIRECTION('',(-9.25185853854297E-17,-1.,0.));
#180=DIRECTION('',(0.,0.,-1.));
#181=DIRECTION('',(0.,1.,0.));
#182=DIRECTION('',(0.,0.,-1.));
#183=DIRECTION('',(-1.,0.,0.));
#184=DIRECTION('',(0.,0.,1.));
#185=DIRECTION('',(-9.25185853854297E-17,-1.,0.));
#186=DIRECTION('',(0.,0.,-1.));
#187=DIRECTION('',(0.,1.,0.));
#188=DIRECTION('',(0.,0.,-1.));
#189=DIRECTION('',(1.,0.,0.));
#190=DIRECTION('',(0.,0.,-1.));
#191=DIRECTION('',(0.,-1.,0.));
#192=DIRECTION('',(0.,0.,-1.));
#193=DIRECTION('',(0.,-1.,0.));
#194=DIRECTION('',(0.,0.,-1.));
#195=DIRECTION('',(9.25185853854297E-17,1.,0.));
#196=DIRECTION('',(-1.,9.25185853854297E-17,0.));
#197=DIRECTION('',(9.25185853854297E-17,1.,0.));
#198=DIRECTION('',(0.,0.,1.));
#199=DIRECTION('',(1.,-9.25185853854297E-17,0.));
#200=DIRECTION('',(1.,-9.25185853854297E-17,0.));
#201=DIRECTION('',(9.25185853854297E-17,-1.,0.));
#202=DIRECTION('',(1.,9.25185853854297E-17,0.));
#203=DIRECTION('',(9.25185853854297E-17,-1.,0.));
#204=DIRECTION('',(1.,9.25185853854297E-17,0.));
#205=DIRECTION('',(-1.,-9.25185853854297E-17,0.));
#206=DIRECTION('',(-1.,-9.25185853854297E-17,0.));
#207=DIRECTION('',(0.,0.,1.));
#208=DIRECTION('',(1.,0.,0.));
#209=DIRECTION('',(0.,0.,1.));
#210=DIRECTION('',(1.,0.,0.));
#211=DIRECTION('',(-9.25185853854297E-17,-1.,0.));
#212=DIRECTION('',(1.,-9.25185853854297E-17,0.));
#213=CARTESIAN_POINT('',(0.,0.,0.));
#214=CARTESIAN_POINT('',(37.5,-37.5,75.));
#215=CARTESIAN_POINT('',(37.5,98.3708704428492,27.5830203381119));
#216=CARTESIAN_POINT('',(37.5,-37.5,27.5830203381119));
#217=CARTESIAN_POINT('',(37.5,37.5,27.5830203381119));
#218=CARTESIAN_POINT('',(37.5,-37.5,75.));
#219=CARTESIAN_POINT('',(37.5,-37.5,0.));
#220=CARTESIAN_POINT('',(37.5,-37.5,0.));
#221=CARTESIAN_POINT('',(37.5,37.5,0.));
#222=CARTESIAN_POINT('',(37.5,37.5,75.));
#223=CARTESIAN_POINT('',(37.5,-37.5,75.));
#224=CARTESIAN_POINT('',(37.5,98.3708704428492,47.4169796618881));
#225=CARTESIAN_POINT('',(37.5,37.5,47.4169796618881));
#226=CARTESIAN_POINT('',(37.5,-37.5,47.4169796618881));
#227=CARTESIAN_POINT('',(37.5,37.5,75.));
#228=CARTESIAN_POINT('',(37.5,37.5,75.));
#229=CARTESIAN_POINT('',(37.5,-37.5,75.));
#230=CARTESIAN_POINT('',(37.5,-37.5,75.));
#231=CARTESIAN_POINT('',(37.5,-37.5,75.));
#232=CARTESIAN_POINT('',(-37.5,37.5,75.));
#233=CARTESIAN_POINT('',(-37.5,37.5,0.));
#234=CARTESIAN_POINT('',(-37.5,37.5,0.));
#235=CARTESIAN_POINT('',(-37.5,-37.5,0.));
#236=CARTESIAN_POINT('',(-37.5,-37.5,75.));
#237=CARTESIAN_POINT('',(-37.5,-37.5,75.));
#238=CARTESIAN_POINT('',(-37.5,37.5,75.));
#239=CARTESIAN_POINT('',(-37.5,37.5,75.));
#240=CARTESIAN_POINT('',(-37.5,37.5,75.));
#241=CARTESIAN_POINT('',(-37.5,-37.5,75.));
#242=CARTESIAN_POINT('',(37.5,-37.5,37.5));
#243=CARTESIAN_POINT('',(-37.5,-37.5,75.));
#244=CARTESIAN_POINT('',(-37.5,-37.5,0.));
#245=CARTESIAN_POINT('',(37.5,37.5,75.));
#246=CARTESIAN_POINT('',(37.5,37.5,37.5));
#247=CARTESIAN_POINT('',(37.5,37.5,0.));
#248=CARTESIAN_POINT('',(37.5,37.5,75.));
#249=CARTESIAN_POINT('',(0.,0.,75.));
#250=CARTESIAN_POINT('',(0.,0.,0.));
#251=CARTESIAN_POINT('',(37.5,98.3708704428492,37.5));
#252=MECHANICAL_DESIGN_GEOMETRIC_PRESENTATION_REPRESENTATION('',(#153),
#253);
#253=(
GEOMETRIC_REPRESENTATION_CONTEXT(3)
GLOBAL_UNCERTAINTY_ASSIGNED_CONTEXT((#254))
GLOBAL_UNIT_ASSIGNED_CONTEXT((#257,#256,#255))
REPRESENTATION_CONTEXT('Boxslitexample','TOP_LEVEL_ASSEMBLY_PART')
);
#254=UNCERTAINTY_MEASURE_WITH_UNIT(LENGTH_MEASURE(0.005),#257,
'DISTANCE_ACCURACY_VALUE','Maximum Tolerance applied to model');
#255=(
NAMED_UNIT(*)
SI_UNIT($,.STERADIAN.)
SOLID_ANGLE_UNIT()
);
#256=(
NAMED_UNIT(*)
PLANE_ANGLE_UNIT()
SI_UNIT($,.RADIAN.)
);
#257=(
LENGTH_UNIT()
NAMED_UNIT(*)
SI_UNIT(.MILLI.,.METRE.)
);
#258=PRODUCT_DEFINITION_SHAPE('','',#259);
#259=PRODUCT_DEFINITION('','',#261,#260);
#260=PRODUCT_DEFINITION_CONTEXT('',#267,'design');
#261=PRODUCT_DEFINITION_FORMATION_WITH_SPECIFIED_SOURCE('','',#263,
 .NOT_KNOWN.);
#262=PRODUCT_RELATED_PRODUCT_CATEGORY('','',(#263));
#263=PRODUCT('Boxslitexample','Boxslitexample','Boxslitexample',(#265));
#264=PRODUCT_CATEGORY('','');
#265=PRODUCT_CONTEXT('',#267,'mechanical');
#266=APPLICATION_PROTOCOL_DEFINITION('international standard',
'automotive_design',2010,#267);
#267=APPLICATION_CONTEXT(
'core data for automotive mechanical design processes');
ENDSEC;
END-ISO-10303-21;
