ISO-10303-21;
HEADER;
/* Generated by software containing ST-Developer
 * from STEP Tools, Inc. (www.steptools.com) 
 */
/* OPTION: strings as raw bytes, not using required /X/ escapes */

FILE_DESCRIPTION(
/* description */ ('Unknown'),
/* implementation_level */ '2;1');

FILE_NAME(
/* name */ 'slit7',
/* time_stamp */ '2025-10-18T23:03:20+02:00',
/* author */ ('Unknown'),
/* organization */ ('Unknown'),
/* preprocessor_version */ 'ST-DEVELOPER v19.4',
/* originating_system */ 'Solid Edge',
/* authorisation */ 'Unknown');

FILE_SCHEMA (('AUTOMOTIVE_DESIGN {1 0 10303 214 3 1 1}'));
ENDSEC;

DATA;
#10=PROPERTY_DEFINITION_REPRESENTATION(#14,#12);
#11=PROPERTY_DEFINITION_REPRESENTATION(#15,#13);
#12=REPRESENTATION('',(#16),#845);
#13=REPRESENTATION('',(#17),#845);
#14=PROPERTY_DEFINITION('pmi validation property','',#850);
#15=PROPERTY_DEFINITION('pmi validation property','',#850);
#16=VALUE_REPRESENTATION_ITEM('number of annotations',COUNT_MEASURE(0.));
#17=VALUE_REPRESENTATION_ITEM('number of views',COUNT_MEASURE(0.));
#18=SHAPE_REPRESENTATION_RELATIONSHIP('','',#543,#19);
#19=ADVANCED_BREP_SHAPE_REPRESENTATION('',(#541),#845);
#20=ORIENTED_EDGE('',*,*,#164,.F.);
#21=ORIENTED_EDGE('',*,*,#165,.T.);
#22=ORIENTED_EDGE('',*,*,#166,.F.);
#23=ORIENTED_EDGE('',*,*,#167,.F.);
#24=ORIENTED_EDGE('',*,*,#168,.F.);
#25=ORIENTED_EDGE('',*,*,#169,.T.);
#26=ORIENTED_EDGE('',*,*,#170,.F.);
#27=ORIENTED_EDGE('',*,*,#171,.F.);
#28=ORIENTED_EDGE('',*,*,#172,.T.);
#29=ORIENTED_EDGE('',*,*,#173,.T.);
#30=ORIENTED_EDGE('',*,*,#174,.F.);
#31=ORIENTED_EDGE('',*,*,#175,.F.);
#32=ORIENTED_EDGE('',*,*,#176,.F.);
#33=ORIENTED_EDGE('',*,*,#177,.T.);
#34=ORIENTED_EDGE('',*,*,#178,.F.);
#35=ORIENTED_EDGE('',*,*,#179,.F.);
#36=ORIENTED_EDGE('',*,*,#180,.F.);
#37=ORIENTED_EDGE('',*,*,#181,.T.);
#38=ORIENTED_EDGE('',*,*,#182,.F.);
#39=ORIENTED_EDGE('',*,*,#183,.F.);
#40=ORIENTED_EDGE('',*,*,#184,.T.);
#41=ORIENTED_EDGE('',*,*,#185,.T.);
#42=ORIENTED_EDGE('',*,*,#186,.F.);
#43=ORIENTED_EDGE('',*,*,#187,.F.);
#44=ORIENTED_EDGE('',*,*,#188,.F.);
#45=ORIENTED_EDGE('',*,*,#189,.T.);
#46=ORIENTED_EDGE('',*,*,#190,.F.);
#47=ORIENTED_EDGE('',*,*,#191,.F.);
#48=ORIENTED_EDGE('',*,*,#192,.T.);
#49=ORIENTED_EDGE('',*,*,#193,.T.);
#50=ORIENTED_EDGE('',*,*,#191,.T.);
#51=ORIENTED_EDGE('',*,*,#194,.T.);
#52=ORIENTED_EDGE('',*,*,#195,.T.);
#53=ORIENTED_EDGE('',*,*,#196,.T.);
#54=ORIENTED_EDGE('',*,*,#187,.T.);
#55=ORIENTED_EDGE('',*,*,#197,.T.);
#56=ORIENTED_EDGE('',*,*,#171,.T.);
#57=ORIENTED_EDGE('',*,*,#198,.T.);
#58=ORIENTED_EDGE('',*,*,#199,.T.);
#59=ORIENTED_EDGE('',*,*,#200,.T.);
#60=ORIENTED_EDGE('',*,*,#167,.T.);
#61=ORIENTED_EDGE('',*,*,#201,.T.);
#62=ORIENTED_EDGE('',*,*,#202,.T.);
#63=ORIENTED_EDGE('',*,*,#203,.T.);
#64=ORIENTED_EDGE('',*,*,#179,.T.);
#65=ORIENTED_EDGE('',*,*,#204,.T.);
#66=ORIENTED_EDGE('',*,*,#205,.T.);
#67=ORIENTED_EDGE('',*,*,#206,.T.);
#68=ORIENTED_EDGE('',*,*,#175,.T.);
#69=ORIENTED_EDGE('',*,*,#207,.T.);
#70=ORIENTED_EDGE('',*,*,#183,.T.);
#71=ORIENTED_EDGE('',*,*,#208,.T.);
#72=ORIENTED_EDGE('',*,*,#209,.T.);
#73=ORIENTED_EDGE('',*,*,#172,.F.);
#74=ORIENTED_EDGE('',*,*,#197,.F.);
#75=ORIENTED_EDGE('',*,*,#186,.T.);
#76=ORIENTED_EDGE('',*,*,#210,.T.);
#77=ORIENTED_EDGE('',*,*,#184,.F.);
#78=ORIENTED_EDGE('',*,*,#207,.F.);
#79=ORIENTED_EDGE('',*,*,#174,.T.);
#80=ORIENTED_EDGE('',*,*,#209,.F.);
#81=ORIENTED_EDGE('',*,*,#185,.F.);
#82=ORIENTED_EDGE('',*,*,#210,.F.);
#83=ORIENTED_EDGE('',*,*,#173,.F.);
#84=ORIENTED_EDGE('',*,*,#211,.F.);
#85=ORIENTED_EDGE('',*,*,#212,.F.);
#86=ORIENTED_EDGE('',*,*,#213,.F.);
#87=ORIENTED_EDGE('',*,*,#189,.F.);
#88=ORIENTED_EDGE('',*,*,#188,.T.);
#89=ORIENTED_EDGE('',*,*,#196,.F.);
#90=ORIENTED_EDGE('',*,*,#214,.F.);
#91=ORIENTED_EDGE('',*,*,#211,.T.);
#92=ORIENTED_EDGE('',*,*,#190,.T.);
#93=ORIENTED_EDGE('',*,*,#213,.T.);
#94=ORIENTED_EDGE('',*,*,#215,.T.);
#95=ORIENTED_EDGE('',*,*,#194,.F.);
#96=ORIENTED_EDGE('',*,*,#195,.F.);
#97=ORIENTED_EDGE('',*,*,#215,.F.);
#98=ORIENTED_EDGE('',*,*,#212,.T.);
#99=ORIENTED_EDGE('',*,*,#214,.T.);
#100=ORIENTED_EDGE('',*,*,#216,.F.);
#101=ORIENTED_EDGE('',*,*,#217,.F.);
#102=ORIENTED_EDGE('',*,*,#218,.F.);
#103=ORIENTED_EDGE('',*,*,#181,.F.);
#104=ORIENTED_EDGE('',*,*,#180,.T.);
#105=ORIENTED_EDGE('',*,*,#193,.F.);
#106=ORIENTED_EDGE('',*,*,#219,.F.);
#107=ORIENTED_EDGE('',*,*,#216,.T.);
#108=ORIENTED_EDGE('',*,*,#182,.T.);
#109=ORIENTED_EDGE('',*,*,#218,.T.);
#110=ORIENTED_EDGE('',*,*,#220,.T.);
#111=ORIENTED_EDGE('',*,*,#208,.F.);
#112=ORIENTED_EDGE('',*,*,#192,.F.);
#113=ORIENTED_EDGE('',*,*,#220,.F.);
#114=ORIENTED_EDGE('',*,*,#217,.T.);
#115=ORIENTED_EDGE('',*,*,#219,.T.);
#116=ORIENTED_EDGE('',*,*,#221,.F.);
#117=ORIENTED_EDGE('',*,*,#222,.F.);
#118=ORIENTED_EDGE('',*,*,#223,.F.);
#119=ORIENTED_EDGE('',*,*,#169,.F.);
#120=ORIENTED_EDGE('',*,*,#170,.T.);
#121=ORIENTED_EDGE('',*,*,#223,.T.);
#122=ORIENTED_EDGE('',*,*,#224,.T.);
#123=ORIENTED_EDGE('',*,*,#198,.F.);
#124=ORIENTED_EDGE('',*,*,#168,.T.);
#125=ORIENTED_EDGE('',*,*,#200,.F.);
#126=ORIENTED_EDGE('',*,*,#225,.F.);
#127=ORIENTED_EDGE('',*,*,#221,.T.);
#128=ORIENTED_EDGE('',*,*,#199,.F.);
#129=ORIENTED_EDGE('',*,*,#224,.F.);
#130=ORIENTED_EDGE('',*,*,#222,.T.);
#131=ORIENTED_EDGE('',*,*,#225,.T.);
#132=ORIENTED_EDGE('',*,*,#226,.F.);
#133=ORIENTED_EDGE('',*,*,#227,.F.);
#134=ORIENTED_EDGE('',*,*,#228,.F.);
#135=ORIENTED_EDGE('',*,*,#177,.F.);
#136=ORIENTED_EDGE('',*,*,#178,.T.);
#137=ORIENTED_EDGE('',*,*,#228,.T.);
#138=ORIENTED_EDGE('',*,*,#229,.T.);
#139=ORIENTED_EDGE('',*,*,#204,.F.);
#140=ORIENTED_EDGE('',*,*,#176,.T.);
#141=ORIENTED_EDGE('',*,*,#206,.F.);
#142=ORIENTED_EDGE('',*,*,#230,.F.);
#143=ORIENTED_EDGE('',*,*,#226,.T.);
#144=ORIENTED_EDGE('',*,*,#205,.F.);
#145=ORIENTED_EDGE('',*,*,#229,.F.);
#146=ORIENTED_EDGE('',*,*,#227,.T.);
#147=ORIENTED_EDGE('',*,*,#230,.T.);
#148=ORIENTED_EDGE('',*,*,#231,.F.);
#149=ORIENTED_EDGE('',*,*,#232,.F.);
#150=ORIENTED_EDGE('',*,*,#233,.F.);
#151=ORIENTED_EDGE('',*,*,#165,.F.);
#152=ORIENTED_EDGE('',*,*,#164,.T.);
#153=ORIENTED_EDGE('',*,*,#203,.F.);
#154=ORIENTED_EDGE('',*,*,#234,.F.);
#155=ORIENTED_EDGE('',*,*,#231,.T.);
#156=ORIENTED_EDGE('',*,*,#166,.T.);
#157=ORIENTED_EDGE('',*,*,#233,.T.);
#158=ORIENTED_EDGE('',*,*,#235,.T.);
#159=ORIENTED_EDGE('',*,*,#201,.F.);
#160=ORIENTED_EDGE('',*,*,#202,.F.);
#161=ORIENTED_EDGE('',*,*,#235,.F.);
#162=ORIENTED_EDGE('',*,*,#232,.T.);
#163=ORIENTED_EDGE('',*,*,#234,.T.);
#164=EDGE_CURVE('',#236,#237,#284,.T.);
#165=EDGE_CURVE('',#236,#238,#285,.T.);
#166=EDGE_CURVE('',#239,#238,#286,.T.);
#167=EDGE_CURVE('',#240,#239,#287,.T.);
#168=EDGE_CURVE('',#241,#240,#288,.T.);
#169=EDGE_CURVE('',#241,#242,#289,.T.);
#170=EDGE_CURVE('',#243,#242,#290,.T.);
#171=EDGE_CURVE('',#244,#243,#291,.T.);
#172=EDGE_CURVE('',#244,#245,#292,.T.);
#173=EDGE_CURVE('',#245,#246,#293,.T.);
#174=EDGE_CURVE('',#247,#246,#294,.T.);
#175=EDGE_CURVE('',#248,#247,#295,.T.);
#176=EDGE_CURVE('',#249,#248,#296,.T.);
#177=EDGE_CURVE('',#249,#250,#297,.T.);
#178=EDGE_CURVE('',#251,#250,#298,.T.);
#179=EDGE_CURVE('',#237,#251,#299,.T.);
#180=EDGE_CURVE('',#252,#253,#300,.T.);
#181=EDGE_CURVE('',#252,#254,#301,.T.);
#182=EDGE_CURVE('',#255,#254,#302,.T.);
#183=EDGE_CURVE('',#256,#255,#303,.T.);
#184=EDGE_CURVE('',#256,#257,#304,.T.);
#185=EDGE_CURVE('',#257,#258,#305,.T.);
#186=EDGE_CURVE('',#259,#258,#306,.T.);
#187=EDGE_CURVE('',#260,#259,#307,.T.);
#188=EDGE_CURVE('',#261,#260,#308,.T.);
#189=EDGE_CURVE('',#261,#262,#309,.T.);
#190=EDGE_CURVE('',#263,#262,#310,.T.);
#191=EDGE_CURVE('',#253,#263,#311,.T.);
#192=EDGE_CURVE('',#264,#265,#312,.T.);
#193=EDGE_CURVE('',#265,#253,#313,.T.);
#194=EDGE_CURVE('',#263,#266,#314,.T.);
#195=EDGE_CURVE('',#266,#267,#315,.T.);
#196=EDGE_CURVE('',#267,#260,#316,.T.);
#197=EDGE_CURVE('',#259,#244,#317,.T.);
#198=EDGE_CURVE('',#243,#268,#318,.T.);
#199=EDGE_CURVE('',#268,#269,#319,.T.);
#200=EDGE_CURVE('',#269,#240,#320,.T.);
#201=EDGE_CURVE('',#239,#270,#321,.T.);
#202=EDGE_CURVE('',#270,#271,#322,.T.);
#203=EDGE_CURVE('',#271,#237,#323,.T.);
#204=EDGE_CURVE('',#251,#272,#324,.T.);
#205=EDGE_CURVE('',#272,#273,#325,.T.);
#206=EDGE_CURVE('',#273,#248,#326,.T.);
#207=EDGE_CURVE('',#247,#256,#327,.T.);
#208=EDGE_CURVE('',#255,#264,#328,.T.);
#209=EDGE_CURVE('',#258,#245,#329,.T.);
#210=EDGE_CURVE('',#246,#257,#330,.T.);
#211=EDGE_CURVE('',#274,#261,#331,.T.);
#212=EDGE_CURVE('',#275,#274,#332,.T.);
#213=EDGE_CURVE('',#262,#275,#333,.T.);
#214=EDGE_CURVE('',#274,#267,#334,.T.);
#215=EDGE_CURVE('',#275,#266,#335,.T.);
#216=EDGE_CURVE('',#276,#252,#336,.T.);
#217=EDGE_CURVE('',#277,#276,#337,.T.);
#218=EDGE_CURVE('',#254,#277,#338,.T.);
#219=EDGE_CURVE('',#276,#265,#339,.T.);
#220=EDGE_CURVE('',#277,#264,#340,.T.);
#221=EDGE_CURVE('',#278,#241,#341,.T.);
#222=EDGE_CURVE('',#279,#278,#342,.T.);
#223=EDGE_CURVE('',#242,#279,#343,.T.);
#224=EDGE_CURVE('',#279,#268,#344,.T.);
#225=EDGE_CURVE('',#278,#269,#345,.T.);
#226=EDGE_CURVE('',#280,#249,#346,.T.);
#227=EDGE_CURVE('',#281,#280,#347,.T.);
#228=EDGE_CURVE('',#250,#281,#348,.T.);
#229=EDGE_CURVE('',#281,#272,#349,.T.);
#230=EDGE_CURVE('',#280,#273,#350,.T.);
#231=EDGE_CURVE('',#282,#236,#351,.T.);
#232=EDGE_CURVE('',#283,#282,#352,.T.);
#233=EDGE_CURVE('',#238,#283,#353,.T.);
#234=EDGE_CURVE('',#282,#271,#354,.T.);
#235=EDGE_CURVE('',#283,#270,#355,.T.);
#236=VERTEX_POINT('',#700);
#237=VERTEX_POINT('',#701);
#238=VERTEX_POINT('',#703);
#239=VERTEX_POINT('',#705);
#240=VERTEX_POINT('',#707);
#241=VERTEX_POINT('',#709);
#242=VERTEX_POINT('',#711);
#243=VERTEX_POINT('',#713);
#244=VERTEX_POINT('',#715);
#245=VERTEX_POINT('',#717);
#246=VERTEX_POINT('',#719);
#247=VERTEX_POINT('',#721);
#248=VERTEX_POINT('',#723);
#249=VERTEX_POINT('',#725);
#250=VERTEX_POINT('',#727);
#251=VERTEX_POINT('',#729);
#252=VERTEX_POINT('',#733);
#253=VERTEX_POINT('',#734);
#254=VERTEX_POINT('',#736);
#255=VERTEX_POINT('',#738);
#256=VERTEX_POINT('',#740);
#257=VERTEX_POINT('',#742);
#258=VERTEX_POINT('',#744);
#259=VERTEX_POINT('',#746);
#260=VERTEX_POINT('',#748);
#261=VERTEX_POINT('',#750);
#262=VERTEX_POINT('',#752);
#263=VERTEX_POINT('',#754);
#264=VERTEX_POINT('',#758);
#265=VERTEX_POINT('',#759);
#266=VERTEX_POINT('',#762);
#267=VERTEX_POINT('',#764);
#268=VERTEX_POINT('',#768);
#269=VERTEX_POINT('',#770);
#270=VERTEX_POINT('',#773);
#271=VERTEX_POINT('',#775);
#272=VERTEX_POINT('',#778);
#273=VERTEX_POINT('',#780);
#274=VERTEX_POINT('',#791);
#275=VERTEX_POINT('',#793);
#276=VERTEX_POINT('',#802);
#277=VERTEX_POINT('',#804);
#278=VERTEX_POINT('',#813);
#279=VERTEX_POINT('',#815);
#280=VERTEX_POINT('',#824);
#281=VERTEX_POINT('',#826);
#282=VERTEX_POINT('',#835);
#283=VERTEX_POINT('',#837);
#284=LINE('',#699,#356);
#285=LINE('',#702,#357);
#286=LINE('',#704,#358);
#287=LINE('',#706,#359);
#288=LINE('',#708,#360);
#289=LINE('',#710,#361);
#290=LINE('',#712,#362);
#291=LINE('',#714,#363);
#292=LINE('',#716,#364);
#293=LINE('',#718,#365);
#294=LINE('',#720,#366);
#295=LINE('',#722,#367);
#296=LINE('',#724,#368);
#297=LINE('',#726,#369);
#298=LINE('',#728,#370);
#299=LINE('',#730,#371);
#300=LINE('',#732,#372);
#301=LINE('',#735,#373);
#302=LINE('',#737,#374);
#303=LINE('',#739,#375);
#304=LINE('',#741,#376);
#305=LINE('',#743,#377);
#306=LINE('',#745,#378);
#307=LINE('',#747,#379);
#308=LINE('',#749,#380);
#309=LINE('',#751,#381);
#310=LINE('',#753,#382);
#311=LINE('',#755,#383);
#312=LINE('',#757,#384);
#313=LINE('',#760,#385);
#314=LINE('',#761,#386);
#315=LINE('',#763,#387);
#316=LINE('',#765,#388);
#317=LINE('',#766,#389);
#318=LINE('',#767,#390);
#319=LINE('',#769,#391);
#320=LINE('',#771,#392);
#321=LINE('',#772,#393);
#322=LINE('',#774,#394);
#323=LINE('',#776,#395);
#324=LINE('',#777,#396);
#325=LINE('',#779,#397);
#326=LINE('',#781,#398);
#327=LINE('',#782,#399);
#328=LINE('',#783,#400);
#329=LINE('',#785,#401);
#330=LINE('',#787,#402);
#331=LINE('',#790,#403);
#332=LINE('',#792,#404);
#333=LINE('',#794,#405);
#334=LINE('',#796,#406);
#335=LINE('',#798,#407);
#336=LINE('',#801,#408);
#337=LINE('',#803,#409);
#338=LINE('',#805,#410);
#339=LINE('',#807,#411);
#340=LINE('',#809,#412);
#341=LINE('',#812,#413);
#342=LINE('',#814,#414);
#343=LINE('',#816,#415);
#344=LINE('',#818,#416);
#345=LINE('',#820,#417);
#346=LINE('',#823,#418);
#347=LINE('',#825,#419);
#348=LINE('',#827,#420);
#349=LINE('',#829,#421);
#350=LINE('',#831,#422);
#351=LINE('',#834,#423);
#352=LINE('',#836,#424);
#353=LINE('',#838,#425);
#354=LINE('',#840,#426);
#355=LINE('',#842,#427);
#356=VECTOR('',#575,1000.);
#357=VECTOR('',#576,1000.);
#358=VECTOR('',#577,1000.);
#359=VECTOR('',#578,1000.);
#360=VECTOR('',#579,1000.);
#361=VECTOR('',#580,1000.);
#362=VECTOR('',#581,1000.);
#363=VECTOR('',#582,1000.);
#364=VECTOR('',#583,1000.);
#365=VECTOR('',#584,1000.);
#366=VECTOR('',#585,1000.);
#367=VECTOR('',#586,1000.);
#368=VECTOR('',#587,1000.);
#369=VECTOR('',#588,1000.);
#370=VECTOR('',#589,1000.);
#371=VECTOR('',#590,1000.);
#372=VECTOR('',#593,1000.);
#373=VECTOR('',#594,1000.);
#374=VECTOR('',#595,1000.);
#375=VECTOR('',#596,1000.);
#376=VECTOR('',#597,1000.);
#377=VECTOR('',#598,1000.);
#378=VECTOR('',#599,1000.);
#379=VECTOR('',#600,1000.);
#380=VECTOR('',#601,1000.);
#381=VECTOR('',#602,1000.);
#382=VECTOR('',#603,1000.);
#383=VECTOR('',#604,1000.);
#384=VECTOR('',#607,1000.);
#385=VECTOR('',#608,1000.);
#386=VECTOR('',#609,1000.);
#387=VECTOR('',#610,1000.);
#388=VECTOR('',#611,1000.);
#389=VECTOR('',#612,1000.);
#390=VECTOR('',#613,1000.);
#391=VECTOR('',#614,1000.);
#392=VECTOR('',#615,1000.);
#393=VECTOR('',#616,1000.);
#394=VECTOR('',#617,1000.);
#395=VECTOR('',#618,1000.);
#396=VECTOR('',#619,1000.);
#397=VECTOR('',#620,1000.);
#398=VECTOR('',#621,1000.);
#399=VECTOR('',#622,1000.);
#400=VECTOR('',#623,1000.);
#401=VECTOR('',#626,1000.);
#402=VECTOR('',#629,1000.);
#403=VECTOR('',#634,1000.);
#404=VECTOR('',#635,1000.);
#405=VECTOR('',#636,1000.);
#406=VECTOR('',#639,1000.);
#407=VECTOR('',#642,1000.);
#408=VECTOR('',#647,1000.);
#409=VECTOR('',#648,1000.);
#410=VECTOR('',#649,1000.);
#411=VECTOR('',#652,1000.);
#412=VECTOR('',#655,1000.);
#413=VECTOR('',#660,1000.);
#414=VECTOR('',#661,1000.);
#415=VECTOR('',#662,1000.);
#416=VECTOR('',#665,1000.);
#417=VECTOR('',#668,1000.);
#418=VECTOR('',#673,1000.);
#419=VECTOR('',#674,1000.);
#420=VECTOR('',#675,1000.);
#421=VECTOR('',#678,1000.);
#422=VECTOR('',#681,1000.);
#423=VECTOR('',#686,1000.);
#424=VECTOR('',#687,1000.);
#425=VECTOR('',#688,1000.);
#426=VECTOR('',#691,1000.);
#427=VECTOR('',#694,1000.);
#428=EDGE_LOOP('',(#20,#21,#22,#23,#24,#25,#26,#27,#28,#29,#30,#31,#32,
#33,#34,#35));
#429=EDGE_LOOP('',(#36,#37,#38,#39,#40,#41,#42,#43,#44,#45,#46,#47));
#430=EDGE_LOOP('',(#48,#49,#50,#51,#52,#53,#54,#55,#56,#57,#58,#59,#60,
#61,#62,#63,#64,#65,#66,#67,#68,#69,#70,#71));
#431=EDGE_LOOP('',(#72,#73,#74,#75));
#432=EDGE_LOOP('',(#76,#77,#78,#79));
#433=EDGE_LOOP('',(#80,#81,#82,#83));
#434=EDGE_LOOP('',(#84,#85,#86,#87));
#435=EDGE_LOOP('',(#88,#89,#90,#91));
#436=EDGE_LOOP('',(#92,#93,#94,#95));
#437=EDGE_LOOP('',(#96,#97,#98,#99));
#438=EDGE_LOOP('',(#100,#101,#102,#103));
#439=EDGE_LOOP('',(#104,#105,#106,#107));
#440=EDGE_LOOP('',(#108,#109,#110,#111));
#441=EDGE_LOOP('',(#112,#113,#114,#115));
#442=EDGE_LOOP('',(#116,#117,#118,#119));
#443=EDGE_LOOP('',(#120,#121,#122,#123));
#444=EDGE_LOOP('',(#124,#125,#126,#127));
#445=EDGE_LOOP('',(#128,#129,#130,#131));
#446=EDGE_LOOP('',(#132,#133,#134,#135));
#447=EDGE_LOOP('',(#136,#137,#138,#139));
#448=EDGE_LOOP('',(#140,#141,#142,#143));
#449=EDGE_LOOP('',(#144,#145,#146,#147));
#450=EDGE_LOOP('',(#148,#149,#150,#151));
#451=EDGE_LOOP('',(#152,#153,#154,#155));
#452=EDGE_LOOP('',(#156,#157,#158,#159));
#453=EDGE_LOOP('',(#160,#161,#162,#163));
#454=FACE_BOUND('',#428,.T.);
#455=FACE_BOUND('',#429,.T.);
#456=FACE_BOUND('',#430,.T.);
#457=FACE_BOUND('',#431,.T.);
#458=FACE_BOUND('',#432,.T.);
#459=FACE_BOUND('',#433,.T.);
#460=FACE_BOUND('',#434,.T.);
#461=FACE_BOUND('',#435,.T.);
#462=FACE_BOUND('',#436,.T.);
#463=FACE_BOUND('',#437,.T.);
#464=FACE_BOUND('',#438,.T.);
#465=FACE_BOUND('',#439,.T.);
#466=FACE_BOUND('',#440,.T.);
#467=FACE_BOUND('',#441,.T.);
#468=FACE_BOUND('',#442,.T.);
#469=FACE_BOUND('',#443,.T.);
#470=FACE_BOUND('',#444,.T.);
#471=FACE_BOUND('',#445,.T.);
#472=FACE_BOUND('',#446,.T.);
#473=FACE_BOUND('',#447,.T.);
#474=FACE_BOUND('',#448,.T.);
#475=FACE_BOUND('',#449,.T.);
#476=FACE_BOUND('',#450,.T.);
#477=FACE_BOUND('',#451,.T.);
#478=FACE_BOUND('',#452,.T.);
#479=FACE_BOUND('',#453,.T.);
#480=PLANE('',#545);
#481=PLANE('',#546);
#482=PLANE('',#547);
#483=PLANE('',#548);
#484=PLANE('',#549);
#485=PLANE('',#550);
#486=PLANE('',#551);
#487=PLANE('',#552);
#488=PLANE('',#553);
#489=PLANE('',#554);
#490=PLANE('',#555);
#491=PLANE('',#556);
#492=PLANE('',#557);
#493=PLANE('',#558);
#494=PLANE('',#559);
#495=PLANE('',#560);
#496=PLANE('',#561);
#497=PLANE('',#562);
#498=PLANE('',#563);
#499=PLANE('',#564);
#500=PLANE('',#565);
#501=PLANE('',#566);
#502=PLANE('',#567);
#503=PLANE('',#568);
#504=PLANE('',#569);
#505=PLANE('',#570);
#506=ADVANCED_FACE('',(#454),#480,.F.);
#507=ADVANCED_FACE('',(#455),#481,.F.);
#508=ADVANCED_FACE('',(#456),#482,.T.);
#509=ADVANCED_FACE('',(#457),#483,.F.);
#510=ADVANCED_FACE('',(#458),#484,.F.);
#511=ADVANCED_FACE('',(#459),#485,.F.);
#512=ADVANCED_FACE('',(#460),#486,.F.);
#513=ADVANCED_FACE('',(#461),#487,.T.);
#514=ADVANCED_FACE('',(#462),#488,.T.);
#515=ADVANCED_FACE('',(#463),#489,.T.);
#516=ADVANCED_FACE('',(#464),#490,.F.);
#517=ADVANCED_FACE('',(#465),#491,.T.);
#518=ADVANCED_FACE('',(#466),#492,.T.);
#519=ADVANCED_FACE('',(#467),#493,.T.);
#520=ADVANCED_FACE('',(#468),#494,.F.);
#521=ADVANCED_FACE('',(#469),#495,.T.);
#522=ADVANCED_FACE('',(#470),#496,.T.);
#523=ADVANCED_FACE('',(#471),#497,.T.);
#524=ADVANCED_FACE('',(#472),#498,.F.);
#525=ADVANCED_FACE('',(#473),#499,.T.);
#526=ADVANCED_FACE('',(#474),#500,.T.);
#527=ADVANCED_FACE('',(#475),#501,.T.);
#528=ADVANCED_FACE('',(#476),#502,.F.);
#529=ADVANCED_FACE('',(#477),#503,.T.);
#530=ADVANCED_FACE('',(#478),#504,.T.);
#531=ADVANCED_FACE('',(#479),#505,.T.);
#532=CLOSED_SHELL('',(#506,#507,#508,#509,#510,#511,#512,#513,#514,#515,
#516,#517,#518,#519,#520,#521,#522,#523,#524,#525,#526,#527,#528,#529,#530,
#531));
#533=STYLED_ITEM('',(#534),#541);
#534=PRESENTATION_STYLE_ASSIGNMENT((#535));
#535=SURFACE_STYLE_USAGE(.BOTH.,#536);
#536=SURFACE_SIDE_STYLE('',(#537));
#537=SURFACE_STYLE_FILL_AREA(#538);
#538=FILL_AREA_STYLE('',(#539));
#539=FILL_AREA_STYLE_COLOUR('',#540);
#540=COLOUR_RGB('',0.506983280181885,0.531564235687256,0.550000011920929);
#541=MANIFOLD_SOLID_BREP('',#532);
#542=SHAPE_DEFINITION_REPRESENTATION(#850,#543);
#543=SHAPE_REPRESENTATION('Boxslitexample',(#544),#845);
#544=AXIS2_PLACEMENT_3D('',#697,#571,#572);
#545=AXIS2_PLACEMENT_3D('',#698,#573,#574);
#546=AXIS2_PLACEMENT_3D('',#731,#591,#592);
#547=AXIS2_PLACEMENT_3D('',#756,#605,#606);
#548=AXIS2_PLACEMENT_3D('',#784,#624,#625);
#549=AXIS2_PLACEMENT_3D('',#786,#627,#628);
#550=AXIS2_PLACEMENT_3D('',#788,#630,#631);
#551=AXIS2_PLACEMENT_3D('',#789,#632,#633);
#552=AXIS2_PLACEMENT_3D('',#795,#637,#638);
#553=AXIS2_PLACEMENT_3D('',#797,#640,#641);
#554=AXIS2_PLACEMENT_3D('',#799,#643,#644);
#555=AXIS2_PLACEMENT_3D('',#800,#645,#646);
#556=AXIS2_PLACEMENT_3D('',#806,#650,#651);
#557=AXIS2_PLACEMENT_3D('',#808,#653,#654);
#558=AXIS2_PLACEMENT_3D('',#810,#656,#657);
#559=AXIS2_PLACEMENT_3D('',#811,#658,#659);
#560=AXIS2_PLACEMENT_3D('',#817,#663,#664);
#561=AXIS2_PLACEMENT_3D('',#819,#666,#667);
#562=AXIS2_PLACEMENT_3D('',#821,#669,#670);
#563=AXIS2_PLACEMENT_3D('',#822,#671,#672);
#564=AXIS2_PLACEMENT_3D('',#828,#676,#677);
#565=AXIS2_PLACEMENT_3D('',#830,#679,#680);
#566=AXIS2_PLACEMENT_3D('',#832,#682,#683);
#567=AXIS2_PLACEMENT_3D('',#833,#684,#685);
#568=AXIS2_PLACEMENT_3D('',#839,#689,#690);
#569=AXIS2_PLACEMENT_3D('',#841,#692,#693);
#570=AXIS2_PLACEMENT_3D('',#843,#695,#696);
#571=DIRECTION('',(0.,0.,1.));
#572=DIRECTION('',(1.,0.,0.));
#573=DIRECTION('',(4.62592926927149E-17,1.,0.));
#574=DIRECTION('',(-1.,4.62592926927149E-17,0.));
#575=DIRECTION('',(0.,0.,1.));
#576=DIRECTION('',(-1.,4.62592926927149E-17,0.));
#577=DIRECTION('',(0.,0.,-1.));
#578=DIRECTION('',(1.,-4.62592926927149E-17,0.));
#579=DIRECTION('',(0.,0.,1.));
#580=DIRECTION('',(-1.,4.62592926927149E-17,0.));
#581=DIRECTION('',(0.,0.,-1.));
#582=DIRECTION('',(1.,-4.62592926927149E-17,0.));
#583=DIRECTION('',(0.,0.,-1.));
#584=DIRECTION('',(1.,-4.62592926927149E-17,0.));
#585=DIRECTION('',(0.,0.,-1.));
#586=DIRECTION('',(1.,-4.62592926927149E-17,0.));
#587=DIRECTION('',(0.,0.,1.));
#588=DIRECTION('',(-1.,4.62592926927149E-17,0.));
#589=DIRECTION('',(0.,0.,-1.));
#590=DIRECTION('',(1.,-4.62592926927149E-17,0.));
#591=DIRECTION('',(-4.62592926927149E-17,-1.,0.));
#592=DIRECTION('',(1.,-4.62592926927149E-17,0.));
#593=DIRECTION('',(0.,0.,1.));
#594=DIRECTION('',(1.,-4.62592926927149E-17,0.));
#595=DIRECTION('',(0.,0.,-1.));
#596=DIRECTION('',(-1.,4.62592926927149E-17,0.));
#597=DIRECTION('',(0.,0.,-1.));
#598=DIRECTION('',(-1.,4.62592926927149E-17,0.));
#599=DIRECTION('',(0.,0.,-1.));
#600=DIRECTION('',(-1.,4.62592926927149E-17,0.));
#601=DIRECTION('',(0.,0.,1.));
#602=DIRECTION('',(1.,-4.62592926927149E-17,0.));
#603=DIRECTION('',(0.,0.,-1.));
#604=DIRECTION('',(-1.,4.62592926927149E-17,0.));
#605=DIRECTION('',(0.,0.,1.));
#606=DIRECTION('',(1.,0.,0.));
#607=DIRECTION('',(-1.,0.,0.));
#608=DIRECTION('',(0.,1.,0.));
#609=DIRECTION('',(0.,-1.,0.));
#610=DIRECTION('',(-1.,0.,0.));
#611=DIRECTION('',(0.,1.,0.));
#612=DIRECTION('',(0.,-1.,0.));
#613=DIRECTION('',(0.,1.,0.));
#614=DIRECTION('',(1.,0.,0.));
#615=DIRECTION('',(0.,-1.,0.));
#616=DIRECTION('',(0.,1.,0.));
#617=DIRECTION('',(1.,0.,0.));
#618=DIRECTION('',(0.,-1.,0.));
#619=DIRECTION('',(0.,1.,0.));
#620=DIRECTION('',(1.,0.,0.));
#621=DIRECTION('',(0.,-1.,0.));
#622=DIRECTION('',(0.,1.,0.));
#623=DIRECTION('',(0.,-1.,0.));
#624=DIRECTION('',(1.,0.,0.));
#625=DIRECTION('',(0.,0.,-1.));
#626=DIRECTION('',(0.,-1.,0.));
#627=DIRECTION('',(-1.,0.,0.));
#628=DIRECTION('',(0.,0.,1.));
#629=DIRECTION('',(0.,1.,0.));
#630=DIRECTION('',(0.,0.,1.));
#631=DIRECTION('',(1.,0.,0.));
#632=DIRECTION('',(0.,0.,-1.));
#633=DIRECTION('',(-1.,0.,0.));
#634=DIRECTION('',(0.,1.,0.));
#635=DIRECTION('',(-1.,0.,0.));
#636=DIRECTION('',(0.,-1.,0.));
#637=DIRECTION('',(1.,0.,0.));
#638=DIRECTION('',(0.,0.,-1.));
#639=DIRECTION('',(0.,0.,1.));
#640=DIRECTION('',(-1.,0.,0.));
#641=DIRECTION('',(0.,0.,1.));
#642=DIRECTION('',(0.,0.,1.));
#643=DIRECTION('',(0.,1.,0.));
#644=DIRECTION('',(0.,0.,1.));
#645=DIRECTION('',(0.,0.,-1.));
#646=DIRECTION('',(-1.,0.,0.));
#647=DIRECTION('',(0.,1.,0.));
#648=DIRECTION('',(-1.,0.,0.));
#649=DIRECTION('',(0.,-1.,0.));
#650=DIRECTION('',(1.,0.,0.));
#651=DIRECTION('',(0.,0.,-1.));
#652=DIRECTION('',(0.,0.,1.));
#653=DIRECTION('',(-1.,0.,0.));
#654=DIRECTION('',(0.,0.,1.));
#655=DIRECTION('',(0.,0.,1.));
#656=DIRECTION('',(0.,1.,0.));
#657=DIRECTION('',(0.,0.,1.));
#658=DIRECTION('',(0.,0.,-1.));
#659=DIRECTION('',(-1.,0.,0.));
#660=DIRECTION('',(0.,-1.,0.));
#661=DIRECTION('',(1.,0.,0.));
#662=DIRECTION('',(0.,1.,0.));
#663=DIRECTION('',(1.,0.,0.));
#664=DIRECTION('',(0.,0.,-1.));
#665=DIRECTION('',(0.,0.,1.));
#666=DIRECTION('',(-1.,0.,0.));
#667=DIRECTION('',(0.,0.,1.));
#668=DIRECTION('',(0.,0.,1.));
#669=DIRECTION('',(0.,-1.,0.));
#670=DIRECTION('',(0.,0.,-1.));
#671=DIRECTION('',(0.,0.,-1.));
#672=DIRECTION('',(-1.,0.,0.));
#673=DIRECTION('',(0.,-1.,0.));
#674=DIRECTION('',(1.,0.,0.));
#675=DIRECTION('',(0.,1.,0.));
#676=DIRECTION('',(1.,0.,0.));
#677=DIRECTION('',(0.,0.,-1.));
#678=DIRECTION('',(0.,0.,1.));
#679=DIRECTION('',(-1.,0.,0.));
#680=DIRECTION('',(0.,0.,1.));
#681=DIRECTION('',(0.,0.,1.));
#682=DIRECTION('',(0.,-1.,0.));
#683=DIRECTION('',(0.,0.,-1.));
#684=DIRECTION('',(0.,0.,-1.));
#685=DIRECTION('',(-1.,0.,0.));
#686=DIRECTION('',(0.,-1.,0.));
#687=DIRECTION('',(1.,0.,0.));
#688=DIRECTION('',(0.,1.,0.));
#689=DIRECTION('',(-1.,0.,0.));
#690=DIRECTION('',(0.,0.,1.));
#691=DIRECTION('',(0.,0.,1.));
#692=DIRECTION('',(1.,0.,0.));
#693=DIRECTION('',(0.,0.,-1.));
#694=DIRECTION('',(0.,0.,1.));
#695=DIRECTION('',(0.,-1.,0.));
#696=DIRECTION('',(0.,0.,-1.));
#697=CARTESIAN_POINT('',(0.,0.,0.));
#698=CARTESIAN_POINT('',(-37.5,-25.,20.));
#699=CARTESIAN_POINT('',(2.51633014130764,-25.,20.));
#700=CARTESIAN_POINT('',(2.51633014130764,-25.,5.18569477454734));
#701=CARTESIAN_POINT('',(2.51633014130764,-25.,20.));
#702=CARTESIAN_POINT('',(-37.5,-25.,5.18569477454734));
#703=CARTESIAN_POINT('',(-2.51633014130764,-25.,5.18569477454734));
#704=CARTESIAN_POINT('',(-2.51633014130764,-25.,20.));
#705=CARTESIAN_POINT('',(-2.51633014130764,-25.,20.));
#706=CARTESIAN_POINT('',(-37.5,-25.,20.));
#707=CARTESIAN_POINT('',(-22.9366697120987,-25.,20.));
#708=CARTESIAN_POINT('',(-22.9366697120987,-25.,20.));
#709=CARTESIAN_POINT('',(-22.9366697120987,-25.,5.18569477454734));
#710=CARTESIAN_POINT('',(-37.5,-25.,5.18569477454734));
#711=CARTESIAN_POINT('',(-28.6923704561188,-25.,5.18569477454734));
#712=CARTESIAN_POINT('',(-28.6923704561188,-25.,20.));
#713=CARTESIAN_POINT('',(-28.6923704561188,-25.,20.));
#714=CARTESIAN_POINT('',(-37.5,-25.,20.));
#715=CARTESIAN_POINT('',(-37.5,-25.,20.));
#716=CARTESIAN_POINT('',(-37.5,-25.,20.));
#717=CARTESIAN_POINT('',(-37.5,-25.,0.));
#718=CARTESIAN_POINT('',(-37.5,-25.,0.));
#719=CARTESIAN_POINT('',(37.5,-25.,0.));
#720=CARTESIAN_POINT('',(37.5,-25.,20.));
#721=CARTESIAN_POINT('',(37.5,-25.,20.));
#722=CARTESIAN_POINT('',(-37.5,-25.,20.));
#723=CARTESIAN_POINT('',(25.7907383536415,-25.,20.));
#724=CARTESIAN_POINT('',(25.7907383536414,-25.,20.));
#725=CARTESIAN_POINT('',(25.7907383536415,-25.,5.18569477454734));
#726=CARTESIAN_POINT('',(-37.5,-25.,5.18569477454734));
#727=CARTESIAN_POINT('',(20.0350376096214,-25.,5.18569477454734));
#728=CARTESIAN_POINT('',(20.0350376096214,-25.,20.));
#729=CARTESIAN_POINT('',(20.0350376096214,-25.,20.));
#730=CARTESIAN_POINT('',(-37.5,-25.,20.));
#731=CARTESIAN_POINT('',(37.5,25.,20.));
#732=CARTESIAN_POINT('',(13.9316045664794,25.,20.));
#733=CARTESIAN_POINT('',(13.9316045664794,25.,5.18569477454734));
#734=CARTESIAN_POINT('',(13.9316045664794,25.,20.));
#735=CARTESIAN_POINT('',(37.5,25.,5.18569477454734));
#736=CARTESIAN_POINT('',(19.6873053104995,25.,5.18569477454734));
#737=CARTESIAN_POINT('',(19.6873053104995,25.,20.));
#738=CARTESIAN_POINT('',(19.6873053104995,25.,20.));
#739=CARTESIAN_POINT('',(37.5,25.,20.));
#740=CARTESIAN_POINT('',(37.5,25.,20.));
#741=CARTESIAN_POINT('',(37.5,25.,20.));
#742=CARTESIAN_POINT('',(37.5,25.,0.));
#743=CARTESIAN_POINT('',(37.5,25.,0.));
#744=CARTESIAN_POINT('',(-37.5,25.,0.));
#745=CARTESIAN_POINT('',(-37.5,25.,20.));
#746=CARTESIAN_POINT('',(-37.5,25.,20.));
#747=CARTESIAN_POINT('',(37.5,25.,20.));
#748=CARTESIAN_POINT('',(-2.87785037201004,25.,20.));
#749=CARTESIAN_POINT('',(-2.87785037201004,25.,20.));
#750=CARTESIAN_POINT('',(-2.87785037201004,25.,5.18569477454734));
#751=CARTESIAN_POINT('',(37.5,25.,5.18569477454734));
#752=CARTESIAN_POINT('',(2.87785037201005,25.,5.18569477454734));
#753=CARTESIAN_POINT('',(2.87785037201005,25.,20.));
#754=CARTESIAN_POINT('',(2.87785037201005,25.,20.));
#755=CARTESIAN_POINT('',(37.5,25.,20.));
#756=CARTESIAN_POINT('',(0.,0.,20.));
#757=CARTESIAN_POINT('',(19.6873053104995,13.8817098889345,20.));
#758=CARTESIAN_POINT('',(19.6873053104995,13.8817098889345,20.));
#759=CARTESIAN_POINT('',(13.9316045664794,13.8817098889345,20.));
#760=CARTESIAN_POINT('',(13.9316045664794,13.8817098889345,20.));
#761=CARTESIAN_POINT('',(2.87785037201005,36.1182901110655,20.));
#762=CARTESIAN_POINT('',(2.87785037201005,13.8817098889345,20.));
#763=CARTESIAN_POINT('',(2.87785037201005,13.8817098889345,20.));
#764=CARTESIAN_POINT('',(-2.87785037201004,13.8817098889345,20.));
#765=CARTESIAN_POINT('',(-2.87785037201004,13.8817098889345,20.));
#766=CARTESIAN_POINT('',(-37.5,25.,20.));
#767=CARTESIAN_POINT('',(-28.6923704561188,-41.3623273092446,20.));
#768=CARTESIAN_POINT('',(-28.6923704561188,-19.1257470871137,20.));
#769=CARTESIAN_POINT('',(-28.6923704561188,-19.1257470871137,20.));
#770=CARTESIAN_POINT('',(-22.9366697120987,-19.1257470871137,20.));
#771=CARTESIAN_POINT('',(-22.9366697120987,-19.1257470871137,20.));
#772=CARTESIAN_POINT('',(-2.51633014130764,-31.6698391795689,20.));
#773=CARTESIAN_POINT('',(-2.51633014130764,-18.3301608204311,20.));
#774=CARTESIAN_POINT('',(-2.51633014130764,-18.3301608204311,20.));
#775=CARTESIAN_POINT('',(2.51633014130764,-18.3301608204311,20.));
#776=CARTESIAN_POINT('',(2.51633014130764,-18.3301608204311,20.));
#777=CARTESIAN_POINT('',(20.0350376096214,-27.5545607526283,20.));
#778=CARTESIAN_POINT('',(20.0350376096214,-5.31798053049737,20.));
#779=CARTESIAN_POINT('',(20.0350376096214,-5.31798053049737,20.));
#780=CARTESIAN_POINT('',(25.7907383536415,-5.31798053049737,20.));
#781=CARTESIAN_POINT('',(25.7907383536415,-5.31798053049737,20.));
#782=CARTESIAN_POINT('',(37.5,-25.,20.));
#783=CARTESIAN_POINT('',(19.6873053104995,36.1182901110655,20.));
#784=CARTESIAN_POINT('',(-37.5,25.,20.));
#785=CARTESIAN_POINT('',(-37.5,25.,0.));
#786=CARTESIAN_POINT('',(37.5,-25.,20.));
#787=CARTESIAN_POINT('',(37.5,-25.,0.));
#788=CARTESIAN_POINT('',(0.,0.,0.));
#789=CARTESIAN_POINT('',(0.,0.,5.18569477454734));
#790=CARTESIAN_POINT('',(-2.87785037201004,13.8817098889345,5.18569477454734));
#791=CARTESIAN_POINT('',(-2.87785037201004,13.8817098889345,5.18569477454734));
#792=CARTESIAN_POINT('',(2.87785037201005,13.8817098889345,5.18569477454734));
#793=CARTESIAN_POINT('',(2.87785037201005,13.8817098889345,5.18569477454734));
#794=CARTESIAN_POINT('',(2.87785037201005,36.1182901110655,5.18569477454734));
#795=CARTESIAN_POINT('',(-2.87785037201004,13.8817098889345,5.18569477454734));
#796=CARTESIAN_POINT('',(-2.87785037201004,13.8817098889345,5.18569477454734));
#797=CARTESIAN_POINT('',(2.87785037201005,36.1182901110655,5.18569477454734));
#798=CARTESIAN_POINT('',(2.87785037201005,13.8817098889345,5.18569477454734));
#799=CARTESIAN_POINT('',(2.87785037201005,13.8817098889345,5.18569477454734));
#800=CARTESIAN_POINT('',(0.,0.,5.18569477454734));
#801=CARTESIAN_POINT('',(13.9316045664794,13.8817098889345,5.18569477454734));
#802=CARTESIAN_POINT('',(13.9316045664794,13.8817098889345,5.18569477454734));
#803=CARTESIAN_POINT('',(19.6873053104995,13.8817098889345,5.18569477454734));
#804=CARTESIAN_POINT('',(19.6873053104995,13.8817098889345,5.18569477454734));
#805=CARTESIAN_POINT('',(19.6873053104995,36.1182901110655,5.18569477454734));
#806=CARTESIAN_POINT('',(13.9316045664794,13.8817098889345,5.18569477454734));
#807=CARTESIAN_POINT('',(13.9316045664794,13.8817098889345,5.18569477454734));
#808=CARTESIAN_POINT('',(19.6873053104995,36.1182901110655,5.18569477454734));
#809=CARTESIAN_POINT('',(19.6873053104995,13.8817098889345,5.18569477454734));
#810=CARTESIAN_POINT('',(19.6873053104995,13.8817098889345,5.18569477454734));
#811=CARTESIAN_POINT('',(0.,0.,5.18569477454734));
#812=CARTESIAN_POINT('',(-22.9366697120987,-19.1257470871137,5.18569477454734));
#813=CARTESIAN_POINT('',(-22.9366697120987,-19.1257470871137,5.18569477454734));
#814=CARTESIAN_POINT('',(-28.6923704561188,-19.1257470871137,5.18569477454734));
#815=CARTESIAN_POINT('',(-28.6923704561188,-19.1257470871137,5.18569477454734));
#816=CARTESIAN_POINT('',(-28.6923704561188,-41.3623273092446,5.18569477454734));
#817=CARTESIAN_POINT('',(-28.6923704561188,-41.3623273092446,5.18569477454734));
#818=CARTESIAN_POINT('',(-28.6923704561188,-19.1257470871137,5.18569477454734));
#819=CARTESIAN_POINT('',(-22.9366697120987,-19.1257470871137,5.18569477454734));
#820=CARTESIAN_POINT('',(-22.9366697120987,-19.1257470871137,5.18569477454734));
#821=CARTESIAN_POINT('',(-28.6923704561188,-19.1257470871137,5.18569477454734));
#822=CARTESIAN_POINT('',(0.,0.,5.18569477454734));
#823=CARTESIAN_POINT('',(25.7907383536415,-5.31798053049737,5.18569477454734));
#824=CARTESIAN_POINT('',(25.7907383536415,-5.31798053049737,5.18569477454734));
#825=CARTESIAN_POINT('',(20.0350376096214,-5.31798053049737,5.18569477454734));
#826=CARTESIAN_POINT('',(20.0350376096214,-5.31798053049737,5.18569477454734));
#827=CARTESIAN_POINT('',(20.0350376096214,-27.5545607526283,5.18569477454734));
#828=CARTESIAN_POINT('',(20.0350376096214,-27.5545607526283,5.18569477454734));
#829=CARTESIAN_POINT('',(20.0350376096214,-5.31798053049737,5.18569477454734));
#830=CARTESIAN_POINT('',(25.7907383536415,-5.31798053049737,5.18569477454734));
#831=CARTESIAN_POINT('',(25.7907383536415,-5.31798053049737,5.18569477454734));
#832=CARTESIAN_POINT('',(20.0350376096214,-5.31798053049737,5.18569477454734));
#833=CARTESIAN_POINT('',(0.,0.,5.18569477454734));
#834=CARTESIAN_POINT('',(2.51633014130764,-18.3301608204311,5.18569477454734));
#835=CARTESIAN_POINT('',(2.51633014130764,-18.3301608204311,5.18569477454734));
#836=CARTESIAN_POINT('',(-2.51633014130764,-18.3301608204311,5.18569477454734));
#837=CARTESIAN_POINT('',(-2.51633014130764,-18.3301608204311,5.18569477454734));
#838=CARTESIAN_POINT('',(-2.51633014130764,-31.6698391795689,5.18569477454734));
#839=CARTESIAN_POINT('',(2.51633014130764,-18.3301608204311,5.18569477454734));
#840=CARTESIAN_POINT('',(2.51633014130764,-18.3301608204311,5.18569477454734));
#841=CARTESIAN_POINT('',(-2.51633014130764,-31.6698391795689,5.18569477454734));
#842=CARTESIAN_POINT('',(-2.51633014130764,-18.3301608204311,5.18569477454734));
#843=CARTESIAN_POINT('',(-2.51633014130764,-18.3301608204311,5.18569477454734));
#844=MECHANICAL_DESIGN_GEOMETRIC_PRESENTATION_REPRESENTATION('',(#533),
#845);
#845=(
GEOMETRIC_REPRESENTATION_CONTEXT(3)
GLOBAL_UNCERTAINTY_ASSIGNED_CONTEXT((#846))
GLOBAL_UNIT_ASSIGNED_CONTEXT((#849,#848,#847))
REPRESENTATION_CONTEXT('Boxslitexample','TOP_LEVEL_ASSEMBLY_PART')
);
#846=UNCERTAINTY_MEASURE_WITH_UNIT(LENGTH_MEASURE(0.005),#849,
'DISTANCE_ACCURACY_VALUE','Maximum Tolerance applied to model');
#847=(
NAMED_UNIT(*)
SI_UNIT($,.STERADIAN.)
SOLID_ANGLE_UNIT()
);
#848=(
NAMED_UNIT(*)
PLANE_ANGLE_UNIT()
SI_UNIT($,.RADIAN.)
);
#849=(
LENGTH_UNIT()
NAMED_UNIT(*)
SI_UNIT(.MILLI.,.METRE.)
);
#850=PRODUCT_DEFINITION_SHAPE('','',#851);
#851=PRODUCT_DEFINITION('','',#853,#852);
#852=PRODUCT_DEFINITION_CONTEXT('',#859,'design');
#853=PRODUCT_DEFINITION_FORMATION_WITH_SPECIFIED_SOURCE('','',#855,
 .NOT_KNOWN.);
#854=PRODUCT_RELATED_PRODUCT_CATEGORY('','',(#855));
#855=PRODUCT('Boxslitexample','Boxslitexample','Boxslitexample',(#857));
#856=PRODUCT_CATEGORY('','');
#857=PRODUCT_CONTEXT('',#859,'mechanical');
#858=APPLICATION_PROTOCOL_DEFINITION('international standard',
'automotive_design',2010,#859);
#859=APPLICATION_CONTEXT(
'core data for automotive mechanical design processes');
ENDSEC;
END-ISO-10303-21;
