ISO-10303-21;
HEADER;
/* Generated by software containing ST-Developer
 * from STEP Tools, Inc. (www.steptools.com) 
 */
/* OPTION: strings as raw bytes, not using required /X/ escapes */

FILE_DESCRIPTION(
/* description */ ('Unknown'),
/* implementation_level */ '2;1');

FILE_NAME(
/* name */ 'slit6',
/* time_stamp */ '2025-10-18T18:10:49+02:00',
/* author */ ('Unknown'),
/* organization */ ('Unknown'),
/* preprocessor_version */ 'ST-DEVELOPER v19.4',
/* originating_system */ 'Solid Edge',
/* authorisation */ 'Unknown');

FILE_SCHEMA (('AUTOMOTIVE_DESIGN {1 0 10303 214 3 1 1}'));
ENDSEC;

DATA;
#10=PROPERTY_DEFINITION_REPRESENTATION(#14,#12);
#11=PROPERTY_DEFINITION_REPRESENTATION(#15,#13);
#12=REPRESENTATION('',(#16),#449);
#13=REPRESENTATION('',(#17),#449);
#14=PROPERTY_DEFINITION('pmi validation property','',#454);
#15=PROPERTY_DEFINITION('pmi validation property','',#454);
#16=VALUE_REPRESENTATION_ITEM('number of annotations',COUNT_MEASURE(0.));
#17=VALUE_REPRESENTATION_ITEM('number of views',COUNT_MEASURE(0.));
#18=SHAPE_REPRESENTATION_RELATIONSHIP('','',#291,#19);
#19=ADVANCED_BREP_SHAPE_REPRESENTATION('',(#289),#449);
#20=ORIENTED_EDGE('',*,*,#92,.T.);
#21=ORIENTED_EDGE('',*,*,#93,.T.);
#22=ORIENTED_EDGE('',*,*,#94,.T.);
#23=ORIENTED_EDGE('',*,*,#95,.T.);
#24=ORIENTED_EDGE('',*,*,#96,.T.);
#25=ORIENTED_EDGE('',*,*,#97,.T.);
#26=ORIENTED_EDGE('',*,*,#98,.T.);
#27=ORIENTED_EDGE('',*,*,#99,.T.);
#28=ORIENTED_EDGE('',*,*,#100,.T.);
#29=ORIENTED_EDGE('',*,*,#101,.T.);
#30=ORIENTED_EDGE('',*,*,#102,.T.);
#31=ORIENTED_EDGE('',*,*,#103,.T.);
#32=ORIENTED_EDGE('',*,*,#104,.F.);
#33=ORIENTED_EDGE('',*,*,#105,.F.);
#34=ORIENTED_EDGE('',*,*,#106,.F.);
#35=ORIENTED_EDGE('',*,*,#107,.F.);
#36=ORIENTED_EDGE('',*,*,#108,.F.);
#37=ORIENTED_EDGE('',*,*,#109,.F.);
#38=ORIENTED_EDGE('',*,*,#110,.F.);
#39=ORIENTED_EDGE('',*,*,#111,.F.);
#40=ORIENTED_EDGE('',*,*,#112,.F.);
#41=ORIENTED_EDGE('',*,*,#113,.F.);
#42=ORIENTED_EDGE('',*,*,#114,.F.);
#43=ORIENTED_EDGE('',*,*,#115,.F.);
#44=ORIENTED_EDGE('',*,*,#116,.F.);
#45=ORIENTED_EDGE('',*,*,#115,.T.);
#46=ORIENTED_EDGE('',*,*,#117,.F.);
#47=ORIENTED_EDGE('',*,*,#94,.F.);
#48=ORIENTED_EDGE('',*,*,#118,.F.);
#49=ORIENTED_EDGE('',*,*,#102,.F.);
#50=ORIENTED_EDGE('',*,*,#119,.T.);
#51=ORIENTED_EDGE('',*,*,#107,.T.);
#52=ORIENTED_EDGE('',*,*,#120,.F.);
#53=ORIENTED_EDGE('',*,*,#96,.F.);
#54=ORIENTED_EDGE('',*,*,#121,.T.);
#55=ORIENTED_EDGE('',*,*,#113,.T.);
#56=ORIENTED_EDGE('',*,*,#122,.F.);
#57=ORIENTED_EDGE('',*,*,#109,.T.);
#58=ORIENTED_EDGE('',*,*,#123,.F.);
#59=ORIENTED_EDGE('',*,*,#100,.F.);
#60=ORIENTED_EDGE('',*,*,#114,.T.);
#61=ORIENTED_EDGE('',*,*,#121,.F.);
#62=ORIENTED_EDGE('',*,*,#95,.F.);
#63=ORIENTED_EDGE('',*,*,#117,.T.);
#64=ORIENTED_EDGE('',*,*,#108,.T.);
#65=ORIENTED_EDGE('',*,*,#119,.F.);
#66=ORIENTED_EDGE('',*,*,#101,.F.);
#67=ORIENTED_EDGE('',*,*,#123,.T.);
#68=ORIENTED_EDGE('',*,*,#120,.T.);
#69=ORIENTED_EDGE('',*,*,#112,.T.);
#70=ORIENTED_EDGE('',*,*,#124,.T.);
#71=ORIENTED_EDGE('',*,*,#97,.F.);
#72=ORIENTED_EDGE('',*,*,#111,.T.);
#73=ORIENTED_EDGE('',*,*,#125,.T.);
#74=ORIENTED_EDGE('',*,*,#98,.F.);
#75=ORIENTED_EDGE('',*,*,#124,.F.);
#76=ORIENTED_EDGE('',*,*,#122,.T.);
#77=ORIENTED_EDGE('',*,*,#99,.F.);
#78=ORIENTED_EDGE('',*,*,#125,.F.);
#79=ORIENTED_EDGE('',*,*,#110,.T.);
#80=ORIENTED_EDGE('',*,*,#104,.T.);
#81=ORIENTED_EDGE('',*,*,#116,.T.);
#82=ORIENTED_EDGE('',*,*,#93,.F.);
#83=ORIENTED_EDGE('',*,*,#126,.F.);
#84=ORIENTED_EDGE('',*,*,#106,.T.);
#85=ORIENTED_EDGE('',*,*,#127,.T.);
#86=ORIENTED_EDGE('',*,*,#103,.F.);
#87=ORIENTED_EDGE('',*,*,#118,.T.);
#88=ORIENTED_EDGE('',*,*,#105,.T.);
#89=ORIENTED_EDGE('',*,*,#126,.T.);
#90=ORIENTED_EDGE('',*,*,#92,.F.);
#91=ORIENTED_EDGE('',*,*,#127,.F.);
#92=EDGE_CURVE('',#128,#129,#152,.T.);
#93=EDGE_CURVE('',#129,#130,#153,.T.);
#94=EDGE_CURVE('',#130,#131,#154,.T.);
#95=EDGE_CURVE('',#131,#132,#155,.T.);
#96=EDGE_CURVE('',#132,#133,#156,.T.);
#97=EDGE_CURVE('',#133,#134,#157,.T.);
#98=EDGE_CURVE('',#134,#135,#158,.T.);
#99=EDGE_CURVE('',#135,#136,#159,.T.);
#100=EDGE_CURVE('',#136,#137,#160,.T.);
#101=EDGE_CURVE('',#137,#138,#161,.T.);
#102=EDGE_CURVE('',#138,#139,#162,.T.);
#103=EDGE_CURVE('',#139,#128,#163,.T.);
#104=EDGE_CURVE('',#140,#141,#164,.T.);
#105=EDGE_CURVE('',#142,#140,#165,.T.);
#106=EDGE_CURVE('',#143,#142,#166,.T.);
#107=EDGE_CURVE('',#144,#143,#167,.T.);
#108=EDGE_CURVE('',#145,#144,#168,.T.);
#109=EDGE_CURVE('',#146,#145,#169,.T.);
#110=EDGE_CURVE('',#147,#146,#170,.T.);
#111=EDGE_CURVE('',#148,#147,#171,.T.);
#112=EDGE_CURVE('',#149,#148,#172,.T.);
#113=EDGE_CURVE('',#150,#149,#173,.T.);
#114=EDGE_CURVE('',#151,#150,#174,.T.);
#115=EDGE_CURVE('',#141,#151,#175,.T.);
#116=EDGE_CURVE('',#141,#130,#176,.T.);
#117=EDGE_CURVE('',#131,#151,#177,.T.);
#118=EDGE_CURVE('',#139,#143,#178,.T.);
#119=EDGE_CURVE('',#138,#144,#179,.T.);
#120=EDGE_CURVE('',#133,#149,#180,.T.);
#121=EDGE_CURVE('',#132,#150,#181,.T.);
#122=EDGE_CURVE('',#146,#136,#182,.T.);
#123=EDGE_CURVE('',#137,#145,#183,.T.);
#124=EDGE_CURVE('',#148,#134,#184,.T.);
#125=EDGE_CURVE('',#147,#135,#185,.T.);
#126=EDGE_CURVE('',#140,#129,#186,.T.);
#127=EDGE_CURVE('',#142,#128,#187,.T.);
#128=VERTEX_POINT('',#376);
#129=VERTEX_POINT('',#377);
#130=VERTEX_POINT('',#379);
#131=VERTEX_POINT('',#381);
#132=VERTEX_POINT('',#383);
#133=VERTEX_POINT('',#385);
#134=VERTEX_POINT('',#387);
#135=VERTEX_POINT('',#389);
#136=VERTEX_POINT('',#391);
#137=VERTEX_POINT('',#393);
#138=VERTEX_POINT('',#395);
#139=VERTEX_POINT('',#397);
#140=VERTEX_POINT('',#401);
#141=VERTEX_POINT('',#402);
#142=VERTEX_POINT('',#404);
#143=VERTEX_POINT('',#406);
#144=VERTEX_POINT('',#408);
#145=VERTEX_POINT('',#410);
#146=VERTEX_POINT('',#412);
#147=VERTEX_POINT('',#414);
#148=VERTEX_POINT('',#416);
#149=VERTEX_POINT('',#418);
#150=VERTEX_POINT('',#420);
#151=VERTEX_POINT('',#422);
#152=LINE('',#375,#188);
#153=LINE('',#378,#189);
#154=LINE('',#380,#190);
#155=LINE('',#382,#191);
#156=LINE('',#384,#192);
#157=LINE('',#386,#193);
#158=LINE('',#388,#194);
#159=LINE('',#390,#195);
#160=LINE('',#392,#196);
#161=LINE('',#394,#197);
#162=LINE('',#396,#198);
#163=LINE('',#398,#199);
#164=LINE('',#400,#200);
#165=LINE('',#403,#201);
#166=LINE('',#405,#202);
#167=LINE('',#407,#203);
#168=LINE('',#409,#204);
#169=LINE('',#411,#205);
#170=LINE('',#413,#206);
#171=LINE('',#415,#207);
#172=LINE('',#417,#208);
#173=LINE('',#419,#209);
#174=LINE('',#421,#210);
#175=LINE('',#423,#211);
#176=LINE('',#425,#212);
#177=LINE('',#426,#213);
#178=LINE('',#428,#214);
#179=LINE('',#429,#215);
#180=LINE('',#431,#216);
#181=LINE('',#432,#217);
#182=LINE('',#434,#218);
#183=LINE('',#435,#219);
#184=LINE('',#439,#220);
#185=LINE('',#441,#221);
#186=LINE('',#444,#222);
#187=LINE('',#446,#223);
#188=VECTOR('',#311,1000.);
#189=VECTOR('',#312,1000.);
#190=VECTOR('',#313,1000.);
#191=VECTOR('',#314,1000.);
#192=VECTOR('',#315,1000.);
#193=VECTOR('',#316,1000.);
#194=VECTOR('',#317,1000.);
#195=VECTOR('',#318,1000.);
#196=VECTOR('',#319,1000.);
#197=VECTOR('',#320,1000.);
#198=VECTOR('',#321,1000.);
#199=VECTOR('',#322,1000.);
#200=VECTOR('',#325,1000.);
#201=VECTOR('',#326,1000.);
#202=VECTOR('',#327,1000.);
#203=VECTOR('',#328,1000.);
#204=VECTOR('',#329,1000.);
#205=VECTOR('',#330,1000.);
#206=VECTOR('',#331,1000.);
#207=VECTOR('',#332,1000.);
#208=VECTOR('',#333,1000.);
#209=VECTOR('',#334,1000.);
#210=VECTOR('',#335,1000.);
#211=VECTOR('',#336,1000.);
#212=VECTOR('',#339,1000.);
#213=VECTOR('',#340,1000.);
#214=VECTOR('',#343,1000.);
#215=VECTOR('',#344,1000.);
#216=VECTOR('',#347,1000.);
#217=VECTOR('',#348,1000.);
#218=VECTOR('',#351,1000.);
#219=VECTOR('',#352,1000.);
#220=VECTOR('',#359,1000.);
#221=VECTOR('',#362,1000.);
#222=VECTOR('',#367,1000.);
#223=VECTOR('',#370,1000.);
#224=EDGE_LOOP('',(#20,#21,#22,#23,#24,#25,#26,#27,#28,#29,#30,#31));
#225=EDGE_LOOP('',(#32,#33,#34,#35,#36,#37,#38,#39,#40,#41,#42,#43));
#226=EDGE_LOOP('',(#44,#45,#46,#47));
#227=EDGE_LOOP('',(#48,#49,#50,#51));
#228=EDGE_LOOP('',(#52,#53,#54,#55));
#229=EDGE_LOOP('',(#56,#57,#58,#59));
#230=EDGE_LOOP('',(#60,#61,#62,#63));
#231=EDGE_LOOP('',(#64,#65,#66,#67));
#232=EDGE_LOOP('',(#68,#69,#70,#71));
#233=EDGE_LOOP('',(#72,#73,#74,#75));
#234=EDGE_LOOP('',(#76,#77,#78,#79));
#235=EDGE_LOOP('',(#80,#81,#82,#83));
#236=EDGE_LOOP('',(#84,#85,#86,#87));
#237=EDGE_LOOP('',(#88,#89,#90,#91));
#238=FACE_BOUND('',#224,.T.);
#239=FACE_BOUND('',#225,.T.);
#240=FACE_BOUND('',#226,.T.);
#241=FACE_BOUND('',#227,.T.);
#242=FACE_BOUND('',#228,.T.);
#243=FACE_BOUND('',#229,.T.);
#244=FACE_BOUND('',#230,.T.);
#245=FACE_BOUND('',#231,.T.);
#246=FACE_BOUND('',#232,.T.);
#247=FACE_BOUND('',#233,.T.);
#248=FACE_BOUND('',#234,.T.);
#249=FACE_BOUND('',#235,.T.);
#250=FACE_BOUND('',#236,.T.);
#251=FACE_BOUND('',#237,.T.);
#252=PLANE('',#293);
#253=PLANE('',#294);
#254=PLANE('',#295);
#255=PLANE('',#296);
#256=PLANE('',#297);
#257=PLANE('',#298);
#258=PLANE('',#299);
#259=PLANE('',#300);
#260=PLANE('',#301);
#261=PLANE('',#302);
#262=PLANE('',#303);
#263=PLANE('',#304);
#264=PLANE('',#305);
#265=PLANE('',#306);
#266=ADVANCED_FACE('',(#238),#252,.T.);
#267=ADVANCED_FACE('',(#239),#253,.F.);
#268=ADVANCED_FACE('',(#240),#254,.F.);
#269=ADVANCED_FACE('',(#241),#255,.F.);
#270=ADVANCED_FACE('',(#242),#256,.F.);
#271=ADVANCED_FACE('',(#243),#257,.F.);
#272=ADVANCED_FACE('',(#244),#258,.F.);
#273=ADVANCED_FACE('',(#245),#259,.F.);
#274=ADVANCED_FACE('',(#246),#260,.T.);
#275=ADVANCED_FACE('',(#247),#261,.T.);
#276=ADVANCED_FACE('',(#248),#262,.T.);
#277=ADVANCED_FACE('',(#249),#263,.T.);
#278=ADVANCED_FACE('',(#250),#264,.T.);
#279=ADVANCED_FACE('',(#251),#265,.T.);
#280=CLOSED_SHELL('',(#266,#267,#268,#269,#270,#271,#272,#273,#274,#275,
#276,#277,#278,#279));
#281=STYLED_ITEM('',(#282),#289);
#282=PRESENTATION_STYLE_ASSIGNMENT((#283));
#283=SURFACE_STYLE_USAGE(.BOTH.,#284);
#284=SURFACE_SIDE_STYLE('',(#285));
#285=SURFACE_STYLE_FILL_AREA(#286);
#286=FILL_AREA_STYLE('',(#287));
#287=FILL_AREA_STYLE_COLOUR('',#288);
#288=COLOUR_RGB('',0.506983280181885,0.531564235687256,0.550000011920929);
#289=MANIFOLD_SOLID_BREP('',#280);
#290=SHAPE_DEFINITION_REPRESENTATION(#454,#291);
#291=SHAPE_REPRESENTATION('Boxslitexample',(#292),#449);
#292=AXIS2_PLACEMENT_3D('',#373,#307,#308);
#293=AXIS2_PLACEMENT_3D('',#374,#309,#310);
#294=AXIS2_PLACEMENT_3D('',#399,#323,#324);
#295=AXIS2_PLACEMENT_3D('',#424,#337,#338);
#296=AXIS2_PLACEMENT_3D('',#427,#341,#342);
#297=AXIS2_PLACEMENT_3D('',#430,#345,#346);
#298=AXIS2_PLACEMENT_3D('',#433,#349,#350);
#299=AXIS2_PLACEMENT_3D('',#436,#353,#354);
#300=AXIS2_PLACEMENT_3D('',#437,#355,#356);
#301=AXIS2_PLACEMENT_3D('',#438,#357,#358);
#302=AXIS2_PLACEMENT_3D('',#440,#360,#361);
#303=AXIS2_PLACEMENT_3D('',#442,#363,#364);
#304=AXIS2_PLACEMENT_3D('',#443,#365,#366);
#305=AXIS2_PLACEMENT_3D('',#445,#368,#369);
#306=AXIS2_PLACEMENT_3D('',#447,#371,#372);
#307=DIRECTION('',(0.,0.,1.));
#308=DIRECTION('',(1.,0.,0.));
#309=DIRECTION('',(0.,0.,1.));
#310=DIRECTION('',(1.,0.,0.));
#311=DIRECTION('',(-1.,0.,0.));
#312=DIRECTION('',(0.,1.,0.));
#313=DIRECTION('',(-1.,4.62592926927149E-17,0.));
#314=DIRECTION('',(0.,-1.,0.));
#315=DIRECTION('',(1.,-4.62592926927149E-17,0.));
#316=DIRECTION('',(0.,1.,0.));
#317=DIRECTION('',(1.,0.,0.));
#318=DIRECTION('',(0.,-1.,0.));
#319=DIRECTION('',(1.,-4.62592926927149E-17,0.));
#320=DIRECTION('',(0.,1.,0.));
#321=DIRECTION('',(-1.,4.62592926927149E-17,0.));
#322=DIRECTION('',(0.,-1.,0.));
#323=DIRECTION('',(0.,0.,1.));
#324=DIRECTION('',(1.,0.,0.));
#325=DIRECTION('',(0.,1.,0.));
#326=DIRECTION('',(-1.,0.,0.));
#327=DIRECTION('',(0.,-1.,0.));
#328=DIRECTION('',(-1.,4.62592926927149E-17,0.));
#329=DIRECTION('',(0.,1.,0.));
#330=DIRECTION('',(1.,-4.62592926927149E-17,0.));
#331=DIRECTION('',(0.,-1.,0.));
#332=DIRECTION('',(1.,0.,0.));
#333=DIRECTION('',(0.,1.,0.));
#334=DIRECTION('',(1.,-4.62592926927149E-17,0.));
#335=DIRECTION('',(0.,-1.,0.));
#336=DIRECTION('',(-1.,4.62592926927149E-17,0.));
#337=DIRECTION('',(-4.62592926927149E-17,-1.,0.));
#338=DIRECTION('',(1.,-4.62592926927149E-17,0.));
#339=DIRECTION('',(0.,0.,1.));
#340=DIRECTION('',(0.,0.,-1.));
#341=DIRECTION('',(-4.62592926927149E-17,-1.,0.));
#342=DIRECTION('',(1.,-4.62592926927149E-17,0.));
#343=DIRECTION('',(0.,0.,-1.));
#344=DIRECTION('',(0.,0.,-1.));
#345=DIRECTION('',(4.62592926927149E-17,1.,0.));
#346=DIRECTION('',(-1.,4.62592926927149E-17,0.));
#347=DIRECTION('',(0.,0.,-1.));
#348=DIRECTION('',(0.,0.,-1.));
#349=DIRECTION('',(4.62592926927149E-17,1.,0.));
#350=DIRECTION('',(-1.,4.62592926927149E-17,0.));
#351=DIRECTION('',(0.,0.,1.));
#352=DIRECTION('',(0.,0.,-1.));
#353=DIRECTION('',(1.,0.,0.));
#354=DIRECTION('',(0.,0.,-1.));
#355=DIRECTION('',(-1.,0.,0.));
#356=DIRECTION('',(0.,0.,1.));
#357=DIRECTION('',(1.,0.,0.));
#358=DIRECTION('',(0.,0.,-1.));
#359=DIRECTION('',(0.,0.,1.));
#360=DIRECTION('',(0.,-1.,0.));
#361=DIRECTION('',(0.,0.,-1.));
#362=DIRECTION('',(0.,0.,1.));
#363=DIRECTION('',(-1.,0.,0.));
#364=DIRECTION('',(0.,0.,1.));
#365=DIRECTION('',(1.,0.,0.));
#366=DIRECTION('',(0.,0.,-1.));
#367=DIRECTION('',(0.,0.,1.));
#368=DIRECTION('',(-1.,0.,0.));
#369=DIRECTION('',(0.,0.,1.));
#370=DIRECTION('',(0.,0.,1.));
#371=DIRECTION('',(0.,1.,0.));
#372=DIRECTION('',(0.,0.,1.));
#373=CARTESIAN_POINT('',(0.,0.,0.));
#374=CARTESIAN_POINT('',(0.,0.,20.));
#375=CARTESIAN_POINT('',(2.87785037201005,13.8817098889345,20.));
#376=CARTESIAN_POINT('',(2.87785037201005,13.8817098889345,20.));
#377=CARTESIAN_POINT('',(-2.87785037201004,13.8817098889345,20.));
#378=CARTESIAN_POINT('',(-2.87785037201004,13.8817098889345,20.));
#379=CARTESIAN_POINT('',(-2.87785037201004,25.,20.));
#380=CARTESIAN_POINT('',(37.5,25.,20.));
#381=CARTESIAN_POINT('',(-37.5,25.,20.));
#382=CARTESIAN_POINT('',(-37.5,25.,20.));
#383=CARTESIAN_POINT('',(-37.5,-25.,20.));
#384=CARTESIAN_POINT('',(-37.5,-25.,20.));
#385=CARTESIAN_POINT('',(-2.51633014130764,-25.,20.));
#386=CARTESIAN_POINT('',(-2.51633014130764,-31.6698391795689,20.));
#387=CARTESIAN_POINT('',(-2.51633014130764,-18.3301608204311,20.));
#388=CARTESIAN_POINT('',(-2.51633014130764,-18.3301608204311,20.));
#389=CARTESIAN_POINT('',(2.51633014130764,-18.3301608204311,20.));
#390=CARTESIAN_POINT('',(2.51633014130764,-18.3301608204311,20.));
#391=CARTESIAN_POINT('',(2.51633014130764,-25.,20.));
#392=CARTESIAN_POINT('',(-37.5,-25.,20.));
#393=CARTESIAN_POINT('',(37.5,-25.,20.));
#394=CARTESIAN_POINT('',(37.5,-25.,20.));
#395=CARTESIAN_POINT('',(37.5,25.,20.));
#396=CARTESIAN_POINT('',(37.5,25.,20.));
#397=CARTESIAN_POINT('',(2.87785037201005,25.,20.));
#398=CARTESIAN_POINT('',(2.87785037201005,36.1182901110655,20.));
#399=CARTESIAN_POINT('',(0.,0.,0.));
#400=CARTESIAN_POINT('',(-2.87785037201004,0.,0.));
#401=CARTESIAN_POINT('',(-2.87785037201004,13.8817098889345,-2.77555756156289E-14));
#402=CARTESIAN_POINT('',(-2.87785037201004,25.,0.));
#403=CARTESIAN_POINT('',(0.,13.8817098889345,0.));
#404=CARTESIAN_POINT('',(2.87785037201005,13.8817098889345,-2.77555756156289E-14));
#405=CARTESIAN_POINT('',(2.87785037201005,0.,0.));
#406=CARTESIAN_POINT('',(2.87785037201005,25.,0.));
#407=CARTESIAN_POINT('',(37.5,25.,0.));
#408=CARTESIAN_POINT('',(37.5,25.,0.));
#409=CARTESIAN_POINT('',(37.5,-25.,0.));
#410=CARTESIAN_POINT('',(37.5,-25.,0.));
#411=CARTESIAN_POINT('',(-37.5,-25.,0.));
#412=CARTESIAN_POINT('',(2.51633014130764,-25.,0.));
#413=CARTESIAN_POINT('',(2.51633014130764,0.,0.));
#414=CARTESIAN_POINT('',(2.51633014130764,-18.3301608204311,-2.77555756156289E-14));
#415=CARTESIAN_POINT('',(0.,-18.3301608204311,0.));
#416=CARTESIAN_POINT('',(-2.51633014130764,-18.3301608204311,-2.77555756156289E-14));
#417=CARTESIAN_POINT('',(-2.51633014130764,0.,0.));
#418=CARTESIAN_POINT('',(-2.51633014130764,-25.,0.));
#419=CARTESIAN_POINT('',(-37.5,-25.,0.));
#420=CARTESIAN_POINT('',(-37.5,-25.,0.));
#421=CARTESIAN_POINT('',(-37.5,25.,0.));
#422=CARTESIAN_POINT('',(-37.5,25.,0.));
#423=CARTESIAN_POINT('',(37.5,25.,0.));
#424=CARTESIAN_POINT('',(37.5,25.,20.));
#425=CARTESIAN_POINT('',(-2.87785037201004,25.,20.));
#426=CARTESIAN_POINT('',(-37.5,25.,20.));
#427=CARTESIAN_POINT('',(37.5,25.,20.));
#428=CARTESIAN_POINT('',(2.87785037201005,25.,20.));
#429=CARTESIAN_POINT('',(37.5,25.,20.));
#430=CARTESIAN_POINT('',(-37.5,-25.,20.));
#431=CARTESIAN_POINT('',(-2.51633014130764,-25.,20.));
#432=CARTESIAN_POINT('',(-37.5,-25.,20.));
#433=CARTESIAN_POINT('',(-37.5,-25.,20.));
#434=CARTESIAN_POINT('',(2.51633014130764,-25.,20.));
#435=CARTESIAN_POINT('',(37.5,-25.,20.));
#436=CARTESIAN_POINT('',(-37.5,25.,20.));
#437=CARTESIAN_POINT('',(37.5,-25.,20.));
#438=CARTESIAN_POINT('',(-2.51633014130764,-31.6698391795689,-76.1065589470261));
#439=CARTESIAN_POINT('',(-2.51633014130764,-18.3301608204311,-76.1065589470261));
#440=CARTESIAN_POINT('',(-2.51633014130764,-18.3301608204311,-76.1065589470261));
#441=CARTESIAN_POINT('',(2.51633014130764,-18.3301608204311,-76.1065589470261));
#442=CARTESIAN_POINT('',(2.51633014130764,-18.3301608204311,-76.1065589470261));
#443=CARTESIAN_POINT('',(-2.87785037201004,13.8817098889345,-78.7949664006237));
#444=CARTESIAN_POINT('',(-2.87785037201004,13.8817098889345,-78.7949664006237));
#445=CARTESIAN_POINT('',(2.87785037201005,36.1182901110655,-78.7949664006237));
#446=CARTESIAN_POINT('',(2.87785037201005,13.8817098889345,-78.7949664006237));
#447=CARTESIAN_POINT('',(2.87785037201005,13.8817098889345,-78.7949664006237));
#448=MECHANICAL_DESIGN_GEOMETRIC_PRESENTATION_REPRESENTATION('',(#281),
#449);
#449=(
GEOMETRIC_REPRESENTATION_CONTEXT(3)
GLOBAL_UNCERTAINTY_ASSIGNED_CONTEXT((#450))
GLOBAL_UNIT_ASSIGNED_CONTEXT((#453,#452,#451))
REPRESENTATION_CONTEXT('Boxslitexample','TOP_LEVEL_ASSEMBLY_PART')
);
#450=UNCERTAINTY_MEASURE_WITH_UNIT(LENGTH_MEASURE(0.005),#453,
'DISTANCE_ACCURACY_VALUE','Maximum Tolerance applied to model');
#451=(
NAMED_UNIT(*)
SI_UNIT($,.STERADIAN.)
SOLID_ANGLE_UNIT()
);
#452=(
NAMED_UNIT(*)
PLANE_ANGLE_UNIT()
SI_UNIT($,.RADIAN.)
);
#453=(
LENGTH_UNIT()
NAMED_UNIT(*)
SI_UNIT(.MILLI.,.METRE.)
);
#454=PRODUCT_DEFINITION_SHAPE('','',#455);
#455=PRODUCT_DEFINITION('','',#457,#456);
#456=PRODUCT_DEFINITION_CONTEXT('',#463,'design');
#457=PRODUCT_DEFINITION_FORMATION_WITH_SPECIFIED_SOURCE('','',#459,
 .NOT_KNOWN.);
#458=PRODUCT_RELATED_PRODUCT_CATEGORY('','',(#459));
#459=PRODUCT('Boxslitexample','Boxslitexample','Boxslitexample',(#461));
#460=PRODUCT_CATEGORY('','');
#461=PRODUCT_CONTEXT('',#463,'mechanical');
#462=APPLICATION_PROTOCOL_DEFINITION('international standard',
'automotive_design',2010,#463);
#463=APPLICATION_CONTEXT(
'core data for automotive mechanical design processes');
ENDSEC;
END-ISO-10303-21;
