ISO-10303-21;
HEADER;
/* Generated by software containing ST-Developer
 * from STEP Tools, Inc. (www.steptools.com) 
 */
/* OPTION: strings as raw bytes, not using required /X/ escapes */

FILE_DESCRIPTION(
/* description */ ('Unknown'),
/* implementation_level */ '2;1');

FILE_NAME(
/* name */ 'slit5',
/* time_stamp */ '2025-10-18T18:07:47+02:00',
/* author */ ('Unknown'),
/* organization */ ('Unknown'),
/* preprocessor_version */ 'ST-DEVELOPER v19.4',
/* originating_system */ 'Solid Edge',
/* authorisation */ 'Unknown');

FILE_SCHEMA (('AUTOMOTIVE_DESIGN {1 0 10303 214 3 1 1}'));
ENDSEC;

DATA;
#10=PROPERTY_DEFINITION_REPRESENTATION(#14,#12);
#11=PROPERTY_DEFINITION_REPRESENTATION(#15,#13);
#12=REPRESENTATION('',(#16),#317);
#13=REPRESENTATION('',(#17),#317);
#14=PROPERTY_DEFINITION('pmi validation property','',#322);
#15=PROPERTY_DEFINITION('pmi validation property','',#322);
#16=VALUE_REPRESENTATION_ITEM('number of annotations',COUNT_MEASURE(0.));
#17=VALUE_REPRESENTATION_ITEM('number of views',COUNT_MEASURE(0.));
#18=SHAPE_REPRESENTATION_RELATIONSHIP('','',#207,#19);
#19=ADVANCED_BREP_SHAPE_REPRESENTATION('',(#205),#317);
#20=ORIENTED_EDGE('',*,*,#68,.T.);
#21=ORIENTED_EDGE('',*,*,#69,.T.);
#22=ORIENTED_EDGE('',*,*,#70,.F.);
#23=ORIENTED_EDGE('',*,*,#71,.T.);
#24=ORIENTED_EDGE('',*,*,#72,.T.);
#25=ORIENTED_EDGE('',*,*,#73,.F.);
#26=ORIENTED_EDGE('',*,*,#74,.F.);
#27=ORIENTED_EDGE('',*,*,#75,.T.);
#28=ORIENTED_EDGE('',*,*,#76,.T.);
#29=ORIENTED_EDGE('',*,*,#71,.F.);
#30=ORIENTED_EDGE('',*,*,#77,.F.);
#31=ORIENTED_EDGE('',*,*,#73,.T.);
#32=ORIENTED_EDGE('',*,*,#78,.F.);
#33=ORIENTED_EDGE('',*,*,#79,.T.);
#34=ORIENTED_EDGE('',*,*,#80,.T.);
#35=ORIENTED_EDGE('',*,*,#81,.F.);
#36=ORIENTED_EDGE('',*,*,#82,.T.);
#37=ORIENTED_EDGE('',*,*,#75,.F.);
#38=ORIENTED_EDGE('',*,*,#83,.F.);
#39=ORIENTED_EDGE('',*,*,#81,.T.);
#40=ORIENTED_EDGE('',*,*,#84,.F.);
#41=ORIENTED_EDGE('',*,*,#85,.F.);
#42=ORIENTED_EDGE('',*,*,#86,.F.);
#43=ORIENTED_EDGE('',*,*,#78,.T.);
#44=ORIENTED_EDGE('',*,*,#83,.T.);
#45=ORIENTED_EDGE('',*,*,#74,.T.);
#46=ORIENTED_EDGE('',*,*,#77,.T.);
#47=ORIENTED_EDGE('',*,*,#70,.T.);
#48=ORIENTED_EDGE('',*,*,#87,.T.);
#49=ORIENTED_EDGE('',*,*,#88,.T.);
#50=ORIENTED_EDGE('',*,*,#68,.F.);
#51=ORIENTED_EDGE('',*,*,#76,.F.);
#52=ORIENTED_EDGE('',*,*,#72,.F.);
#53=ORIENTED_EDGE('',*,*,#82,.F.);
#54=ORIENTED_EDGE('',*,*,#80,.F.);
#55=ORIENTED_EDGE('',*,*,#89,.T.);
#56=ORIENTED_EDGE('',*,*,#90,.T.);
#57=ORIENTED_EDGE('',*,*,#85,.T.);
#58=ORIENTED_EDGE('',*,*,#91,.F.);
#59=ORIENTED_EDGE('',*,*,#87,.F.);
#60=ORIENTED_EDGE('',*,*,#88,.F.);
#61=ORIENTED_EDGE('',*,*,#91,.T.);
#62=ORIENTED_EDGE('',*,*,#84,.T.);
#63=ORIENTED_EDGE('',*,*,#69,.F.);
#64=ORIENTED_EDGE('',*,*,#86,.T.);
#65=ORIENTED_EDGE('',*,*,#90,.F.);
#66=ORIENTED_EDGE('',*,*,#89,.F.);
#67=ORIENTED_EDGE('',*,*,#79,.F.);
#68=EDGE_CURVE('',#92,#93,#108,.T.);
#69=EDGE_CURVE('',#93,#94,#109,.T.);
#70=EDGE_CURVE('',#95,#94,#110,.T.);
#71=EDGE_CURVE('',#95,#92,#111,.T.);
#72=EDGE_CURVE('',#96,#97,#112,.T.);
#73=EDGE_CURVE('',#98,#97,#113,.T.);
#74=EDGE_CURVE('',#99,#98,#114,.T.);
#75=EDGE_CURVE('',#99,#96,#115,.T.);
#76=EDGE_CURVE('',#97,#92,#116,.T.);
#77=EDGE_CURVE('',#98,#95,#117,.T.);
#78=EDGE_CURVE('',#100,#101,#118,.T.);
#79=EDGE_CURVE('',#100,#102,#119,.T.);
#80=EDGE_CURVE('',#102,#103,#120,.T.);
#81=EDGE_CURVE('',#101,#103,#121,.T.);
#82=EDGE_CURVE('',#103,#96,#122,.T.);
#83=EDGE_CURVE('',#101,#99,#123,.T.);
#84=EDGE_CURVE('',#104,#94,#124,.T.);
#85=EDGE_CURVE('',#105,#104,#125,.T.);
#86=EDGE_CURVE('',#100,#105,#126,.T.);
#87=EDGE_CURVE('',#106,#107,#127,.T.);
#88=EDGE_CURVE('',#107,#93,#128,.T.);
#89=EDGE_CURVE('',#102,#106,#129,.T.);
#90=EDGE_CURVE('',#106,#105,#130,.T.);
#91=EDGE_CURVE('',#107,#104,#131,.T.);
#92=VERTEX_POINT('',#268);
#93=VERTEX_POINT('',#269);
#94=VERTEX_POINT('',#271);
#95=VERTEX_POINT('',#273);
#96=VERTEX_POINT('',#277);
#97=VERTEX_POINT('',#278);
#98=VERTEX_POINT('',#280);
#99=VERTEX_POINT('',#282);
#100=VERTEX_POINT('',#289);
#101=VERTEX_POINT('',#290);
#102=VERTEX_POINT('',#292);
#103=VERTEX_POINT('',#294);
#104=VERTEX_POINT('',#301);
#105=VERTEX_POINT('',#303);
#106=VERTEX_POINT('',#307);
#107=VERTEX_POINT('',#308);
#108=LINE('',#267,#132);
#109=LINE('',#270,#133);
#110=LINE('',#272,#134);
#111=LINE('',#274,#135);
#112=LINE('',#276,#136);
#113=LINE('',#279,#137);
#114=LINE('',#281,#138);
#115=LINE('',#283,#139);
#116=LINE('',#285,#140);
#117=LINE('',#286,#141);
#118=LINE('',#288,#142);
#119=LINE('',#291,#143);
#120=LINE('',#293,#144);
#121=LINE('',#295,#145);
#122=LINE('',#297,#146);
#123=LINE('',#298,#147);
#124=LINE('',#300,#148);
#125=LINE('',#302,#149);
#126=LINE('',#304,#150);
#127=LINE('',#306,#151);
#128=LINE('',#309,#152);
#129=LINE('',#310,#153);
#130=LINE('',#312,#154);
#131=LINE('',#313,#155);
#132=VECTOR('',#223,1000.);
#133=VECTOR('',#224,1000.);
#134=VECTOR('',#225,1000.);
#135=VECTOR('',#226,1000.);
#136=VECTOR('',#229,1000.);
#137=VECTOR('',#230,1000.);
#138=VECTOR('',#231,1000.);
#139=VECTOR('',#232,1000.);
#140=VECTOR('',#235,1000.);
#141=VECTOR('',#236,1000.);
#142=VECTOR('',#239,1000.);
#143=VECTOR('',#240,1000.);
#144=VECTOR('',#241,1000.);
#145=VECTOR('',#242,1000.);
#146=VECTOR('',#245,1000.);
#147=VECTOR('',#246,1000.);
#148=VECTOR('',#249,1000.);
#149=VECTOR('',#250,1000.);
#150=VECTOR('',#251,1000.);
#151=VECTOR('',#254,1000.);
#152=VECTOR('',#255,1000.);
#153=VECTOR('',#256,1000.);
#154=VECTOR('',#259,1000.);
#155=VECTOR('',#260,1000.);
#156=EDGE_LOOP('',(#20,#21,#22,#23));
#157=EDGE_LOOP('',(#24,#25,#26,#27));
#158=EDGE_LOOP('',(#28,#29,#30,#31));
#159=EDGE_LOOP('',(#32,#33,#34,#35));
#160=EDGE_LOOP('',(#36,#37,#38,#39));
#161=EDGE_LOOP('',(#40,#41,#42,#43,#44,#45,#46,#47));
#162=EDGE_LOOP('',(#48,#49,#50,#51,#52,#53,#54,#55));
#163=EDGE_LOOP('',(#56,#57,#58,#59));
#164=EDGE_LOOP('',(#60,#61,#62,#63));
#165=EDGE_LOOP('',(#64,#65,#66,#67));
#166=FACE_BOUND('',#156,.T.);
#167=FACE_BOUND('',#157,.T.);
#168=FACE_BOUND('',#158,.T.);
#169=FACE_BOUND('',#159,.T.);
#170=FACE_BOUND('',#160,.T.);
#171=FACE_BOUND('',#161,.T.);
#172=FACE_BOUND('',#162,.T.);
#173=FACE_BOUND('',#163,.T.);
#174=FACE_BOUND('',#164,.T.);
#175=FACE_BOUND('',#165,.T.);
#176=PLANE('',#209);
#177=PLANE('',#210);
#178=PLANE('',#211);
#179=PLANE('',#212);
#180=PLANE('',#213);
#181=PLANE('',#214);
#182=PLANE('',#215);
#183=PLANE('',#216);
#184=PLANE('',#217);
#185=PLANE('',#218);
#186=ADVANCED_FACE('',(#166),#176,.F.);
#187=ADVANCED_FACE('',(#167),#177,.F.);
#188=ADVANCED_FACE('',(#168),#178,.F.);
#189=ADVANCED_FACE('',(#169),#179,.F.);
#190=ADVANCED_FACE('',(#170),#180,.F.);
#191=ADVANCED_FACE('',(#171),#181,.T.);
#192=ADVANCED_FACE('',(#172),#182,.F.);
#193=ADVANCED_FACE('',(#173),#183,.F.);
#194=ADVANCED_FACE('',(#174),#184,.F.);
#195=ADVANCED_FACE('',(#175),#185,.F.);
#196=CLOSED_SHELL('',(#186,#187,#188,#189,#190,#191,#192,#193,#194,#195));
#197=STYLED_ITEM('',(#198),#205);
#198=PRESENTATION_STYLE_ASSIGNMENT((#199));
#199=SURFACE_STYLE_USAGE(.BOTH.,#200);
#200=SURFACE_SIDE_STYLE('',(#201));
#201=SURFACE_STYLE_FILL_AREA(#202);
#202=FILL_AREA_STYLE('',(#203));
#203=FILL_AREA_STYLE_COLOUR('',#204);
#204=COLOUR_RGB('',0.506983280181885,0.531564235687256,0.550000011920929);
#205=MANIFOLD_SOLID_BREP('',#196);
#206=SHAPE_DEFINITION_REPRESENTATION(#322,#207);
#207=SHAPE_REPRESENTATION('Boxslitexample',(#208),#317);
#208=AXIS2_PLACEMENT_3D('',#265,#219,#220);
#209=AXIS2_PLACEMENT_3D('',#266,#221,#222);
#210=AXIS2_PLACEMENT_3D('',#275,#227,#228);
#211=AXIS2_PLACEMENT_3D('',#284,#233,#234);
#212=AXIS2_PLACEMENT_3D('',#287,#237,#238);
#213=AXIS2_PLACEMENT_3D('',#296,#243,#244);
#214=AXIS2_PLACEMENT_3D('',#299,#247,#248);
#215=AXIS2_PLACEMENT_3D('',#305,#252,#253);
#216=AXIS2_PLACEMENT_3D('',#311,#257,#258);
#217=AXIS2_PLACEMENT_3D('',#314,#261,#262);
#218=AXIS2_PLACEMENT_3D('',#315,#263,#264);
#219=DIRECTION('',(0.,0.,1.));
#220=DIRECTION('',(1.,0.,0.));
#221=DIRECTION('',(-1.,0.,0.));
#222=DIRECTION('',(0.,0.,1.));
#223=DIRECTION('',(0.,1.,0.));
#224=DIRECTION('',(0.,0.,1.));
#225=DIRECTION('',(0.,1.,0.));
#226=DIRECTION('',(0.,0.,-1.));
#227=DIRECTION('',(1.,0.,0.));
#228=DIRECTION('',(0.,0.,-1.));
#229=DIRECTION('',(0.,-1.,0.));
#230=DIRECTION('',(0.,0.,-1.));
#231=DIRECTION('',(0.,-1.,0.));
#232=DIRECTION('',(0.,0.,-1.));
#233=DIRECTION('',(4.62592926927149E-17,1.,0.));
#234=DIRECTION('',(-1.,4.62592926927149E-17,0.));
#235=DIRECTION('',(1.,-4.62592926927149E-17,0.));
#236=DIRECTION('',(1.,-4.62592926927149E-17,0.));
#237=DIRECTION('',(-1.,0.,0.));
#238=DIRECTION('',(0.,0.,1.));
#239=DIRECTION('',(0.,1.,0.));
#240=DIRECTION('',(0.,0.,-1.));
#241=DIRECTION('',(0.,1.,0.));
#242=DIRECTION('',(0.,0.,-1.));
#243=DIRECTION('',(-4.62592926927149E-17,-1.,0.));
#244=DIRECTION('',(1.,-4.62592926927149E-17,0.));
#245=DIRECTION('',(-1.,4.62592926927149E-17,0.));
#246=DIRECTION('',(-1.,4.62592926927149E-17,0.));
#247=DIRECTION('',(0.,0.,1.));
#248=DIRECTION('',(1.,0.,0.));
#249=DIRECTION('',(1.,-3.64291929955129E-16,0.));
#250=DIRECTION('',(-1.38777878078143E-15,-1.,0.));
#251=DIRECTION('',(-1.,3.64291929955129E-16,0.));
#252=DIRECTION('',(0.,0.,1.));
#253=DIRECTION('',(1.,0.,0.));
#254=DIRECTION('',(-1.38777878078143E-15,-1.,0.));
#255=DIRECTION('',(1.,-3.6429192995513E-16,0.));
#256=DIRECTION('',(-1.,3.6429192995513E-16,0.));
#257=DIRECTION('',(-1.,1.38777878078143E-15,0.));
#258=DIRECTION('',(-1.38777878078143E-15,-1.,0.));
#259=DIRECTION('',(0.,0.,1.));
#260=DIRECTION('',(0.,0.,1.));
#261=DIRECTION('',(-3.6429192995513E-16,-1.,0.));
#262=DIRECTION('',(1.,-3.6429192995513E-16,0.));
#263=DIRECTION('',(3.6429192995513E-16,1.,0.));
#264=DIRECTION('',(-1.,3.6429192995513E-16,0.));
#265=CARTESIAN_POINT('',(0.,0.,0.));
#266=CARTESIAN_POINT('',(37.5,-25.,20.));
#267=CARTESIAN_POINT('',(37.5,-25.,0.));
#268=CARTESIAN_POINT('',(37.5,-25.,0.));
#269=CARTESIAN_POINT('',(37.5,-2.5,0.));
#270=CARTESIAN_POINT('',(37.5,-2.50000000000001,20.));
#271=CARTESIAN_POINT('',(37.5,-2.5,20.));
#272=CARTESIAN_POINT('',(37.5,-25.,20.));
#273=CARTESIAN_POINT('',(37.5,-25.,20.));
#274=CARTESIAN_POINT('',(37.5,-25.,20.));
#275=CARTESIAN_POINT('',(-37.5,25.,20.));
#276=CARTESIAN_POINT('',(-37.5,25.,0.));
#277=CARTESIAN_POINT('',(-37.5,25.,0.));
#278=CARTESIAN_POINT('',(-37.5,-25.,0.));
#279=CARTESIAN_POINT('',(-37.5,-25.,20.));
#280=CARTESIAN_POINT('',(-37.5,-25.,20.));
#281=CARTESIAN_POINT('',(-37.5,25.,20.));
#282=CARTESIAN_POINT('',(-37.5,25.,20.));
#283=CARTESIAN_POINT('',(-37.5,25.,20.));
#284=CARTESIAN_POINT('',(-37.5,-25.,20.));
#285=CARTESIAN_POINT('',(-37.5,-25.,0.));
#286=CARTESIAN_POINT('',(-37.5,-25.,20.));
#287=CARTESIAN_POINT('',(37.5,-25.,20.));
#288=CARTESIAN_POINT('',(37.5,-25.,20.));
#289=CARTESIAN_POINT('',(37.5,2.50000000000003,20.));
#290=CARTESIAN_POINT('',(37.5,25.,20.));
#291=CARTESIAN_POINT('',(37.5,2.50000000000003,20.));
#292=CARTESIAN_POINT('',(37.5,2.50000000000003,0.));
#293=CARTESIAN_POINT('',(37.5,-25.,0.));
#294=CARTESIAN_POINT('',(37.5,25.,0.));
#295=CARTESIAN_POINT('',(37.5,25.,20.));
#296=CARTESIAN_POINT('',(37.5,25.,20.));
#297=CARTESIAN_POINT('',(37.5,25.,0.));
#298=CARTESIAN_POINT('',(37.5,25.,20.));
#299=CARTESIAN_POINT('',(0.,0.,20.));
#300=CARTESIAN_POINT('',(12.5,-2.49999999999999,20.));
#301=CARTESIAN_POINT('',(12.5,-2.49999999999999,20.));
#302=CARTESIAN_POINT('',(12.5,2.50000000000004,20.));
#303=CARTESIAN_POINT('',(12.5,2.50000000000004,20.));
#304=CARTESIAN_POINT('',(62.5,2.50000000000002,20.));
#305=CARTESIAN_POINT('',(0.,0.,0.));
#306=CARTESIAN_POINT('',(12.5,-1.73472347597679E-14,0.));
#307=CARTESIAN_POINT('',(12.5,2.50000000000004,0.));
#308=CARTESIAN_POINT('',(12.5,-2.49999999999999,0.));
#309=CARTESIAN_POINT('',(-9.1072982488782E-16,-2.49999999999999,0.));
#310=CARTESIAN_POINT('',(9.1072982488784E-16,2.50000000000004,0.));
#311=CARTESIAN_POINT('',(12.5,2.50000000000004,-93.5781669160055));
#312=CARTESIAN_POINT('',(12.5,2.50000000000004,-93.5781669160055));
#313=CARTESIAN_POINT('',(12.5,-2.49999999999999,-93.5781669160055));
#314=CARTESIAN_POINT('',(12.5,-2.49999999999999,-93.5781669160055));
#315=CARTESIAN_POINT('',(62.5,2.50000000000002,-93.5781669160055));
#316=MECHANICAL_DESIGN_GEOMETRIC_PRESENTATION_REPRESENTATION('',(#197),
#317);
#317=(
GEOMETRIC_REPRESENTATION_CONTEXT(3)
GLOBAL_UNCERTAINTY_ASSIGNED_CONTEXT((#318))
GLOBAL_UNIT_ASSIGNED_CONTEXT((#321,#320,#319))
REPRESENTATION_CONTEXT('Boxslitexample','TOP_LEVEL_ASSEMBLY_PART')
);
#318=UNCERTAINTY_MEASURE_WITH_UNIT(LENGTH_MEASURE(0.005),#321,
'DISTANCE_ACCURACY_VALUE','Maximum Tolerance applied to model');
#319=(
NAMED_UNIT(*)
SI_UNIT($,.STERADIAN.)
SOLID_ANGLE_UNIT()
);
#320=(
NAMED_UNIT(*)
PLANE_ANGLE_UNIT()
SI_UNIT($,.RADIAN.)
);
#321=(
LENGTH_UNIT()
NAMED_UNIT(*)
SI_UNIT(.MILLI.,.METRE.)
);
#322=PRODUCT_DEFINITION_SHAPE('','',#323);
#323=PRODUCT_DEFINITION('','',#325,#324);
#324=PRODUCT_DEFINITION_CONTEXT('',#331,'design');
#325=PRODUCT_DEFINITION_FORMATION_WITH_SPECIFIED_SOURCE('','',#327,
 .NOT_KNOWN.);
#326=PRODUCT_RELATED_PRODUCT_CATEGORY('','',(#327));
#327=PRODUCT('Boxslitexample','Boxslitexample','Boxslitexample',(#329));
#328=PRODUCT_CATEGORY('','');
#329=PRODUCT_CONTEXT('',#331,'mechanical');
#330=APPLICATION_PROTOCOL_DEFINITION('international standard',
'automotive_design',2010,#331);
#331=APPLICATION_CONTEXT(
'core data for automotive mechanical design processes');
ENDSEC;
END-ISO-10303-21;
