ISO-10303-21;
HEADER;
/* Generated by software containing ST-Developer
 * from STEP Tools, Inc. (www.steptools.com) 
 */
/* OPTION: strings as raw bytes, not using required /X/ escapes */

FILE_DESCRIPTION(
/* description */ ('Unknown'),
/* implementation_level */ '2;1');

FILE_NAME(
/* name */ 'slot',
/* time_stamp */ '2025-10-19T00:21:36+02:00',
/* author */ ('Unknown'),
/* organization */ ('Unknown'),
/* preprocessor_version */ 'ST-DEVELOPER v19.4',
/* originating_system */ 'Solid Edge',
/* authorisation */ 'Unknown');

FILE_SCHEMA (('MODEL_BASED_INTEGRATED_MANUFACTURING_SCHEMA','AUTOMOTIVE_DESIGN {1 0 10303 214 3 1 1}'));
ENDSEC;

DATA;
#10=PROPERTY_DEFINITION_REPRESENTATION(#14,#12);
#11=PROPERTY_DEFINITION_REPRESENTATION(#15,#13);
#12=REPRESENTATION('',(#16),#284);
#13=REPRESENTATION('',(#17),#284);
#14=PROPERTY_DEFINITION('pmi validation property','',#289);
#15=PROPERTY_DEFINITION('pmi validation property','',#289);
#16=VALUE_REPRESENTATION_ITEM('number of annotations',COUNT_MEASURE(0.));
#17=VALUE_REPRESENTATION_ITEM('number of views',COUNT_MEASURE(0.));
#18=SHAPE_REPRESENTATION_RELATIONSHIP('','',#186,#19);
#19=ADVANCED_BREP_SHAPE_REPRESENTATION('',(#184),#284);
#20=ORIENTED_EDGE('',*,*,#62,.F.);
#21=ORIENTED_EDGE('',*,*,#63,.F.);
#22=ORIENTED_EDGE('',*,*,#64,.T.);
#23=ORIENTED_EDGE('',*,*,#65,.T.);
#24=ORIENTED_EDGE('',*,*,#64,.F.);
#25=ORIENTED_EDGE('',*,*,#66,.T.);
#26=ORIENTED_EDGE('',*,*,#67,.T.);
#27=ORIENTED_EDGE('',*,*,#68,.F.);
#28=ORIENTED_EDGE('',*,*,#69,.F.);
#29=ORIENTED_EDGE('',*,*,#70,.T.);
#30=ORIENTED_EDGE('',*,*,#71,.T.);
#31=ORIENTED_EDGE('',*,*,#68,.T.);
#32=ORIENTED_EDGE('',*,*,#72,.T.);
#33=ORIENTED_EDGE('',*,*,#73,.F.);
#34=ORIENTED_EDGE('',*,*,#74,.F.);
#35=ORIENTED_EDGE('',*,*,#75,.F.);
#36=ORIENTED_EDGE('',*,*,#76,.F.);
#37=ORIENTED_EDGE('',*,*,#62,.T.);
#38=ORIENTED_EDGE('',*,*,#77,.T.);
#39=ORIENTED_EDGE('',*,*,#78,.F.);
#40=ORIENTED_EDGE('',*,*,#79,.F.);
#41=ORIENTED_EDGE('',*,*,#73,.T.);
#42=ORIENTED_EDGE('',*,*,#80,.T.);
#43=ORIENTED_EDGE('',*,*,#70,.F.);
#44=ORIENTED_EDGE('',*,*,#81,.F.);
#45=ORIENTED_EDGE('',*,*,#78,.T.);
#46=ORIENTED_EDGE('',*,*,#69,.T.);
#47=ORIENTED_EDGE('',*,*,#74,.T.);
#48=ORIENTED_EDGE('',*,*,#79,.T.);
#49=ORIENTED_EDGE('',*,*,#81,.T.);
#50=ORIENTED_EDGE('',*,*,#71,.F.);
#51=ORIENTED_EDGE('',*,*,#80,.F.);
#52=ORIENTED_EDGE('',*,*,#77,.F.);
#53=ORIENTED_EDGE('',*,*,#65,.F.);
#54=ORIENTED_EDGE('',*,*,#63,.T.);
#55=ORIENTED_EDGE('',*,*,#76,.T.);
#56=ORIENTED_EDGE('',*,*,#82,.F.);
#57=ORIENTED_EDGE('',*,*,#66,.F.);
#58=ORIENTED_EDGE('',*,*,#82,.T.);
#59=ORIENTED_EDGE('',*,*,#75,.T.);
#60=ORIENTED_EDGE('',*,*,#72,.F.);
#61=ORIENTED_EDGE('',*,*,#67,.F.);
#62=EDGE_CURVE('',#83,#84,#97,.T.);
#63=EDGE_CURVE('',#85,#83,#98,.T.);
#64=EDGE_CURVE('',#85,#86,#99,.T.);
#65=EDGE_CURVE('',#86,#84,#100,.T.);
#66=EDGE_CURVE('',#85,#87,#101,.T.);
#67=EDGE_CURVE('',#87,#88,#102,.T.);
#68=EDGE_CURVE('',#89,#88,#103,.T.);
#69=EDGE_CURVE('',#90,#89,#104,.T.);
#70=EDGE_CURVE('',#90,#91,#105,.T.);
#71=EDGE_CURVE('',#91,#86,#106,.T.);
#72=EDGE_CURVE('',#88,#92,#107,.T.);
#73=EDGE_CURVE('',#93,#92,#108,.T.);
#74=EDGE_CURVE('',#89,#93,#109,.T.);
#75=EDGE_CURVE('',#94,#92,#110,.T.);
#76=EDGE_CURVE('',#83,#94,#111,.T.);
#77=EDGE_CURVE('',#84,#95,#112,.T.);
#78=EDGE_CURVE('',#96,#95,#113,.T.);
#79=EDGE_CURVE('',#93,#96,#114,.T.);
#80=EDGE_CURVE('',#95,#91,#115,.T.);
#81=EDGE_CURVE('',#96,#90,#116,.T.);
#82=EDGE_CURVE('',#87,#94,#117,.T.);
#83=VERTEX_POINT('',#241);
#84=VERTEX_POINT('',#242);
#85=VERTEX_POINT('',#244);
#86=VERTEX_POINT('',#246);
#87=VERTEX_POINT('',#250);
#88=VERTEX_POINT('',#252);
#89=VERTEX_POINT('',#254);
#90=VERTEX_POINT('',#256);
#91=VERTEX_POINT('',#258);
#92=VERTEX_POINT('',#262);
#93=VERTEX_POINT('',#264);
#94=VERTEX_POINT('',#268);
#95=VERTEX_POINT('',#271);
#96=VERTEX_POINT('',#273);
#97=LINE('',#240,#118);
#98=LINE('',#243,#119);
#99=LINE('',#245,#120);
#100=LINE('',#247,#121);
#101=LINE('',#249,#122);
#102=LINE('',#251,#123);
#103=LINE('',#253,#124);
#104=LINE('',#255,#125);
#105=LINE('',#257,#126);
#106=LINE('',#259,#127);
#107=LINE('',#261,#128);
#108=LINE('',#263,#129);
#109=LINE('',#265,#130);
#110=LINE('',#267,#131);
#111=LINE('',#269,#132);
#112=LINE('',#270,#133);
#113=LINE('',#272,#134);
#114=LINE('',#274,#135);
#115=LINE('',#276,#136);
#116=LINE('',#277,#137);
#117=LINE('',#281,#138);
#118=VECTOR('',#201,1000.);
#119=VECTOR('',#202,1000.);
#120=VECTOR('',#203,1000.);
#121=VECTOR('',#204,1000.);
#122=VECTOR('',#207,1000.);
#123=VECTOR('',#208,1000.);
#124=VECTOR('',#209,1000.);
#125=VECTOR('',#210,1000.);
#126=VECTOR('',#211,1000.);
#127=VECTOR('',#212,1000.);
#128=VECTOR('',#215,1000.);
#129=VECTOR('',#216,1000.);
#130=VECTOR('',#217,1000.);
#131=VECTOR('',#220,1000.);
#132=VECTOR('',#221,1000.);
#133=VECTOR('',#222,1000.);
#134=VECTOR('',#223,1000.);
#135=VECTOR('',#224,1000.);
#136=VECTOR('',#227,1000.);
#137=VECTOR('',#228,1000.);
#138=VECTOR('',#235,1000.);
#139=EDGE_LOOP('',(#20,#21,#22,#23));
#140=EDGE_LOOP('',(#24,#25,#26,#27,#28,#29,#30));
#141=EDGE_LOOP('',(#31,#32,#33,#34));
#142=EDGE_LOOP('',(#35,#36,#37,#38,#39,#40,#41));
#143=EDGE_LOOP('',(#42,#43,#44,#45));
#144=EDGE_LOOP('',(#46,#47,#48,#49));
#145=EDGE_LOOP('',(#50,#51,#52,#53));
#146=EDGE_LOOP('',(#54,#55,#56,#57));
#147=EDGE_LOOP('',(#58,#59,#60,#61));
#148=FACE_BOUND('',#139,.T.);
#149=FACE_BOUND('',#140,.T.);
#150=FACE_BOUND('',#141,.T.);
#151=FACE_BOUND('',#142,.T.);
#152=FACE_BOUND('',#143,.T.);
#153=FACE_BOUND('',#144,.T.);
#154=FACE_BOUND('',#145,.T.);
#155=FACE_BOUND('',#146,.T.);
#156=FACE_BOUND('',#147,.T.);
#157=PLANE('',#188);
#158=PLANE('',#189);
#159=PLANE('',#190);
#160=PLANE('',#191);
#161=PLANE('',#192);
#162=PLANE('',#193);
#163=PLANE('',#194);
#164=PLANE('',#195);
#165=PLANE('',#196);
#166=ADVANCED_FACE('',(#148),#157,.F.);
#167=ADVANCED_FACE('',(#149),#158,.F.);
#168=ADVANCED_FACE('',(#150),#159,.F.);
#169=ADVANCED_FACE('',(#151),#160,.F.);
#170=ADVANCED_FACE('',(#152),#161,.F.);
#171=ADVANCED_FACE('',(#153),#162,.T.);
#172=ADVANCED_FACE('',(#154),#163,.F.);
#173=ADVANCED_FACE('',(#155),#164,.F.);
#174=ADVANCED_FACE('',(#156),#165,.F.);
#175=CLOSED_SHELL('',(#166,#167,#168,#169,#170,#171,#172,#173,#174));
#176=STYLED_ITEM('',(#177),#184);
#177=PRESENTATION_STYLE_ASSIGNMENT((#178));
#178=SURFACE_STYLE_USAGE(.BOTH.,#179);
#179=SURFACE_SIDE_STYLE('',(#180));
#180=SURFACE_STYLE_FILL_AREA(#181);
#181=FILL_AREA_STYLE('',(#182));
#182=FILL_AREA_STYLE_COLOUR('',#183);
#183=COLOUR_RGB('',0.506983280181885,0.531564235687256,0.550000011920929);
#184=MANIFOLD_SOLID_BREP('',#175);
#185=SHAPE_DEFINITION_REPRESENTATION(#289,#186);
#186=SHAPE_REPRESENTATION('Boxslitexample',(#187),#284);
#187=AXIS2_PLACEMENT_3D('',#238,#197,#198);
#188=AXIS2_PLACEMENT_3D('',#239,#199,#200);
#189=AXIS2_PLACEMENT_3D('',#248,#205,#206);
#190=AXIS2_PLACEMENT_3D('',#260,#213,#214);
#191=AXIS2_PLACEMENT_3D('',#266,#218,#219);
#192=AXIS2_PLACEMENT_3D('',#275,#225,#226);
#193=AXIS2_PLACEMENT_3D('',#278,#229,#230);
#194=AXIS2_PLACEMENT_3D('',#279,#231,#232);
#195=AXIS2_PLACEMENT_3D('',#280,#233,#234);
#196=AXIS2_PLACEMENT_3D('',#282,#236,#237);
#197=DIRECTION('',(0.,0.,1.));
#198=DIRECTION('',(1.,0.,0.));
#199=DIRECTION('',(9.25185853854297E-17,1.,0.));
#200=DIRECTION('',(-1.,9.25185853854297E-17,0.));
#201=DIRECTION('',(0.,0.,-1.));
#202=DIRECTION('',(1.,0.,0.));
#203=DIRECTION('',(0.,0.,-1.));
#204=DIRECTION('',(1.,-9.25185853854297E-17,0.));
#205=DIRECTION('',(1.,0.,0.));
#206=DIRECTION('',(0.,0.,-1.));
#207=DIRECTION('',(0.,0.736364801975544,0.676584716359687));
#208=DIRECTION('',(0.,-0.818685946293106,0.574241518302326));
#209=DIRECTION('',(0.,0.,-1.));
#210=DIRECTION('',(0.,-1.,0.));
#211=DIRECTION('',(0.,0.,-1.));
#212=DIRECTION('',(0.,-1.,0.));
#213=DIRECTION('',(9.25185853854297E-17,1.,0.));
#214=DIRECTION('',(-1.,9.25185853854297E-17,0.));
#215=DIRECTION('',(1.,0.,0.));
#216=DIRECTION('',(0.,0.,-1.));
#217=DIRECTION('',(1.,-9.25185853854297E-17,0.));
#218=DIRECTION('',(-1.,0.,0.));
#219=DIRECTION('',(0.,0.,1.));
#220=DIRECTION('',(0.,-0.818685946293106,0.574241518302326));
#221=DIRECTION('',(0.,0.736364801975544,0.676584716359687));
#222=DIRECTION('',(0.,1.,0.));
#223=DIRECTION('',(0.,0.,-1.));
#224=DIRECTION('',(0.,1.,0.));
#225=DIRECTION('',(9.25185853854297E-17,-1.,0.));
#226=DIRECTION('',(1.,9.25185853854297E-17,0.));
#227=DIRECTION('',(-1.,-9.25185853854297E-17,0.));
#228=DIRECTION('',(-1.,-9.25185853854297E-17,0.));
#229=DIRECTION('',(0.,0.,1.));
#230=DIRECTION('',(1.,0.,0.));
#231=DIRECTION('',(0.,0.,1.));
#232=DIRECTION('',(1.,0.,0.));
#233=DIRECTION('',(0.,0.676584716359687,-0.736364801975544));
#234=DIRECTION('',(0.,0.736364801975544,0.676584716359687));
#235=DIRECTION('',(1.,0.,0.));
#236=DIRECTION('',(0.,0.574241518302326,0.818685946293106));
#237=DIRECTION('',(0.,-0.818685946293106,0.574241518302326));
#238=CARTESIAN_POINT('',(0.,0.,0.));
#239=CARTESIAN_POINT('',(-37.5,-37.5,75.));
#240=CARTESIAN_POINT('',(37.5,-37.5,75.));
#241=CARTESIAN_POINT('',(37.5,-37.5,7.74354243542435));
#242=CARTESIAN_POINT('',(37.5,-37.5,0.));
#243=CARTESIAN_POINT('',(-92.4038105676658,-37.5,7.74354243542435));
#244=CARTESIAN_POINT('',(-37.5,-37.5,7.74354243542435));
#245=CARTESIAN_POINT('',(-37.5,-37.5,75.));
#246=CARTESIAN_POINT('',(-37.5,-37.5,0.));
#247=CARTESIAN_POINT('',(-37.5,-37.5,0.));
#248=CARTESIAN_POINT('',(-37.5,37.5,75.));
#249=CARTESIAN_POINT('',(-37.5,36.6755370912147,75.8973088689179));
#250=CARTESIAN_POINT('',(-37.5,-5.11439114391144,37.5));
#251=CARTESIAN_POINT('',(-37.5,5.81813320286635,29.8317245053536));
#252=CARTESIAN_POINT('',(-37.5,-37.5,60.2158671586716));
#253=CARTESIAN_POINT('',(-37.5,-37.5,75.));
#254=CARTESIAN_POINT('',(-37.5,-37.5,75.));
#255=CARTESIAN_POINT('',(-37.5,37.5,75.));
#256=CARTESIAN_POINT('',(-37.5,37.5,75.));
#257=CARTESIAN_POINT('',(-37.5,37.5,75.));
#258=CARTESIAN_POINT('',(-37.5,37.5,0.));
#259=CARTESIAN_POINT('',(-37.5,37.5,0.));
#260=CARTESIAN_POINT('',(-37.5,-37.5,75.));
#261=CARTESIAN_POINT('',(-92.4038105676658,-37.5,60.2158671586716));
#262=CARTESIAN_POINT('',(37.5,-37.5,60.2158671586716));
#263=CARTESIAN_POINT('',(37.5,-37.5,75.));
#264=CARTESIAN_POINT('',(37.5,-37.5,75.));
#265=CARTESIAN_POINT('',(-37.5,-37.5,75.));
#266=CARTESIAN_POINT('',(37.5,-37.5,75.));
#267=CARTESIAN_POINT('',(37.5,-5.11439114391144,37.5));
#268=CARTESIAN_POINT('',(37.5,-5.11439114391144,37.5));
#269=CARTESIAN_POINT('',(37.5,-37.5,7.74354243542435));
#270=CARTESIAN_POINT('',(37.5,-37.5,0.));
#271=CARTESIAN_POINT('',(37.5,37.5,0.));
#272=CARTESIAN_POINT('',(37.5,37.5,75.));
#273=CARTESIAN_POINT('',(37.5,37.5,75.));
#274=CARTESIAN_POINT('',(37.5,-37.5,75.));
#275=CARTESIAN_POINT('',(37.5,37.5,75.));
#276=CARTESIAN_POINT('',(37.5,37.5,0.));
#277=CARTESIAN_POINT('',(37.5,37.5,75.));
#278=CARTESIAN_POINT('',(0.,0.,75.));
#279=CARTESIAN_POINT('',(0.,0.,0.));
#280=CARTESIAN_POINT('',(-92.4038105676658,-37.5,7.74354243542435));
#281=CARTESIAN_POINT('',(-92.4038105676658,-5.11439114391144,37.5));
#282=CARTESIAN_POINT('',(-92.4038105676658,-5.11439114391144,37.5));
#283=MECHANICAL_DESIGN_GEOMETRIC_PRESENTATION_REPRESENTATION('',(#176),
#284);
#284=(
GEOMETRIC_REPRESENTATION_CONTEXT(3)
GLOBAL_UNCERTAINTY_ASSIGNED_CONTEXT((#285))
GLOBAL_UNIT_ASSIGNED_CONTEXT((#288,#287,#286))
REPRESENTATION_CONTEXT('Boxslitexample','TOP_LEVEL_ASSEMBLY_PART')
);
#285=UNCERTAINTY_MEASURE_WITH_UNIT(LENGTH_MEASURE(0.005),#288,
'DISTANCE_ACCURACY_VALUE','Maximum Tolerance applied to model');
#286=(
NAMED_UNIT(*)
SI_UNIT($,.STERADIAN.)
SOLID_ANGLE_UNIT()
);
#287=(
NAMED_UNIT(*)
PLANE_ANGLE_UNIT()
SI_UNIT($,.RADIAN.)
);
#288=(
LENGTH_UNIT()
NAMED_UNIT(*)
SI_UNIT(.MILLI.,.METRE.)
);
#289=PRODUCT_DEFINITION_SHAPE('','',#290);
#290=PRODUCT_DEFINITION('','',#292,#291);
#291=PRODUCT_DEFINITION_CONTEXT('',#298,'design');
#292=PRODUCT_DEFINITION_FORMATION_WITH_SPECIFIED_SOURCE('','',#294,
 .NOT_KNOWN.);
#293=PRODUCT_RELATED_PRODUCT_CATEGORY('','',(#294));
#294=PRODUCT('Boxslitexample','Boxslitexample','Boxslitexample',(#296));
#295=PRODUCT_CATEGORY('','');
#296=PRODUCT_CONTEXT('',#298,'mechanical');
#297=APPLICATION_PROTOCOL_DEFINITION('international standard',
'automotive_design',2010,#298);
#298=APPLICATION_CONTEXT(
'core data for automotive mechanical design processes');
ENDSEC;
END-ISO-10303-21;
