ISO-10303-21;
HEADER;
/* Generated by software containing ST-Developer
 * from STEP Tools, Inc. (www.steptools.com) 
 */
/* OPTION: strings as raw bytes, not using required /X/ escapes */

FILE_DESCRIPTION(
/* description */ ('Unknown'),
/* implementation_level */ '2;1');

FILE_NAME(
/* name */ 'slot2',
/* time_stamp */ '2025-10-19T00:39:49+02:00',
/* author */ ('Unknown'),
/* organization */ ('Unknown'),
/* preprocessor_version */ 'ST-DEVELOPER v19.4',
/* originating_system */ 'Solid Edge',
/* authorisation */ 'Unknown');

FILE_SCHEMA (('AUTOMOTIVE_DESIGN {1 0 10303 214 3 1 1}'));
ENDSEC;

DATA;
#10=PROPERTY_DEFINITION_REPRESENTATION(#14,#12);
#11=PROPERTY_DEFINITION_REPRESENTATION(#15,#13);
#12=REPRESENTATION('',(#16),#387);
#13=REPRESENTATION('',(#17),#387);
#14=PROPERTY_DEFINITION('pmi validation property','',#392);
#15=PROPERTY_DEFINITION('pmi validation property','',#392);
#16=VALUE_REPRESENTATION_ITEM('number of annotations',COUNT_MEASURE(0.));
#17=VALUE_REPRESENTATION_ITEM('number of views',COUNT_MEASURE(0.));
#18=SHAPE_REPRESENTATION_RELATIONSHIP('','',#245,#19);
#19=ADVANCED_BREP_SHAPE_REPRESENTATION('',(#243),#387);
#20=CYLINDRICAL_SURFACE('',#261,5.);
#21=CYLINDRICAL_SURFACE('',#262,5.);
#22=CIRCLE('',#249,5.);
#23=CIRCLE('',#253,5.);
#24=CIRCLE('',#259,5.);
#25=CIRCLE('',#260,5.);
#26=ORIENTED_EDGE('',*,*,#86,.F.);
#27=ORIENTED_EDGE('',*,*,#87,.T.);
#28=ORIENTED_EDGE('',*,*,#88,.T.);
#29=ORIENTED_EDGE('',*,*,#89,.F.);
#30=ORIENTED_EDGE('',*,*,#90,.F.);
#31=ORIENTED_EDGE('',*,*,#91,.T.);
#32=ORIENTED_EDGE('',*,*,#92,.F.);
#33=ORIENTED_EDGE('',*,*,#93,.T.);
#34=ORIENTED_EDGE('',*,*,#94,.T.);
#35=ORIENTED_EDGE('',*,*,#95,.T.);
#36=ORIENTED_EDGE('',*,*,#96,.T.);
#37=ORIENTED_EDGE('',*,*,#97,.T.);
#38=ORIENTED_EDGE('',*,*,#87,.F.);
#39=ORIENTED_EDGE('',*,*,#98,.T.);
#40=ORIENTED_EDGE('',*,*,#99,.F.);
#41=ORIENTED_EDGE('',*,*,#100,.F.);
#42=ORIENTED_EDGE('',*,*,#89,.T.);
#43=ORIENTED_EDGE('',*,*,#101,.T.);
#44=ORIENTED_EDGE('',*,*,#102,.T.);
#45=ORIENTED_EDGE('',*,*,#103,.F.);
#46=ORIENTED_EDGE('',*,*,#104,.F.);
#47=ORIENTED_EDGE('',*,*,#99,.T.);
#48=ORIENTED_EDGE('',*,*,#105,.T.);
#49=ORIENTED_EDGE('',*,*,#96,.F.);
#50=ORIENTED_EDGE('',*,*,#106,.F.);
#51=ORIENTED_EDGE('',*,*,#107,.F.);
#52=ORIENTED_EDGE('',*,*,#108,.T.);
#53=ORIENTED_EDGE('',*,*,#91,.F.);
#54=ORIENTED_EDGE('',*,*,#109,.F.);
#55=ORIENTED_EDGE('',*,*,#103,.T.);
#56=ORIENTED_EDGE('',*,*,#90,.T.);
#57=ORIENTED_EDGE('',*,*,#100,.T.);
#58=ORIENTED_EDGE('',*,*,#104,.T.);
#59=ORIENTED_EDGE('',*,*,#109,.T.);
#60=ORIENTED_EDGE('',*,*,#88,.F.);
#61=ORIENTED_EDGE('',*,*,#97,.F.);
#62=ORIENTED_EDGE('',*,*,#105,.F.);
#63=ORIENTED_EDGE('',*,*,#98,.F.);
#64=ORIENTED_EDGE('',*,*,#86,.T.);
#65=ORIENTED_EDGE('',*,*,#110,.T.);
#66=ORIENTED_EDGE('',*,*,#111,.T.);
#67=ORIENTED_EDGE('',*,*,#94,.F.);
#68=ORIENTED_EDGE('',*,*,#112,.F.);
#69=ORIENTED_EDGE('',*,*,#113,.T.);
#70=ORIENTED_EDGE('',*,*,#107,.T.);
#71=ORIENTED_EDGE('',*,*,#102,.F.);
#72=ORIENTED_EDGE('',*,*,#114,.F.);
#73=ORIENTED_EDGE('',*,*,#112,.T.);
#74=ORIENTED_EDGE('',*,*,#101,.F.);
#75=ORIENTED_EDGE('',*,*,#115,.F.);
#76=ORIENTED_EDGE('',*,*,#110,.F.);
#77=ORIENTED_EDGE('',*,*,#93,.F.);
#78=ORIENTED_EDGE('',*,*,#106,.T.);
#79=ORIENTED_EDGE('',*,*,#95,.F.);
#80=ORIENTED_EDGE('',*,*,#111,.F.);
#81=ORIENTED_EDGE('',*,*,#115,.T.);
#82=ORIENTED_EDGE('',*,*,#92,.T.);
#83=ORIENTED_EDGE('',*,*,#108,.F.);
#84=ORIENTED_EDGE('',*,*,#113,.F.);
#85=ORIENTED_EDGE('',*,*,#114,.T.);
#86=EDGE_CURVE('',#116,#117,#136,.T.);
#87=EDGE_CURVE('',#116,#118,#137,.T.);
#88=EDGE_CURVE('',#118,#119,#138,.T.);
#89=EDGE_CURVE('',#120,#119,#139,.T.);
#90=EDGE_CURVE('',#121,#120,#140,.T.);
#91=EDGE_CURVE('',#121,#122,#141,.T.);
#92=EDGE_CURVE('',#123,#122,#142,.T.);
#93=EDGE_CURVE('',#123,#117,#143,.T.);
#94=EDGE_CURVE('',#116,#124,#144,.T.);
#95=EDGE_CURVE('',#124,#125,#22,.T.);
#96=EDGE_CURVE('',#125,#126,#145,.T.);
#97=EDGE_CURVE('',#126,#118,#146,.T.);
#98=EDGE_CURVE('',#119,#127,#147,.T.);
#99=EDGE_CURVE('',#128,#127,#148,.T.);
#100=EDGE_CURVE('',#120,#128,#149,.T.);
#101=EDGE_CURVE('',#129,#130,#150,.T.);
#102=EDGE_CURVE('',#130,#131,#151,.T.);
#103=EDGE_CURVE('',#132,#131,#152,.T.);
#104=EDGE_CURVE('',#128,#132,#153,.T.);
#105=EDGE_CURVE('',#127,#126,#154,.T.);
#106=EDGE_CURVE('',#129,#125,#155,.T.);
#107=EDGE_CURVE('',#133,#131,#156,.T.);
#108=EDGE_CURVE('',#133,#122,#23,.T.);
#109=EDGE_CURVE('',#132,#121,#157,.T.);
#110=EDGE_CURVE('',#117,#134,#158,.T.);
#111=EDGE_CURVE('',#134,#124,#159,.T.);
#112=EDGE_CURVE('',#135,#130,#160,.T.);
#113=EDGE_CURVE('',#135,#133,#161,.T.);
#114=EDGE_CURVE('',#135,#123,#24,.T.);
#115=EDGE_CURVE('',#134,#129,#25,.T.);
#116=VERTEX_POINT('',#326);
#117=VERTEX_POINT('',#327);
#118=VERTEX_POINT('',#329);
#119=VERTEX_POINT('',#331);
#120=VERTEX_POINT('',#333);
#121=VERTEX_POINT('',#335);
#122=VERTEX_POINT('',#337);
#123=VERTEX_POINT('',#339);
#124=VERTEX_POINT('',#343);
#125=VERTEX_POINT('',#345);
#126=VERTEX_POINT('',#347);
#127=VERTEX_POINT('',#351);
#128=VERTEX_POINT('',#353);
#129=VERTEX_POINT('',#357);
#130=VERTEX_POINT('',#358);
#131=VERTEX_POINT('',#360);
#132=VERTEX_POINT('',#362);
#133=VERTEX_POINT('',#368);
#134=VERTEX_POINT('',#375);
#135=VERTEX_POINT('',#379);
#136=LINE('',#325,#162);
#137=LINE('',#328,#163);
#138=LINE('',#330,#164);
#139=LINE('',#332,#165);
#140=LINE('',#334,#166);
#141=LINE('',#336,#167);
#142=LINE('',#338,#168);
#143=LINE('',#340,#169);
#144=LINE('',#342,#170);
#145=LINE('',#346,#171);
#146=LINE('',#348,#172);
#147=LINE('',#350,#173);
#148=LINE('',#352,#174);
#149=LINE('',#354,#175);
#150=LINE('',#356,#176);
#151=LINE('',#359,#177);
#152=LINE('',#361,#178);
#153=LINE('',#363,#179);
#154=LINE('',#364,#180);
#155=LINE('',#365,#181);
#156=LINE('',#367,#182);
#157=LINE('',#370,#183);
#158=LINE('',#374,#184);
#159=LINE('',#376,#185);
#160=LINE('',#378,#186);
#161=LINE('',#380,#187);
#162=VECTOR('',#267,1000.);
#163=VECTOR('',#268,1000.);
#164=VECTOR('',#269,1000.);
#165=VECTOR('',#270,1000.);
#166=VECTOR('',#271,1000.);
#167=VECTOR('',#272,1000.);
#168=VECTOR('',#273,1000.);
#169=VECTOR('',#274,1000.);
#170=VECTOR('',#277,1000.);
#171=VECTOR('',#280,1000.);
#172=VECTOR('',#281,1000.);
#173=VECTOR('',#284,1000.);
#174=VECTOR('',#285,1000.);
#175=VECTOR('',#286,1000.);
#176=VECTOR('',#289,1000.);
#177=VECTOR('',#290,1000.);
#178=VECTOR('',#291,1000.);
#179=VECTOR('',#292,1000.);
#180=VECTOR('',#293,1000.);
#181=VECTOR('',#294,1000.);
#182=VECTOR('',#297,1000.);
#183=VECTOR('',#300,1000.);
#184=VECTOR('',#307,1000.);
#185=VECTOR('',#308,1000.);
#186=VECTOR('',#311,1000.);
#187=VECTOR('',#312,1000.);
#188=EDGE_LOOP('',(#26,#27,#28,#29,#30,#31,#32,#33));
#189=EDGE_LOOP('',(#34,#35,#36,#37,#38));
#190=EDGE_LOOP('',(#39,#40,#41,#42));
#191=EDGE_LOOP('',(#43,#44,#45,#46,#47,#48,#49,#50));
#192=EDGE_LOOP('',(#51,#52,#53,#54,#55));
#193=EDGE_LOOP('',(#56,#57,#58,#59));
#194=EDGE_LOOP('',(#60,#61,#62,#63));
#195=EDGE_LOOP('',(#64,#65,#66,#67));
#196=EDGE_LOOP('',(#68,#69,#70,#71));
#197=EDGE_LOOP('',(#72,#73,#74,#75,#76,#77));
#198=EDGE_LOOP('',(#78,#79,#80,#81));
#199=EDGE_LOOP('',(#82,#83,#84,#85));
#200=FACE_BOUND('',#188,.T.);
#201=FACE_BOUND('',#189,.T.);
#202=FACE_BOUND('',#190,.T.);
#203=FACE_BOUND('',#191,.T.);
#204=FACE_BOUND('',#192,.T.);
#205=FACE_BOUND('',#193,.T.);
#206=FACE_BOUND('',#194,.T.);
#207=FACE_BOUND('',#195,.T.);
#208=FACE_BOUND('',#196,.T.);
#209=FACE_BOUND('',#197,.T.);
#210=FACE_BOUND('',#198,.T.);
#211=FACE_BOUND('',#199,.T.);
#212=PLANE('',#247);
#213=PLANE('',#248);
#214=PLANE('',#250);
#215=PLANE('',#251);
#216=PLANE('',#252);
#217=PLANE('',#254);
#218=PLANE('',#255);
#219=PLANE('',#256);
#220=PLANE('',#257);
#221=PLANE('',#258);
#222=ADVANCED_FACE('',(#200),#212,.F.);
#223=ADVANCED_FACE('',(#201),#213,.F.);
#224=ADVANCED_FACE('',(#202),#214,.F.);
#225=ADVANCED_FACE('',(#203),#215,.F.);
#226=ADVANCED_FACE('',(#204),#216,.F.);
#227=ADVANCED_FACE('',(#205),#217,.T.);
#228=ADVANCED_FACE('',(#206),#218,.F.);
#229=ADVANCED_FACE('',(#207),#219,.T.);
#230=ADVANCED_FACE('',(#208),#220,.F.);
#231=ADVANCED_FACE('',(#209),#221,.F.);
#232=ADVANCED_FACE('',(#210),#20,.F.);
#233=ADVANCED_FACE('',(#211),#21,.F.);
#234=CLOSED_SHELL('',(#222,#223,#224,#225,#226,#227,#228,#229,#230,#231,
#232,#233));
#235=STYLED_ITEM('',(#236),#243);
#236=PRESENTATION_STYLE_ASSIGNMENT((#237));
#237=SURFACE_STYLE_USAGE(.BOTH.,#238);
#238=SURFACE_SIDE_STYLE('',(#239));
#239=SURFACE_STYLE_FILL_AREA(#240);
#240=FILL_AREA_STYLE('',(#241));
#241=FILL_AREA_STYLE_COLOUR('',#242);
#242=COLOUR_RGB('',0.506983280181885,0.531564235687256,0.550000011920929);
#243=MANIFOLD_SOLID_BREP('',#234);
#244=SHAPE_DEFINITION_REPRESENTATION(#392,#245);
#245=SHAPE_REPRESENTATION('Boxslitexample',(#246),#387);
#246=AXIS2_PLACEMENT_3D('',#323,#263,#264);
#247=AXIS2_PLACEMENT_3D('',#324,#265,#266);
#248=AXIS2_PLACEMENT_3D('',#341,#275,#276);
#249=AXIS2_PLACEMENT_3D('',#344,#278,#279);
#250=AXIS2_PLACEMENT_3D('',#349,#282,#283);
#251=AXIS2_PLACEMENT_3D('',#355,#287,#288);
#252=AXIS2_PLACEMENT_3D('',#366,#295,#296);
#253=AXIS2_PLACEMENT_3D('',#369,#298,#299);
#254=AXIS2_PLACEMENT_3D('',#371,#301,#302);
#255=AXIS2_PLACEMENT_3D('',#372,#303,#304);
#256=AXIS2_PLACEMENT_3D('',#373,#305,#306);
#257=AXIS2_PLACEMENT_3D('',#377,#309,#310);
#258=AXIS2_PLACEMENT_3D('',#381,#313,#314);
#259=AXIS2_PLACEMENT_3D('',#382,#315,#316);
#260=AXIS2_PLACEMENT_3D('',#383,#317,#318);
#261=AXIS2_PLACEMENT_3D('',#384,#319,#320);
#262=AXIS2_PLACEMENT_3D('',#385,#321,#322);
#263=DIRECTION('',(0.,0.,1.));
#264=DIRECTION('',(1.,0.,0.));
#265=DIRECTION('',(1.,0.,0.));
#266=DIRECTION('',(0.,0.,-1.));
#267=DIRECTION('',(0.,-1.,4.39173093135855E-17));
#268=DIRECTION('',(0.,0.,-1.));
#269=DIRECTION('',(0.,-1.,0.));
#270=DIRECTION('',(0.,0.,-1.));
#271=DIRECTION('',(0.,-1.,0.));
#272=DIRECTION('',(0.,0.,-1.));
#273=DIRECTION('',(-9.25185853854298E-17,1.,0.));
#274=DIRECTION('',(0.,-8.35801140564579E-17,-1.));
#275=DIRECTION('',(9.25185853854297E-17,-1.,0.));
#276=DIRECTION('',(1.,9.25185853854297E-17,0.));
#277=DIRECTION('',(0.903387289248594,8.35801140564579E-17,-0.428825612136307));
#278=DIRECTION('',(1.32192924397322E-16,-1.,8.35801140564579E-17));
#279=DIRECTION('',(-0.428825612136307,-1.32192924397322E-16,-0.903387289248593));
#280=DIRECTION('',(0.,0.,-1.));
#281=DIRECTION('',(-1.,-9.25185853854297E-17,0.));
#282=DIRECTION('',(9.25185853854297E-17,1.,0.));
#283=DIRECTION('',(-1.,9.25185853854297E-17,0.));
#284=DIRECTION('',(1.,-9.25185853854297E-17,0.));
#285=DIRECTION('',(0.,0.,-1.));
#286=DIRECTION('',(1.,-9.25185853854297E-17,0.));
#287=DIRECTION('',(-1.,0.,0.));
#288=DIRECTION('',(0.,0.,1.));
#289=DIRECTION('',(0.,8.35801140564579E-17,1.));
#290=DIRECTION('',(0.,1.,-4.39173093135855E-17));
#291=DIRECTION('',(0.,0.,-1.));
#292=DIRECTION('',(0.,1.,0.));
#293=DIRECTION('',(0.,1.,0.));
#294=DIRECTION('',(-9.25185853854298E-17,1.,0.));
#295=DIRECTION('',(9.25185853854297E-17,-1.,0.));
#296=DIRECTION('',(1.,9.25185853854297E-17,0.));
#297=DIRECTION('',(0.903387289248594,8.35801140564579E-17,-0.428825612136307));
#298=DIRECTION('',(1.32192924397322E-16,-1.,8.35801140564579E-17));
#299=DIRECTION('',(0.428825612136307,1.32192924397322E-16,0.903387289248593));
#300=DIRECTION('',(-1.,-9.25185853854297E-17,0.));
#301=DIRECTION('',(0.,0.,1.));
#302=DIRECTION('',(1.,0.,0.));
#303=DIRECTION('',(0.,0.,1.));
#304=DIRECTION('',(1.,0.,0.));
#305=DIRECTION('',(0.428825612136307,3.96743390118921E-17,0.903387289248594));
#306=DIRECTION('',(0.903387289248593,0.,-0.428825612136306));
#307=DIRECTION('',(0.903387289248594,8.35801140564579E-17,-0.428825612136307));
#308=DIRECTION('',(-9.25185853854298E-17,1.,0.));
#309=DIRECTION('',(0.428825612136307,3.96743390118921E-17,0.903387289248594));
#310=DIRECTION('',(0.903387289248593,0.,-0.428825612136306));
#311=DIRECTION('',(0.903387289248594,8.35801140564579E-17,-0.428825612136307));
#312=DIRECTION('',(-9.25185853854298E-17,1.,0.));
#313=DIRECTION('',(1.32192924397322E-16,-1.,8.35801140564579E-17));
#314=DIRECTION('',(1.,1.32192924397322E-16,0.));
#315=DIRECTION('',(1.32192924397322E-16,-1.,8.35801140564579E-17));
#316=DIRECTION('',(0.428825612136307,1.32192924397322E-16,0.903387289248593));
#317=DIRECTION('',(1.32192924397322E-16,-1.,8.35801140564579E-17));
#318=DIRECTION('',(-0.428825612136307,-1.32192924397322E-16,-0.903387289248593));
#319=DIRECTION('',(-9.25185853854298E-17,1.,0.));
#320=DIRECTION('',(-1.,-9.25185853854298E-17,0.));
#321=DIRECTION('',(-9.25185853854298E-17,1.,0.));
#322=DIRECTION('',(-1.,-9.25185853854298E-17,0.));
#323=CARTESIAN_POINT('',(0.,0.,0.));
#324=CARTESIAN_POINT('',(-37.5,37.5,75.));
#325=CARTESIAN_POINT('',(-37.5,37.5,49.7660132448048));
#326=CARTESIAN_POINT('',(-37.5,37.5,49.7660132448048));
#327=CARTESIAN_POINT('',(-37.5,-31.2500272962128,49.7660132448048));
#328=CARTESIAN_POINT('',(-37.5,37.5,75.));
#329=CARTESIAN_POINT('',(-37.5,37.5,0.));
#330=CARTESIAN_POINT('',(-37.5,37.5,0.));
#331=CARTESIAN_POINT('',(-37.5,-37.5,0.));
#332=CARTESIAN_POINT('',(-37.5,-37.5,75.));
#333=CARTESIAN_POINT('',(-37.5,-37.5,75.));
#334=CARTESIAN_POINT('',(-37.5,37.5,75.));
#335=CARTESIAN_POINT('',(-37.5,37.5,75.));
#336=CARTESIAN_POINT('',(-37.5,37.5,75.));
#337=CARTESIAN_POINT('',(-37.5,37.5,60.3007380073801));
#338=CARTESIAN_POINT('',(-37.5,-31.2500272962127,60.3007380073801));
#339=CARTESIAN_POINT('',(-37.5,-31.2500272962127,60.3007380073801));
#340=CARTESIAN_POINT('',(-37.5,-31.2500272962128,75.));
#341=CARTESIAN_POINT('',(37.5,37.5,75.));
#342=CARTESIAN_POINT('',(-39.6441280606815,37.5,50.7838015611371));
#343=CARTESIAN_POINT('',(35.3558719393185,37.5,15.182325546377));
#344=CARTESIAN_POINT('',(37.5,37.5,19.6992619926199));
#345=CARTESIAN_POINT('',(37.5,37.5,14.6992619926199));
#346=CARTESIAN_POINT('',(37.5,37.5,75.));
#347=CARTESIAN_POINT('',(37.5,37.5,0.));
#348=CARTESIAN_POINT('',(37.5,37.5,0.));
#349=CARTESIAN_POINT('',(-37.5,-37.5,75.));
#350=CARTESIAN_POINT('',(-37.5,-37.5,0.));
#351=CARTESIAN_POINT('',(37.5,-37.5,0.));
#352=CARTESIAN_POINT('',(37.5,-37.5,75.));
#353=CARTESIAN_POINT('',(37.5,-37.5,75.));
#354=CARTESIAN_POINT('',(-37.5,-37.5,75.));
#355=CARTESIAN_POINT('',(37.5,-37.5,75.));
#356=CARTESIAN_POINT('',(37.5,-31.2500272962127,75.));
#357=CARTESIAN_POINT('',(37.5,-31.2500272962127,14.6992619926199));
#358=CARTESIAN_POINT('',(37.5,-31.2500272962127,25.2339867551953));
#359=CARTESIAN_POINT('',(37.5,-37.5,25.2339867551953));
#360=CARTESIAN_POINT('',(37.5,37.5,25.2339867551953));
#361=CARTESIAN_POINT('',(37.5,37.5,75.));
#362=CARTESIAN_POINT('',(37.5,37.5,75.));
#363=CARTESIAN_POINT('',(37.5,-37.5,75.));
#364=CARTESIAN_POINT('',(37.5,-37.5,0.));
#365=CARTESIAN_POINT('',(37.5,-31.2500272962127,14.6992619926199));
#366=CARTESIAN_POINT('',(37.5,37.5,75.));
#367=CARTESIAN_POINT('',(-35.3558719393185,37.5,59.8176744536231));
#368=CARTESIAN_POINT('',(-35.3558719393185,37.5,59.8176744536231));
#369=CARTESIAN_POINT('',(-37.5,37.5,55.3007380073801));
#370=CARTESIAN_POINT('',(37.5,37.5,75.));
#371=CARTESIAN_POINT('',(0.,0.,75.));
#372=CARTESIAN_POINT('',(0.,0.,0.));
#373=CARTESIAN_POINT('',(-39.6441280606815,-31.2500272962127,50.7838015611371));
#374=CARTESIAN_POINT('',(-39.6441280606815,-31.2500272962127,50.7838015611371));
#375=CARTESIAN_POINT('',(35.3558719393185,-31.2500272962127,15.182325546377));
#376=CARTESIAN_POINT('',(35.3558719393185,-31.2500272962127,15.182325546377));
#377=CARTESIAN_POINT('',(-35.3558719393185,-31.2500272962127,59.8176744536231));
#378=CARTESIAN_POINT('',(-35.3558719393185,-31.2500272962127,59.8176744536231));
#379=CARTESIAN_POINT('',(-35.3558719393185,-31.2500272962127,59.8176744536231));
#380=CARTESIAN_POINT('',(-35.3558719393185,-31.2500272962127,59.8176744536231));
#381=CARTESIAN_POINT('',(37.5,-31.2500272962127,19.6992619926199));
#382=CARTESIAN_POINT('',(-37.5,-31.2500272962127,55.3007380073801));
#383=CARTESIAN_POINT('',(37.5,-31.2500272962127,19.6992619926199));
#384=CARTESIAN_POINT('',(37.5,-31.2500272962127,19.6992619926199));
#385=CARTESIAN_POINT('',(-37.5,-31.2500272962127,55.3007380073801));
#386=MECHANICAL_DESIGN_GEOMETRIC_PRESENTATION_REPRESENTATION('',(#235),
#387);
#387=(
GEOMETRIC_REPRESENTATION_CONTEXT(3)
GLOBAL_UNCERTAINTY_ASSIGNED_CONTEXT((#388))
GLOBAL_UNIT_ASSIGNED_CONTEXT((#391,#390,#389))
REPRESENTATION_CONTEXT('Boxslitexample','TOP_LEVEL_ASSEMBLY_PART')
);
#388=UNCERTAINTY_MEASURE_WITH_UNIT(LENGTH_MEASURE(0.005),#391,
'DISTANCE_ACCURACY_VALUE','Maximum Tolerance applied to model');
#389=(
NAMED_UNIT(*)
SI_UNIT($,.STERADIAN.)
SOLID_ANGLE_UNIT()
);
#390=(
NAMED_UNIT(*)
PLANE_ANGLE_UNIT()
SI_UNIT($,.RADIAN.)
);
#391=(
LENGTH_UNIT()
NAMED_UNIT(*)
SI_UNIT(.MILLI.,.METRE.)
);
#392=PRODUCT_DEFINITION_SHAPE('','',#393);
#393=PRODUCT_DEFINITION('','',#395,#394);
#394=PRODUCT_DEFINITION_CONTEXT('',#401,'design');
#395=PRODUCT_DEFINITION_FORMATION_WITH_SPECIFIED_SOURCE('','',#397,
 .NOT_KNOWN.);
#396=PRODUCT_RELATED_PRODUCT_CATEGORY('','',(#397));
#397=PRODUCT('Boxslitexample','Boxslitexample','Boxslitexample',(#399));
#398=PRODUCT_CATEGORY('','');
#399=PRODUCT_CONTEXT('',#401,'mechanical');
#400=APPLICATION_PROTOCOL_DEFINITION('international standard',
'automotive_design',2010,#401);
#401=APPLICATION_CONTEXT(
'core data for automotive mechanical design processes');
ENDSEC;
END-ISO-10303-21;
